<svg width="252" height="52" viewBox="0 0 252 52" fill="none" xmlns="http://www.w3.org/2000/svg">
<path d="M14.335 16.5C16.8157 16.5 20.2441 17.1046 20.2441 20.9678V22.2158H15.8711V21.1191C15.8873 20.9023 15.8556 20.6841 15.7793 20.4805C15.703 20.2769 15.5834 20.0923 15.4287 19.9395C15.274 19.7866 15.0874 19.6685 14.8828 19.5947C14.6785 19.5211 14.4605 19.4929 14.2441 19.5117C13.8756 19.4675 13.504 19.5667 13.2061 19.7881C12.9082 20.0094 12.7057 20.3366 12.6416 20.7021C12.5842 21.0104 12.5919 21.3275 12.6631 21.6328C13.1568 23.7093 19.8068 24.8164 20.5459 28.5352C20.7144 29.496 20.7203 30.4784 20.5645 31.4414C20.1474 34.4048 17.5416 35.4999 14.3701 35.5C11.0786 35.5 8.00013 34.3059 8 30.3496V28.9814H12.6982V30.7002C12.6922 30.9263 12.7347 31.1512 12.8232 31.3594C12.9119 31.5677 13.0446 31.7547 13.2119 31.9072C13.3792 32.0596 13.5775 32.1742 13.793 32.2432C14.0084 32.3121 14.2363 32.3336 14.4609 32.3066C14.8435 32.3627 15.2335 32.2708 15.5508 32.0498C15.868 31.8288 16.0889 31.4954 16.1689 31.1172C16.2815 30.6843 16.2694 30.228 16.1338 29.8018C15.2286 27.505 9.00248 26.4566 8.24609 22.8301C8.07575 22.0429 8.06209 21.2301 8.20508 20.4375C8.67481 17.545 11.2214 16.5001 14.335 16.5ZM71.3184 16.6016C73.7766 16.6016 77.1707 17.1987 77.1709 21.0234V22.2588H72.8389V21.1748C72.8553 20.9599 72.8244 20.744 72.749 20.542C72.6737 20.34 72.5556 20.1565 72.4023 20.0049C72.249 19.8532 72.0642 19.7363 71.8613 19.6631C71.6586 19.5899 71.4423 19.5623 71.2275 19.5811C70.8623 19.5377 70.494 19.6356 70.1992 19.8555C69.9045 20.0754 69.7051 20.4003 69.6426 20.7627C69.5855 21.0676 69.5929 21.3814 69.6631 21.6836C70.1531 23.7403 76.7355 24.8356 77.4668 28.5156C77.6341 29.4664 77.6401 30.4387 77.4854 31.3916C77.0734 34.3255 74.4932 35.4081 71.3555 35.4082C68.0993 35.4082 65.0518 34.2252 65.0518 30.3076V28.9531H69.7041V30.6543C69.6972 30.8783 69.7389 31.1012 69.8262 31.3076C69.9135 31.5141 70.0444 31.6995 70.21 31.8506C70.3756 32.0016 70.5726 32.1145 70.7861 32.1826C70.9995 32.2506 71.225 32.2724 71.4473 32.2451C71.826 32.3012 72.2122 32.2101 72.5264 31.9912C72.8406 31.7723 73.0601 31.4412 73.1387 31.0664C73.2506 30.6386 73.2381 30.1878 73.1035 29.7666C72.2098 27.4931 66.0455 26.4542 65.2969 22.8682C65.128 22.0892 65.1135 21.2846 65.2539 20.5C65.715 17.6332 68.2375 16.6016 71.3184 16.6016ZM94.3135 29.7197C94.3204 30.0461 94.286 30.7114 94.2705 30.8867C93.963 34.1954 91.3795 35.2705 88.1562 35.2705C84.933 35.2705 82.3495 34.1954 82.042 30.8867C82.0265 30.714 81.9923 30.0461 82.001 29.7197V17.0029H86.4336V30.1279C86.4258 30.3537 86.4401 30.5798 86.4766 30.8027C86.5479 31.1869 86.7599 31.5312 87.0703 31.7686C87.3806 32.0057 87.768 32.1197 88.1572 32.0879C88.5471 32.1192 88.9345 32.0043 89.2451 31.7666C89.5558 31.5288 89.7673 31.1844 89.8389 30.7998C89.8732 30.5766 89.8868 30.3507 89.8789 30.125V17H94.3135V29.7197ZM124.381 16.585C127.489 16.585 130.209 17.6417 130.533 20.9678C130.566 21.3559 130.578 21.7454 130.571 22.1348V22.7246H126.152V21.7305C126.153 21.5038 126.135 21.2772 126.097 21.0537C126.02 20.6586 125.798 20.3069 125.474 20.0684C125.149 19.8298 124.747 19.722 124.347 19.7666C123.948 19.7289 123.551 19.8397 123.229 20.0771C122.906 20.3146 122.682 20.662 122.601 21.0537C122.55 21.3308 122.527 21.6129 122.531 21.8945V30.002C122.526 30.2272 122.539 30.4529 122.572 30.6758C122.657 31.0751 122.888 31.4284 123.219 31.667C123.55 31.9055 123.959 32.0123 124.364 31.9658C124.77 32.0121 125.178 31.9053 125.509 31.667C125.84 31.4287 126.07 31.0757 126.155 30.6768C126.189 30.4539 126.203 30.2283 126.198 30.0029V27.4297H124.4V24.8438H130.607V29.5986C130.606 29.9886 130.585 30.3788 130.544 30.7666C130.254 33.9957 127.489 35.1473 124.383 35.1475C121.276 35.1475 118.511 33.9967 118.219 30.7666C118.178 30.3788 118.157 29.9886 118.156 29.5986V22.1348C118.156 21.8188 118.194 21.2648 118.23 20.9678C118.622 17.6511 121.272 16.585 124.381 16.585ZM220.82 28.9258C220.82 29.9443 221.041 30.7534 221.482 31.3525C221.939 31.9365 222.638 32.2285 223.58 32.2285C224.404 32.2285 225.089 31.9217 225.634 31.3076C226.178 30.6935 226.45 29.8095 226.45 28.6562V21.4443H229.432V34.5879H226.473V33.082C226.061 33.6362 225.545 34.0702 224.927 34.3848C224.309 34.6993 223.587 34.8574 222.763 34.8574C221.232 34.8574 220.018 34.3624 219.12 33.374C218.237 32.3855 217.795 31.0077 217.795 29.2402V21.4443H220.82V28.9258ZM234.146 23.1064C234.602 22.5225 235.19 22.0583 235.911 21.7139C236.647 21.3544 237.45 21.1748 238.318 21.1748C239.128 21.1748 239.915 21.332 240.681 21.6465C241.446 21.946 242.123 22.3876 242.712 22.9717C243.301 23.5558 243.772 24.2752 244.125 25.1289C244.493 25.9675 244.678 26.9332 244.678 28.0264C244.678 29.1047 244.493 30.0711 244.125 30.9248C243.757 31.7636 243.271 32.4754 242.668 33.0596C242.079 33.6436 241.41 34.0927 240.659 34.4072C239.908 34.7068 239.142 34.8564 238.362 34.8564C237.479 34.8564 236.67 34.6843 235.934 34.3398C235.198 33.9954 234.594 33.5089 234.123 32.8799V34.5869H231.164V17.9619H234.146V23.1064ZM189.949 17.9619C190.7 17.9619 191.421 18.0593 192.112 18.2539C192.819 18.4486 193.475 18.7255 194.078 19.085C194.696 19.4294 195.249 19.856 195.734 20.3652C196.235 20.8595 196.661 21.4142 197.015 22.0283L194.387 23.7354C193.916 22.8818 193.32 22.2081 192.599 21.7139C191.877 21.2196 190.994 20.9717 189.949 20.9717C189.184 20.9717 188.477 21.1148 187.829 21.3994C187.182 21.669 186.622 22.0508 186.151 22.5449C185.68 23.0241 185.312 23.593 185.047 24.252C184.782 24.911 184.649 25.6228 184.649 26.3867C184.649 27.1356 184.782 27.84 185.047 28.499C185.312 29.1429 185.673 29.7119 186.129 30.2061C186.6 30.6854 187.152 31.067 187.785 31.3516C188.433 31.6212 189.132 31.7568 189.883 31.7568C191.001 31.7568 191.944 31.4715 192.709 30.9023C193.489 30.3183 194.093 29.5772 194.52 28.6787L197.258 30.1387C196.905 30.8277 196.47 31.4647 195.955 32.0488C195.455 32.6179 194.888 33.1119 194.255 33.5312C193.637 33.9357 192.959 34.2499 192.223 34.4746C191.502 34.6992 190.744 34.8115 189.949 34.8115C188.713 34.8115 187.579 34.5945 186.549 34.1602C185.533 33.7109 184.665 33.112 183.943 32.3633C183.222 31.5994 182.662 30.708 182.265 29.6895C181.867 28.656 181.669 27.555 181.669 26.3867C181.669 25.1586 181.882 24.0351 182.309 23.0166C182.735 21.9831 183.318 21.0917 184.054 20.3428C184.804 19.5941 185.68 19.0101 186.681 18.5908C187.696 18.1714 188.786 17.9619 189.949 17.9619ZM37.7822 34.8105H33.0732L30.7363 18.7158L30.6396 18.7119L28.2461 34.8105H23.5068L26.7539 17.0703H34.5508L37.7822 34.8105ZM60.7607 34.8057H56.3779L56.2666 18.8604H56.1729L53.2471 34.8105H48.7988L45.873 18.8643H45.7754L45.665 34.8105H41.2793L41.665 17.0703H48.8125L50.9707 30.6348L51.0713 30.6309L53.2295 17.0654H60.375L60.7607 34.8057ZM113.585 34.623H107.345L103.02 20.2197H102.923L103.164 34.623H98.8467V17.0664H105.354L109.38 30.9922H109.484L109.245 17.0654H113.585V34.623ZM145.373 24.9043H151.555V18.1865H154.558V34.5869H151.555V27.8242H145.373V34.5869H142.37V18.1865H145.373V24.9043ZM162.744 29.9141L166.542 18.1865H169.655L164.245 34.5869H161.221L155.811 18.1865H158.924L162.744 29.9141ZM181.854 34.5869H178.719L177.725 31.666H171.477L170.482 34.5869H167.347L173.088 18.1865H176.113L181.854 34.5869ZM206.827 24.9043H213.01V18.1865H216.013V34.5869H213.01V27.8242H206.827V34.5869H203.824V18.1865H206.827V24.9043ZM237.854 23.9375C237.31 23.9375 236.802 24.0423 236.331 24.252C235.86 24.4616 235.448 24.7545 235.095 25.1289C234.756 25.4883 234.491 25.915 234.3 26.4092C234.108 26.9033 234.013 27.4274 234.013 27.9814C234.013 28.5506 234.108 29.0829 234.3 29.5771C234.491 30.0714 234.756 30.5055 235.095 30.8799C235.448 31.2543 235.86 31.5471 236.331 31.7568C236.802 31.9665 237.31 32.0713 237.854 32.0713C238.399 32.0713 238.907 31.9664 239.378 31.7568C239.849 31.5471 240.261 31.2618 240.614 30.9023C240.968 30.5279 241.24 30.0939 241.432 29.5996C241.638 29.0904 241.741 28.5506 241.741 27.9814C241.741 27.4125 241.638 26.8809 241.432 26.3867C241.24 25.8924 240.968 25.4659 240.614 25.1064C240.261 24.747 239.849 24.4616 239.378 24.252C238.907 24.0424 238.399 23.9375 237.854 23.9375ZM172.492 28.7461H176.731L174.611 22.5225L172.492 28.7461Z" fill="black"/>
</svg>
