<svg width="64" height="64" viewBox="0 0 64 64" fill="none" xmlns="http://www.w3.org/2000/svg">
<path d="M32 44.7778C30.8954 44.7778 30 45.6732 30 46.7778C30 47.8823 30.8954 48.7778 32 48.7778V44.7778ZM32.0156 48.7778C33.1201 48.7778 34.0156 47.8823 34.0156 46.7778C34.0156 45.6732 33.1201 44.7778 32.0156 44.7778V48.7778ZM37.8161 28.0026L39.364 29.2691V29.2691L37.8161 28.0026ZM33.9701 32.7032L35.518 33.9697L33.9701 32.7032ZM23 25C23 26.1046 23.8954 27 25 27C26.1046 27 27 26.1046 27 25H23ZM30 38.2222C30 39.3268 30.8954 40.2222 32 40.2222C33.1046 40.2222 34 39.3268 34 38.2222H30ZM58 32C58 46.3594 46.3594 58 32 58V62C48.5685 62 62 48.5685 62 32H58ZM32 58C17.6406 58 6 46.3594 6 32H2C2 48.5685 15.4315 62 32 62V58ZM6 32C6 17.6406 17.6406 6 32 6V2C15.4315 2 2 15.4315 2 32H6ZM32 6C46.3594 6 58 17.6406 58 32H62C62 15.4315 48.5685 2 32 2V6ZM32 48.7778H32.0156V44.7778H32V48.7778ZM37 24.2222V24.6859H41V24.2222H37ZM36.2682 26.7361L32.4222 31.4368L35.518 33.9697L39.364 29.2691L36.2682 26.7361ZM27 25V24.2222H23V25H27ZM32.4222 31.4368C30.8558 33.3512 30 35.7486 30 38.2222H34C34 36.672 34.5363 35.1695 35.518 33.9697L32.4222 31.4368ZM37 24.6859C37 25.4333 36.7414 26.1577 36.2682 26.7361L39.364 29.2691C40.422 27.976 41 26.3567 41 24.6859H37ZM32 19.2222C34.7614 19.2222 37 21.4608 37 24.2222H41C41 19.2517 36.9706 15.2222 32 15.2222V19.2222ZM32 15.2222C27.0294 15.2222 23 19.2517 23 24.2222H27C27 21.4608 29.2386 19.2222 32 19.2222V15.2222Z" fill="black"/>
</svg>
