<svg width="48" height="48" viewBox="0 0 48 48" fill="none" xmlns="http://www.w3.org/2000/svg">
<path d="M30.2667 7.77419H36.3333C37.8061 7.77419 39 8.9007 39 10.2903V40.4839C39 41.8735 37.8061 43 36.3333 43H9.66667C8.19391 43 7 41.8735 7 40.4839V10.2903C7 8.9007 8.19391 7.77419 9.66667 7.77419H15.7333M30.2667 7.77419C30.3104 7.57095 30.3333 7.36058 30.3333 7.14516C30.3333 5.40814 28.8409 4 27 4H19C17.1591 4 15.6667 5.40814 15.6667 7.14516C15.6667 7.36058 15.6896 7.57095 15.7333 7.77419M30.2667 7.77419C29.9578 9.2098 28.6126 10.2903 27 10.2903H19C17.3874 10.2903 16.0422 9.2098 15.7333 7.77419M13.1538 21.0625L15.6154 23.5L20.5385 18.625M13.1538 32.0312L15.6154 34.4688L20.5385 29.5938M26.6923 21.0625H32.8462M26.6923 32.0312H32.8462" stroke="black" stroke-width="3" stroke-linecap="round" stroke-linejoin="round"/>
</svg>
