<svg width="56" height="56" viewBox="0 0 56 56" fill="none" xmlns="http://www.w3.org/2000/svg">
<path d="M28.0001 28.0016C30.3334 28.0016 32.3177 27.1858 33.9529 25.5544C35.5881 23.9229 36.4038 21.9386 36.4001 19.6016C36.4001 17.2682 35.5844 15.2858 33.9529 13.6544C32.3214 12.0229 30.3372 11.2053 28.0001 11.2016C25.6668 11.2016 23.6844 12.0192 22.0529 13.6544C20.4214 15.2896 19.6038 17.272 19.6001 19.6016C19.6001 21.9349 20.4177 23.9192 22.0529 25.5544C23.6881 27.1896 25.6705 28.0053 28.0001 28.0016ZM28.0001 44.8016C30.9644 44.8016 33.643 44.1426 36.0361 42.8248C38.4254 41.5069 40.4041 39.728 41.9721 37.488C39.8441 36.2037 37.6134 35.2349 35.2801 34.5816C32.9468 33.9282 30.5201 33.6016 28.0001 33.6016C25.4801 33.6016 23.0534 33.9282 20.7201 34.5816C18.3868 35.2349 16.158 36.2056 14.0337 37.4936C15.598 39.7336 17.5766 41.5106 19.9697 42.8248C22.3553 44.1426 25.0321 44.8016 28.0001 44.8016ZM28.0001 50.4016C21.7617 50.4016 16.4678 48.2288 12.1185 43.8832C7.76917 39.5376 5.59637 34.2437 5.6001 28.0016C5.6001 21.7632 7.7729 16.4693 12.1185 12.12C16.4641 7.77063 21.758 5.59783 28.0001 5.60157C34.2385 5.60157 39.5324 7.77436 43.8817 12.12C48.231 16.4656 50.4038 21.7594 50.4001 28.0016C50.4001 34.24 48.2273 39.5338 43.8817 43.8832C39.5361 48.2325 34.2422 50.4053 28.0001 50.4016Z" fill="#CCCCCC"/>
</svg>
