<svg width="24" height="24" viewBox="0 0 24 24" fill="none" xmlns="http://www.w3.org/2000/svg">
<path d="M18.3452 17.9114C18.9019 17.9114 19.446 18.0764 19.9089 18.3857C20.3717 18.6949 20.7324 19.1345 20.9455 19.6488C21.1585 20.163 21.2142 20.7289 21.1056 21.2749C20.997 21.8208 20.729 22.3223 20.3354 22.7159C19.9417 23.1095 19.4403 23.3776 18.8943 23.4862C18.3484 23.5948 17.7825 23.5391 17.2682 23.326C16.7539 23.113 16.3143 22.7523 16.0051 22.2894C15.6958 21.8266 15.5308 21.2825 15.5308 20.7258C15.5373 19.9814 15.8359 19.2693 16.3623 18.7429C16.8887 18.2165 17.6008 17.9179 18.3452 17.9114ZM9.39138 17.9114C9.94803 17.9114 10.4922 18.0764 10.955 18.3857C11.4179 18.6949 11.7786 19.1345 11.9916 19.6488C12.2046 20.163 12.2604 20.7289 12.1518 21.2749C12.0432 21.8208 11.7751 22.3223 11.3815 22.7159C10.9879 23.1095 10.4864 23.3776 9.94046 23.4862C9.39451 23.5948 8.82861 23.5391 8.31434 23.326C7.80006 23.113 7.3605 22.7523 7.05125 22.2894C6.74199 21.8266 6.57692 21.2825 6.57692 20.7258C6.58343 19.9815 6.88191 19.2696 7.40812 18.7432C7.93433 18.2168 8.64619 17.9181 9.39046 17.9114H9.39138ZM18.3452 19.7021C18.1428 19.7021 17.9448 19.7622 17.7765 19.8746C17.6082 19.9871 17.4769 20.147 17.3995 20.3341C17.322 20.5211 17.3017 20.7269 17.3412 20.9255C17.3807 21.1241 17.4782 21.3065 17.6214 21.4497C17.7645 21.5928 17.9469 21.6903 18.1455 21.7298C18.3441 21.7693 18.5499 21.7491 18.737 21.6716C18.924 21.5941 19.0839 21.4629 19.1964 21.2945C19.3089 21.1262 19.3689 20.9283 19.3689 20.7258C19.37 20.5911 19.3443 20.4575 19.2933 20.3328C19.2422 20.2081 19.1668 20.0948 19.0716 19.9995C18.9763 19.9042 18.863 19.8288 18.7383 19.7778C18.6136 19.7267 18.48 19.701 18.3452 19.7021ZM9.39138 19.7021C9.18892 19.7021 8.991 19.7622 8.82265 19.8746C8.65431 19.9871 8.5231 20.147 8.44562 20.3341C8.36813 20.5211 8.34786 20.7269 8.38736 20.9255C8.42686 21.1241 8.52436 21.3065 8.66752 21.4497C8.81069 21.5928 8.9931 21.6903 9.19167 21.7298C9.39025 21.7693 9.59608 21.7491 9.78313 21.6716C9.97019 21.5941 10.1301 21.4629 10.2426 21.2945C10.355 21.1262 10.4151 20.9283 10.4151 20.7258C10.4169 20.5908 10.3917 20.4568 10.3409 20.3317C10.29 20.2065 10.2146 20.0929 10.1191 19.9975C10.0235 19.902 9.90984 19.8267 9.78469 19.776C9.65954 19.7252 9.52549 19.7001 9.39046 19.7021H9.39138ZM3.27508 0.922119C3.56339 0.927514 3.84311 1.02121 4.07651 1.19056C4.30991 1.35991 4.48575 1.59678 4.58031 1.8692V1.91997L5.34831 4.7815H22.7714C22.9544 4.78142 23.1351 4.82228 23.3003 4.9011C23.4654 4.97991 23.6109 5.09469 23.726 5.23701C23.841 5.37933 23.9228 5.54558 23.9652 5.7236C24.0077 5.90162 24.0098 6.08688 23.9714 6.26581V6.31658L21.5178 15.6083C21.4403 15.8853 21.2775 16.1308 21.0524 16.3099C20.8274 16.489 20.5516 16.5927 20.2643 16.6061H7.41969C7.13013 16.6057 6.84808 16.514 6.61371 16.3439C6.37935 16.1739 6.20463 15.9342 6.11446 15.659L6.09231 15.6083L2.73785 2.96858H0V0.922119H3.27508ZM21.6969 6.82981H5.88462L7.93108 14.5569H19.6754L21.6969 6.82981Z" fill="black"/>
</svg>
