<svg width="16" height="17" viewBox="0 0 16 17" fill="none" xmlns="http://www.w3.org/2000/svg">
<path d="M10.4724 8.97374C11.1259 8.45952 11.603 7.75436 11.8372 6.95637C12.0713 6.15838 12.051 5.30725 11.7789 4.52139C11.5068 3.73552 10.9965 3.054 10.3191 2.57165C9.64161 2.08929 8.83066 1.83008 7.99902 1.83008C7.16739 1.83008 6.35643 2.08929 5.67897 2.57165C5.00152 3.054 4.49125 3.73552 4.21916 4.52139C3.94707 5.30725 3.9267 6.15838 4.16086 6.95637C4.39503 7.75436 4.87209 8.45952 5.52569 8.97374C4.40574 9.42244 3.42855 10.1666 2.69828 11.127C1.96802 12.0874 1.51206 13.2279 1.37902 14.4271C1.36939 14.5146 1.3771 14.6032 1.4017 14.6878C1.42631 14.7723 1.46733 14.8512 1.52243 14.92C1.6337 15.0587 1.79554 15.1476 1.97235 15.1671C2.14917 15.1865 2.32646 15.1349 2.46524 15.0237C2.60401 14.9124 2.69291 14.7506 2.71235 14.5737C2.85874 13.2705 3.48015 12.0669 4.45783 11.1929C5.43552 10.3189 6.70095 9.83576 8.01236 9.83576C9.32376 9.83576 10.5892 10.3189 11.5669 11.1929C12.5446 12.0669 13.166 13.2705 13.3124 14.5737C13.3305 14.7376 13.4086 14.8888 13.5318 14.9984C13.6549 15.108 13.8142 15.1681 13.979 15.1671H14.0524C14.2271 15.147 14.3868 15.0586 14.4967 14.9212C14.6066 14.7839 14.6578 14.6087 14.639 14.4337C14.5054 13.2312 14.0469 12.0877 13.3129 11.1259C12.5789 10.164 11.597 9.42006 10.4724 8.97374ZM7.99902 8.50041C7.4716 8.50041 6.95603 8.34401 6.5175 8.05099C6.07897 7.75798 5.73718 7.3415 5.53534 6.85423C5.33351 6.36696 5.2807 5.83078 5.38359 5.3135C5.48649 4.79622 5.74046 4.32106 6.1134 3.94812C6.48634 3.57518 6.9615 3.32121 7.47878 3.21831C7.99606 3.11542 8.53224 3.16823 9.01951 3.37006C9.50678 3.5719 9.92326 3.91369 10.2163 4.35222C10.5093 4.79075 10.6657 5.30633 10.6657 5.83374C10.6657 6.54099 10.3847 7.21926 9.88464 7.71936C9.38454 8.21946 8.70627 8.50041 7.99902 8.50041Z" fill="#666666"/>
</svg>
