<svg width="24" height="24" viewBox="0 0 24 24" fill="none" xmlns="http://www.w3.org/2000/svg">
<path fill-rule="evenodd" clip-rule="evenodd" d="M16.8338 4.39216C15.8586 4.39216 15.0669 5.18371 15.0669 6.1615C15.0669 6.47058 15.146 6.76104 15.285 7.01378C15.2932 7.02584 15.301 7.03826 15.3085 7.05102C15.3161 7.06405 15.3232 7.07724 15.3298 7.09056C15.6412 7.59498 16.1986 7.93084 16.8338 7.93084C17.8091 7.93084 18.6007 7.1393 18.6007 6.1615C18.6007 5.18371 17.8091 4.39216 16.8338 4.39216ZM14.5718 8.23415C15.1324 8.84666 15.9381 9.23084 16.8338 9.23084C18.5283 9.23084 19.9007 7.85604 19.9007 6.1615C19.9007 4.46697 18.5283 3.09216 16.8338 3.09216C15.1394 3.09216 13.7669 4.46697 13.7669 6.1615C13.7669 6.49297 13.8194 6.81221 13.9166 7.11131L9.42815 9.7333C8.86755 9.12084 8.06183 8.73669 7.16616 8.73669C5.47173 8.73669 4.09924 10.1115 4.09924 11.806C4.09924 13.5006 5.47173 14.8754 7.16616 14.8754C8.06201 14.8754 8.86787 14.4911 9.42848 13.8784L13.9189 16.4977C13.8202 16.7988 13.7669 17.1204 13.7669 17.4545C13.7669 19.149 15.1394 20.5238 16.8338 20.5238C18.5283 20.5238 19.9007 19.149 19.9007 17.4545C19.9007 15.7599 18.5283 14.3851 16.8338 14.3851C15.9407 14.3851 15.1371 14.7671 14.5767 15.3764L10.0835 12.7555C10.1806 12.4565 10.2331 12.1374 10.2331 11.806C10.2331 11.4745 10.1805 11.1552 10.0834 10.8561L14.5718 8.23415ZM8.67033 10.8772C8.67689 10.8904 8.68395 10.9035 8.6915 10.9164C8.6989 10.9291 8.70666 10.9414 8.71476 10.9534C8.85389 11.2062 8.93307 11.4968 8.93307 11.806C8.93307 12.115 8.85402 12.4054 8.7151 12.6581C8.7068 12.6703 8.69886 12.6829 8.69129 12.6959C8.68371 12.7089 8.67662 12.7221 8.67004 12.7354C8.35859 13.2396 7.8013 13.5754 7.16616 13.5754C6.19093 13.5754 5.39924 12.7838 5.39924 11.806C5.39924 10.8282 6.19093 10.0367 7.16616 10.0367C7.8015 10.0367 8.35894 10.3726 8.67033 10.8772ZM15.2699 16.6302C15.2868 16.6083 15.3024 16.5851 15.3167 16.5606C15.3303 16.5373 15.3423 16.5134 15.3527 16.4893C15.6681 16.005 16.2139 15.6851 16.8338 15.6851C17.8091 15.6851 18.6007 16.4767 18.6007 17.4545C18.6007 18.4323 17.8091 19.2238 16.8338 19.2238C15.8586 19.2238 15.0669 18.4323 15.0669 17.4545C15.0669 17.1567 15.1403 16.8763 15.2699 16.6302Z" fill="black"/>
</svg>
