<svg width="72" height="72" viewBox="0 0 72 72" fill="none" xmlns="http://www.w3.org/2000/svg">
<path d="M61.1998 68.1998C62.5805 68.1998 63.6998 67.0805 63.6998 65.6998C63.6998 64.3191 62.5805 63.1998 61.1998 63.1998V68.1998ZM17.6725 65.6998V68.1998V65.6998ZM10.7998 58.846H8.2998H10.7998ZM17.6725 51.9921V49.4921V51.9921ZM17.6725 6.29981L17.6716 8.79981H17.6725V6.29981ZM10.7998 12.9709L8.3007 12.904C8.3001 12.9263 8.2998 12.9486 8.2998 12.9709H10.7998ZM54.118 65.6998C54.118 67.0805 55.2373 68.1998 56.618 68.1998C57.9987 68.1998 59.118 67.0805 59.118 65.6998H54.118ZM35.9998 39.4398C34.6191 39.4398 33.4998 40.5591 33.4998 41.9398C33.4998 43.3205 34.6191 44.4398 35.9998 44.4398V39.4398ZM36.0131 44.4398C37.3939 44.4398 38.5131 43.3205 38.5131 41.9398C38.5131 40.5591 37.3939 39.4398 36.0131 39.4398V44.4398ZM40.985 26.0916L42.9079 27.6892L40.985 26.0916ZM37.6884 30.0594L35.7655 28.4618L37.6884 30.0594ZM27.4998 23.5571C27.4998 24.9378 28.6191 26.0571 29.9998 26.0571C31.3805 26.0571 32.4998 24.9378 32.4998 23.5571H27.4998ZM33.4998 34.718C33.4998 36.0987 34.6191 37.218 35.9998 37.218C37.3805 37.218 38.4998 36.0987 38.4998 34.718H33.4998ZM61.1998 63.1998H17.6725V68.1998H61.1998V63.1998ZM17.6725 63.1998C16.5106 63.1998 15.3976 62.7394 14.5781 61.9222L11.0474 65.4626C12.8057 67.216 15.1889 68.1998 17.6725 68.1998V63.1998ZM14.5781 61.9222C13.7588 61.1051 13.2998 59.9984 13.2998 58.846H8.2998C8.2998 61.329 9.28896 63.7089 11.0474 65.4626L14.5781 61.9222ZM13.2998 58.846C13.2998 57.6935 13.7588 56.5868 14.5781 55.7698L11.0474 52.2294C9.28896 53.983 8.2998 56.3629 8.2998 58.846H13.2998ZM14.5781 55.7698C15.3976 54.9525 16.5106 54.4921 17.6725 54.4921V49.4921C15.1889 49.4921 12.8057 50.4759 11.0474 52.2294L14.5781 55.7698ZM17.6725 54.4921H56.618V49.4921H17.6725V54.4921ZM56.618 54.4921C58.494 54.4921 60.2945 53.749 61.6232 52.424L58.0925 48.8836C57.7026 49.2724 57.1723 49.4921 56.618 49.4921V54.4921ZM61.6232 52.424C62.952 51.0988 63.6998 49.3 63.6998 47.4229H58.6998C58.6998 47.9694 58.4821 48.495 58.0925 48.8836L61.6232 52.424ZM63.6998 47.4229V10.869H58.6998V47.4229H63.6998ZM63.6998 10.869C63.6998 8.99193 62.952 7.19311 61.6232 5.8679L58.0925 9.4083C58.4821 9.79689 58.6998 10.3225 58.6998 10.869H63.6998ZM61.6232 5.8679C60.2945 4.54293 58.494 3.79981 56.618 3.79981V8.79981C57.1723 8.79981 57.7026 9.01948 58.0925 9.4083L61.6232 5.8679ZM56.618 3.79981H17.6725V8.79981H56.618V3.79981ZM17.6734 3.79981C15.2325 3.79894 12.8864 4.74851 11.1352 6.44832L14.6177 10.0361C15.434 9.24374 16.5297 8.7994 17.6716 8.7998L17.6734 3.79981ZM11.1352 6.44832C9.38379 8.14834 8.36595 10.4646 8.3007 12.904L13.2989 13.0377C13.3292 11.9054 13.8016 10.8282 14.6177 10.0361L11.1352 6.44832ZM8.2998 12.9709V58.846H13.2998V12.9709H8.2998ZM54.118 51.9921V65.6998H59.118V51.9921H54.118ZM35.9998 44.4398H36.0131V39.4398H35.9998V44.4398ZM39.4998 22.9005V23.2919H44.4998V22.9005H39.4998ZM39.0621 24.494L35.7655 28.4618L39.6114 31.657L42.9079 27.6892L39.0621 24.494ZM32.4998 23.5571V22.9005H27.4998V23.5571H32.4998ZM35.7655 28.4618C34.3031 30.222 33.4998 32.4322 33.4998 34.718H38.4998C38.4998 33.6073 38.8897 32.5256 39.6114 31.657L35.7655 28.4618ZM39.4998 23.2919C39.4998 23.725 39.3479 24.1499 39.0621 24.494L42.9079 27.6892C43.9346 26.4535 44.4998 24.9 44.4998 23.2919H39.4998ZM35.9998 19.4918C37.9691 19.4918 39.4998 21.0539 39.4998 22.9005H44.4998C44.4998 18.2205 40.658 14.4918 35.9998 14.4918V19.4918ZM35.9998 14.4918C31.3416 14.4918 27.4998 18.2205 27.4998 22.9005H32.4998C32.4998 21.0539 34.0305 19.4918 35.9998 19.4918V14.4918Z" fill="black"/>
</svg>
