<svg width="24" height="24" viewBox="0 0 24 24" fill="none" xmlns="http://www.w3.org/2000/svg">
<path fill-rule="evenodd" clip-rule="evenodd" d="M8.50003 7.75C8.50003 5.95507 9.9551 4.5 11.75 4.5C13.545 4.5 15 5.95507 15 7.75C15 9.54493 13.545 11 11.75 11C9.9551 11 8.50003 9.54493 8.50003 7.75ZM14.6451 11.5161C15.7731 10.6476 16.5 9.2837 16.5 7.75C16.5 5.12665 14.3734 3 11.75 3C9.12668 3 7.00003 5.12665 7.00003 7.75C7.00003 9.2837 7.72691 10.6476 8.85496 11.5161C7.50702 12.0425 6.4883 12.9233 5.7451 13.9294C4.56527 15.5266 4.08685 17.4227 4.00169 18.7001C3.97414 19.1134 4.28684 19.4708 4.70014 19.4983C5.11344 19.5259 5.47081 19.2132 5.49837 18.7999C5.56877 17.7439 5.97701 16.14 6.95163 14.8206C7.90273 13.533 9.39929 12.5 11.75 12.5C14.1008 12.5 15.5973 13.533 16.5484 14.8206C17.523 16.14 17.9313 17.7439 18.0017 18.7999C18.0292 19.2132 18.3866 19.5259 18.7999 19.4983C19.2132 19.4708 19.5259 19.1134 19.4984 18.7001C19.4132 17.4227 18.9348 15.5266 17.755 13.9294C17.0118 12.9233 15.993 12.0425 14.6451 11.5161Z" fill="#2189FF"/>
</svg>
