<svg width="96" height="96" viewBox="0 0 96 96" fill="none" xmlns="http://www.w3.org/2000/svg">
<path d="M48 80H14C10.6863 80 8 77.3138 8 74V22C8 18.6863 10.6863 16 14 16H82C85.3138 16 88 18.6863 88 22V46.1176" stroke="black" stroke-width="5" stroke-linecap="round" stroke-linejoin="round"/>
<path d="M8 22C8 18.6863 10.6863 16 14 16H82C85.3138 16 88 18.6863 88 22V40H8V22Z" fill="#2F88FF" stroke="black" stroke-width="5"/>
<path d="M16 28C16 25.7909 17.7909 24 20 24C22.2091 24 24 25.7909 24 28C24 30.2091 22.2091 32 20 32C17.7909 32 16 30.2091 16 28Z" fill="white"/>
<path d="M28 28C28 25.7909 29.7909 24 32 24C34.2091 24 36 25.7909 36 28C36 30.2091 34.2091 32 32 32C29.7909 32 28 30.2091 28 28Z" fill="white"/>
<path d="M74 74C77.3137 74 80 71.3137 80 68C80 64.6863 77.3137 62 74 62C70.6863 62 68 64.6863 68 68C68 71.3137 70.6863 74 74 74Z" stroke="black" stroke-width="5"/>
<path d="M74 82V74" stroke="black" stroke-width="5" stroke-linecap="round" stroke-linejoin="round"/>
<path d="M74 62V54" stroke="black" stroke-width="5" stroke-linecap="round" stroke-linejoin="round"/>
<path d="M61.875 75L68.8032 71" stroke="black" stroke-width="5" stroke-linecap="round" stroke-linejoin="round"/>
<path d="M79.1953 65L86.1235 61" stroke="black" stroke-width="5" stroke-linecap="round" stroke-linejoin="round"/>
<path d="M61.875 61L68.8032 65" stroke="black" stroke-width="5" stroke-linecap="round" stroke-linejoin="round"/>
<path d="M79.1953 71L86.1235 75" stroke="black" stroke-width="5" stroke-linecap="round" stroke-linejoin="round"/>
</svg>
