<svg width="25" height="24" viewBox="0 0 25 24" fill="none" xmlns="http://www.w3.org/2000/svg">
<g clip-path="url(#clip0_1628_91543)">
<g clip-path="url(#clip1_1628_91543)">
<path d="M19.964 12.3669C22.4236 12.3669 24.5 10.3175 24.5 7.83993C24.5 5.36236 22.4501 3.3125 19.964 3.3125C17.4864 3.3125 15.4366 5.36236 15.4366 7.83993C15.4366 10.3351 17.4864 12.3669 19.964 12.3669ZM7.74543 17.9281H18.146C18.4931 17.9281 18.7961 17.6431 18.7961 17.2595C18.7961 16.8768 18.4931 16.5914 18.146 16.5914H7.89714C7.38886 16.5914 7.07686 16.2348 6.99714 15.6914L6.863 14.7554H18.1636C19.0906 14.7554 19.6876 14.3632 20.0261 13.5969C19.2599 13.5969 18.5377 13.4456 17.8696 13.1512C17.7359 13.3295 17.5666 13.4096 17.3167 13.4096L6.65814 13.4186L5.90086 8.25007H14.2421C14.198 7.83993 14.2246 7.30507 14.2867 6.90436H5.70457L5.54429 5.77207C5.44614 5.08636 5.20571 4.73836 4.29671 4.73836H1.15957C0.803 4.73836 0.5 5.05036 0.5 5.40693C0.5 5.77207 0.803 6.08407 1.15957 6.08407H4.17157L5.59786 15.8696C5.78471 17.1352 6.45329 17.9281 7.74543 17.9281ZM19.9726 10.7808C19.661 10.7808 19.3846 10.5665 19.3846 10.2374V8.38336H17.6823C17.5384 8.38268 17.4005 8.32521 17.2988 8.22344C17.197 8.12168 17.1395 7.98385 17.1389 7.83993C17.1389 7.54593 17.3793 7.29607 17.6823 7.29607H19.3846V5.4515C19.3846 5.11293 19.661 4.89864 19.973 4.89864C20.2846 4.89864 20.5516 5.11293 20.5516 5.4515V7.29607H22.2543C22.5573 7.29607 22.8071 7.5455 22.8071 7.83993C22.8071 8.13436 22.5573 8.38336 22.2543 8.38336H20.552V10.2374C20.552 10.5669 20.2841 10.7808 19.9726 10.7808ZM8.45 22.2596C8.64011 22.2613 8.82864 22.2251 9.0046 22.1531C9.18055 22.0811 9.3404 21.9747 9.47481 21.8403C9.60922 21.7058 9.7155 21.546 9.78745 21.37C9.8594 21.194 9.89557 21.0055 9.89386 20.8154C9.8946 20.6255 9.85773 20.4374 9.7854 20.2619C9.71307 20.0864 9.6067 19.9269 9.47243 19.7928C9.33816 19.6586 9.17864 19.5523 9.00308 19.4801C8.82753 19.4078 8.6394 19.3711 8.44957 19.3719C8.25954 19.3703 8.07108 19.4066 7.89521 19.4786C7.71933 19.5506 7.55955 19.6569 7.42519 19.7913C7.29083 19.9257 7.18458 20.0855 7.11263 20.2614C7.04069 20.4373 7.00449 20.6257 7.00614 20.8158C7.0039 21.006 7.03972 21.1948 7.11148 21.371C7.18325 21.5472 7.28952 21.7072 7.42404 21.8417C7.55857 21.9763 7.71863 22.0825 7.89482 22.1543C8.07101 22.2261 8.25977 22.2619 8.45 22.2596ZM16.7917 22.2596C16.9818 22.2612 17.1703 22.225 17.3462 22.1529C17.5221 22.0809 17.6819 21.9746 17.8162 21.8401C17.9506 21.7057 18.0569 21.5458 18.1288 21.3699C18.2007 21.1939 18.2369 21.0054 18.2351 20.8154C18.2359 20.6256 18.199 20.4376 18.1268 20.2621C18.0545 20.0867 17.9482 19.9272 17.814 19.7931C17.6798 19.6589 17.5204 19.5526 17.345 19.4803C17.1695 19.408 16.9815 19.3712 16.7917 19.3719C15.9804 19.3719 15.3303 20.0135 15.3303 20.8158C15.3303 21.6266 15.9804 22.2596 16.7917 22.2596Z" fill="black"/>
</g>
</g>
<defs>
<clipPath id="clip0_1628_91543">
<rect width="24" height="24" fill="white" transform="translate(0.5)"/>
</clipPath>
<clipPath id="clip1_1628_91543">
<rect width="24" height="24" fill="white" transform="translate(0.5)"/>
</clipPath>
</defs>
</svg>
