<svg width="16" height="16" viewBox="0 0 16 16" fill="none" xmlns="http://www.w3.org/2000/svg">
<path fill-rule="evenodd" clip-rule="evenodd" d="M5.66664 5.16667C5.66664 3.97005 6.63669 3 7.83331 3C9.02993 3 9.99998 3.97005 9.99998 5.16667C9.99998 6.36328 9.02993 7.33333 7.83331 7.33333C6.63669 7.33333 5.66664 6.36328 5.66664 5.16667ZM9.76335 7.67739C10.5154 7.09842 11 6.18913 11 5.16667C11 3.41777 9.58221 2 7.83331 2C6.08441 2 4.66664 3.41777 4.66664 5.16667C4.66664 6.18913 5.15123 7.09842 5.90327 7.67739C5.00464 8.02835 4.32549 8.6155 3.83002 9.28626C3.04347 10.3511 2.72452 11.6152 2.66775 12.4667C2.64938 12.7423 2.85785 12.9805 3.13339 12.9989C3.40892 13.0173 3.64717 12.8088 3.66554 12.5333C3.71247 11.8293 3.98463 10.76 4.63438 9.88041C5.26844 9.02201 6.26615 8.33333 7.83331 8.33333C9.40047 8.33333 10.3982 9.02201 11.0322 9.88041C11.682 10.76 11.9542 11.8293 12.0011 12.5333C12.0195 12.8088 12.2577 13.0173 12.5332 12.9989C12.8088 12.9805 13.0172 12.7423 12.9989 12.4667C12.9421 11.6152 12.6232 10.3511 11.8366 9.28626C11.3411 8.6155 10.662 8.02835 9.76335 7.67739Z" fill="#2189FF"/>
</svg>
