<svg width="24" height="24" viewBox="0 0 24 24" fill="none" xmlns="http://www.w3.org/2000/svg">
<path d="M7.5 10.0717C7.5 9.38968 7.77095 8.73554 8.25325 8.25325C8.73554 7.77095 9.38968 7.5 10.0717 7.5H18.4283C18.766 7.5 19.1004 7.56652 19.4124 7.69576C19.7244 7.82501 20.0079 8.01444 20.2468 8.25325C20.4856 8.49206 20.675 8.77556 20.8042 9.08758C20.9335 9.3996 21 9.73402 21 10.0717V18.4283C21 18.766 20.9335 19.1004 20.8042 19.4124C20.675 19.7244 20.4856 20.0079 20.2468 20.2468C20.0079 20.4856 19.7244 20.675 19.4124 20.8042C19.1004 20.9335 18.766 21 18.4283 21H10.0717C9.73402 21 9.3996 20.9335 9.08758 20.8042C8.77556 20.675 8.49206 20.4856 8.25325 20.2468C8.01444 20.0079 7.82501 19.7244 7.69576 19.4124C7.56652 19.1004 7.5 18.766 7.5 18.4283V10.0717Z" stroke="black" stroke-width="1.5" stroke-linecap="round" stroke-linejoin="round"/>
<path d="M4.012 16.5C3.705 16.3286 3.44965 16.0803 3.2719 15.7805C3.09415 15.4807 3.00034 15.14 3 14.793V4.96549C3 3.88447 3.9 3 5 3H10H15C15.75 3 16.158 3.37836 16.5 3.98275" stroke="black" stroke-width="1.5" stroke-linecap="round" stroke-linejoin="round"/>
</svg>
