<svg width="24" height="24" viewBox="0 0 24 24" fill="none" xmlns="http://www.w3.org/2000/svg">
<path d="M21 12.998C21 17.9726 16.9745 21.998 12 21.998C7.02545 21.998 3 17.9726 3 12.998C3 8.0235 7.02545 3.99805 12 3.99805C13.4727 3.99805 14.8636 4.35805 16.0909 4.97987" stroke="white" stroke-width="1.5" stroke-linecap="round" stroke-linejoin="round"/>
<path d="M16.122 2.84473C16.1278 2.84751 16.1364 2.85243 16.1461 2.86087L16.1786 2.89946L18.4487 6.29504L18.4488 6.29601C18.4857 6.35264 18.4904 6.42329 18.4668 6.48192C18.4451 6.53562 18.4154 6.54846 18.3913 6.55148L14.5989 6.91696L14.592 6.917C14.5771 6.91864 14.5678 6.91683 14.5587 6.91212C14.5472 6.90615 14.5299 6.89249 14.5135 6.86754C14.4787 6.81425 14.4683 6.74139 14.4948 6.6768L14.4964 6.67458L16.0181 2.90965C16.032 2.87587 16.0485 2.85899 16.0588 2.85123C16.0696 2.84308 16.0802 2.83974 16.0895 2.83874C16.0986 2.83779 16.1097 2.83891 16.122 2.84473Z" fill="white" stroke="white"/>
</svg>
