<svg width="104" height="104" viewBox="0 0 104 104" fill="none" xmlns="http://www.w3.org/2000/svg">
<rect x="1" y="1" width="102" height="102" fill="#F7F7F7"/>
<rect x="1" y="1" width="102" height="102" stroke="#EEEEEE" stroke-width="2"/>
<path d="M64.25 43.257C64.25 44.1871 63.8805 45.0791 63.2228 45.7368C62.5651 46.3945 61.6731 46.764 60.743 46.764C59.8129 46.764 58.9209 46.3945 58.2632 45.7368C57.6055 45.0791 57.236 44.1871 57.236 43.257C57.236 42.3269 57.6055 41.4349 58.2632 40.7772C58.9209 40.1195 59.8129 39.75 60.743 39.75C61.6731 39.75 62.5651 40.1195 63.2228 40.7772C63.8805 41.4349 64.25 42.3269 64.25 43.257ZM31 39.75C31 37.4294 31.9219 35.2038 33.5628 33.5628C35.2038 31.9219 37.4294 31 39.75 31H64.25C66.5706 31 68.7962 31.9219 70.4372 33.5628C72.0781 35.2038 73 37.4294 73 39.75V64.25C73 66.5706 72.0781 68.7962 70.4372 70.4372C68.7962 72.0781 66.5706 73 64.25 73H39.75C37.4294 73 35.2038 72.0781 33.5628 70.4372C31.9219 68.7962 31 66.5706 31 64.25V39.75ZM39.75 34.5C38.3576 34.5 37.0223 35.0531 36.0377 36.0377C35.0531 37.0223 34.5 38.3576 34.5 39.75V64.25C34.5 65.062 34.682 65.825 35.011 66.5145L47.793 53.7325C48.9088 52.6168 50.4221 51.9901 52 51.9901C53.5779 51.9901 55.0912 52.6168 56.207 53.7325L68.989 66.5145C69.3262 65.8073 69.5008 65.0335 69.5 64.25V39.75C69.5 38.3576 68.9469 37.0223 67.9623 36.0377C66.9777 35.0531 65.6424 34.5 64.25 34.5H39.75ZM66.5145 68.989L53.7325 56.207C53.505 55.9795 53.2349 55.799 52.9376 55.6758C52.6404 55.5527 52.3218 55.4893 52 55.4893C51.6782 55.4893 51.3596 55.5527 51.0624 55.6758C50.7651 55.799 50.495 55.9795 50.2675 56.207L37.4855 68.989C38.1715 69.318 38.938 69.5 39.75 69.5H64.25C65.062 69.5 65.825 69.3145 66.5145 68.989Z" fill="#D9D9D9"/>
</svg>
