<svg width="24" height="24" viewBox="0 0 24 24" fill="none" xmlns="http://www.w3.org/2000/svg">
<path d="M22 11.4286V16.5714C22 16.8745 21.8829 17.1652 21.6746 17.3796C21.4662 17.5939 21.1836 17.7143 20.8889 17.7143H19.2222M22 11.4286H14.2222M22 11.4286L20.0711 6.96457C19.9838 6.76249 19.8414 6.5908 19.6612 6.4703C19.4809 6.34981 19.2705 6.28569 19.0556 6.28571H14.2222M19.2222 17.7143C19.2222 18.3205 18.9881 18.9019 18.5713 19.3305C18.1546 19.7592 17.5894 20 17 20C16.4106 20 15.8454 19.7592 15.4287 19.3305C15.0119 18.9019 14.7778 18.3205 14.7778 17.7143M19.2222 17.7143C19.2222 17.1081 18.9881 16.5267 18.5713 16.098C18.1546 15.6694 17.5894 15.4286 17 15.4286C16.4106 15.4286 15.8454 15.6694 15.4287 16.098C15.0119 16.5267 14.7778 17.1081 14.7778 17.7143M14.2222 11.4286V17.7143M14.2222 11.4286V6.28571M14.2222 6.28571V5.14286C14.2222 4.83975 14.1052 4.54906 13.8968 4.33474C13.6884 4.12041 13.4058 4 13.1111 4H3.11111C2.81643 4 2.53381 4.12041 2.32544 4.33474C2.11706 4.54906 2 4.83975 2 5.14286V16.5714C2 16.8745 2.11706 17.1652 2.32544 17.3796C2.53381 17.5939 2.81643 17.7143 3.11111 17.7143H4.77778M4.77778 17.7143C4.77778 18.3205 5.0119 18.9019 5.42865 19.3305C5.8454 19.7592 6.41063 20 7 20C7.58937 20 8.1546 19.7592 8.57135 19.3305C8.9881 18.9019 9.22222 18.3205 9.22222 17.7143M4.77778 17.7143C4.77778 17.1081 5.0119 16.5267 5.42865 16.098C5.8454 15.6694 6.41063 15.4286 7 15.4286C7.58937 15.4286 8.1546 15.6694 8.57135 16.098C8.9881 16.5267 9.22222 17.1081 9.22222 17.7143M9.22222 17.7143H14.2222M14.2222 17.7143H14.7778" stroke="black" stroke-width="1.5" stroke-linecap="round" stroke-linejoin="round"/>
<circle cx="6" cy="7" r="6" fill="#2189FF"/>
<path d="M9 5L5 9L3 7" stroke="white" stroke-linecap="round" stroke-linejoin="round"/>
</svg>
