<svg width="24" height="24" viewBox="0 0 24 24" fill="none" xmlns="http://www.w3.org/2000/svg">
<path d="M14.6895 4.24473L13.33 3.66197L14.6939 3.08387C14.8733 3.00895 15.0156 2.86678 15.0906 2.68741C15.0907 2.68721 15.0907 2.68701 15.0908 2.68681L15.6643 1.33011L16.2429 2.6926C16.3179 2.87186 16.4601 3.01395 16.6394 3.08883C16.6397 3.08894 16.64 3.08905 16.6402 3.08916L18.0027 3.66667L16.6402 4.24417C16.64 4.24429 16.6397 4.2444 16.6394 4.24452C16.4601 4.31941 16.3179 4.46149 16.2429 4.64074C16.2427 4.64102 16.2426 4.64129 16.2425 4.64157L15.6642 6.00347L15.0859 4.64157C15.0858 4.6413 15.0856 4.64103 15.0855 4.64076C15.0106 4.46167 14.8685 4.31968 14.6895 4.24473Z" stroke="black" stroke-width="0.5"/>
<path d="M20.2319 4.63749L20.6489 5.61936C20.682 5.6987 20.7448 5.76151 20.8242 5.79457L21.807 6.21112C21.9162 6.2574 21.9162 6.40948 21.807 6.45576L20.8242 6.87231C20.7448 6.90537 20.682 6.96819 20.6489 7.04753L20.2319 8.0294C20.1856 8.13849 20.0334 8.13849 19.9871 8.0294L19.5701 7.04753C19.537 6.96819 19.4742 6.90537 19.3947 6.87231L18.4153 6.45246C18.3061 6.40617 18.3061 6.2541 18.4153 6.20782L19.3981 5.79126C19.4775 5.75821 19.5403 5.69539 19.5734 5.61605L19.9871 4.63749C20.0334 4.52839 20.1856 4.52839 20.2319 4.63749Z" fill="black"/>
<path d="M20.6461 1.06137L20.9588 1.79777C20.9836 1.85728 21.0308 1.90439 21.0903 1.92918L21.8274 2.24159C21.9093 2.27631 21.9093 2.39036 21.8274 2.42507L21.0903 2.73749C21.0308 2.76228 20.9836 2.80939 20.9588 2.8689L20.6461 3.6053C20.6113 3.68712 20.4972 3.68712 20.4624 3.6053L20.1497 2.8689C20.1249 2.80939 20.0778 2.76228 20.0182 2.73749L19.2836 2.42259C19.2017 2.38788 19.2017 2.27383 19.2836 2.23911L20.0207 1.9267C20.0802 1.90191 20.1274 1.8548 20.1522 1.79529L20.4624 1.06137C20.4972 0.979544 20.6113 0.979544 20.6461 1.06137Z" fill="black"/>
<path d="M15.6852 20.0004V11.4704H17.4132V20.0004H15.6852ZM15.3252 8.89643C15.3252 8.17643 15.8112 7.69043 16.5492 7.69043C17.3412 7.69043 17.7912 8.17643 17.7912 8.89643C17.7912 9.63443 17.3412 10.1204 16.5492 10.1204C15.7752 10.1204 15.3252 9.63443 15.3252 8.89643Z" fill="black"/>
<path d="M2.48596 20.0004L7.36396 6.86035H9.18196L14.042 20.0004H12.224L11.108 16.9944H5.41996L4.32196 20.0004H2.48596ZM8.26396 9.25435L6.03196 15.3204H10.496L8.26396 9.25435Z" fill="black"/>
</svg>
