<svg width="48" height="48" viewBox="0 0 48 48" fill="none" xmlns="http://www.w3.org/2000/svg">
<path d="M24 5C13.5067 5 5 13.5067 5 24C5 34.4939 13.5067 43 24 43C34.4939 43 43.0006 34.4939 43.0006 24C43.0006 13.5067 34.494 5 24 5ZM24 40.6624C14.8331 40.6624 7.375 33.1669 7.375 23.9999C7.375 14.833 14.8331 7.37493 24 7.37493C33.1669 7.37493 40.6256 14.8331 40.6256 23.9999C40.6256 33.1668 33.1669 40.6624 24 40.6624ZM22.2538 34.7053H25.2415V31.6902H22.2538V34.7053ZM23.965 13.2952C22.2253 13.2952 20.792 13.7643 19.6663 14.7013C18.5405 15.6388 17.9931 17.5162 18.021 19.0718L18.0649 19.1585H20.7902C20.7902 18.2305 21.0996 16.8969 21.7183 16.4184C22.3363 15.9404 23.0857 15.7011 23.9656 15.7011C24.9797 15.7011 25.7593 15.9766 26.3062 16.5276C26.8524 17.0786 27.1249 17.8665 27.1249 18.8901C27.1249 19.7505 26.9231 20.4849 26.5175 21.0935C26.1108 21.7021 25.4292 22.572 24.4733 23.7031C23.487 24.5925 22.8778 25.3074 22.6463 25.8483C22.4141 26.3898 22.2936 27.3612 22.2847 28.7618H25.1406C25.1406 27.8831 25.1964 27.2353 25.3075 26.8197C25.4179 26.4046 25.7344 25.9356 26.2563 25.4137C27.3779 24.3319 28.2786 23.2738 28.9608 22.2389C29.6413 21.2052 29.9821 20.0646 29.9821 18.8177C29.9821 17.078 29.456 15.7225 28.4021 14.7517C27.3476 13.7803 25.8685 13.2952 23.965 13.2952Z" fill="#2189FF"/>
</svg>
