<svg width="24" height="24" viewBox="0 0 24 24" fill="none" xmlns="http://www.w3.org/2000/svg">
<g clip-path="url(#clip0_1_100006)">
<path d="M12 12.4615C14.1622 12.458 16.2404 13.2987 17.792 14.8045C19.3437 16.3103 20.2463 18.3623 20.3076 20.5237V22.5868C20.3072 22.9308 20.1703 23.2607 19.927 23.5039C19.6837 23.7472 19.3539 23.8841 19.0098 23.8846H4.99011C4.64605 23.8841 4.31622 23.7472 4.07293 23.5039C3.82964 23.2607 3.69275 22.9308 3.69226 22.5868V20.5237C3.7536 18.3623 4.65619 16.3103 6.20787 14.8045C7.75955 13.2987 9.83774 12.458 12 12.4615ZM12 14.5385C10.3921 14.5472 8.84906 15.1731 7.68951 16.287C6.52997 17.4008 5.84252 18.9175 5.76918 20.5237V21.8077H18.2307V20.5237C18.1574 18.9175 17.4699 17.4008 16.3104 16.287C15.1508 15.1731 13.6078 14.5472 12 14.5385ZM12 7.46206e-08C13.1297 -0.000182499 14.2342 0.334665 15.1736 0.962197C16.1131 1.58973 16.8453 2.48176 17.2778 3.52547C17.7103 4.56919 17.8235 5.71771 17.6032 6.82579C17.3829 7.93387 16.839 8.95174 16.0402 9.75067C15.2414 10.5496 14.2236 11.0937 13.1156 11.3142C12.0075 11.5347 10.859 11.4216 9.8152 10.9893C8.77142 10.557 7.87927 9.82487 7.25159 8.88551C6.6239 7.94616 6.28888 6.84177 6.28888 5.712C6.2918 4.19814 6.89441 2.74711 7.96479 1.67657C9.03516 0.606018 10.4861 0.00317147 12 7.46206e-08ZM12 2.07692C11.281 2.07692 10.5782 2.29012 9.98041 2.68954C9.38263 3.08897 8.91671 3.65669 8.64158 4.32092C8.36645 4.98514 8.29446 5.71603 8.43472 6.42117C8.57498 7.1263 8.92119 7.77401 9.42957 8.28239C9.93794 8.79076 10.5856 9.13697 11.2908 9.27723C11.9959 9.41749 12.7268 9.3455 13.391 9.07037C14.0553 8.79524 14.623 8.32933 15.0224 7.73154C15.4218 7.13375 15.635 6.43095 15.635 5.712C15.6341 4.74822 15.2508 3.82419 14.5693 3.14269C13.8878 2.46119 12.9637 2.0779 12 2.07692Z" fill="black"/>
<path d="M7.5 3.5L11.5 1.5L14 2L16 4L16.5 7.5L13.5 9.5H11L7.5 7V3.5Z" fill="black"/>
<path d="M8 15L11.5 14L17 15L19.5 19.5L19 22.5L5 22V18.5L8 15Z" fill="black"/>
</g>
<defs>
<clipPath id="clip0_1_100006">
<rect width="24" height="24" fill="white"/>
</clipPath>
</defs>
</svg>
