<svg width="16" height="16" viewBox="0 0 16 16" fill="none" xmlns="http://www.w3.org/2000/svg">
<path d="M5 6.7145C5 6.25979 5.18063 5.8237 5.50217 5.50217C5.8237 5.18063 6.25979 5 6.7145 5H12.2855C12.5107 5 12.7336 5.04435 12.9416 5.13051C13.1496 5.21667 13.3386 5.34296 13.4978 5.50217C13.657 5.66137 13.7833 5.85038 13.8695 6.05839C13.9557 6.2664 14 6.48935 14 6.7145V12.2855C14 12.5107 13.9557 12.7336 13.8695 12.9416C13.7833 13.1496 13.657 13.3386 13.4978 13.4978C13.3386 13.657 13.1496 13.7833 12.9416 13.8695C12.7336 13.9557 12.5107 14 12.2855 14H6.7145C6.48935 14 6.2664 13.9557 6.05839 13.8695C5.85038 13.7833 5.66137 13.657 5.50217 13.4978C5.34296 13.3386 5.21667 13.1496 5.13051 12.9416C5.04435 12.7336 5 12.5107 5 12.2855V6.7145Z" stroke="black" stroke-width="1.5" stroke-linecap="round" stroke-linejoin="round"/>
<path d="M2.67467 11C2.47 10.8857 2.29977 10.7202 2.18127 10.5203C2.06277 10.3205 2.00023 10.0933 2 9.86198V3.31033C2 2.58965 2.6 2 3.33333 2H6.66667H10C10.5 2 10.772 2.25224 11 2.65516" stroke="black" stroke-width="1.5" stroke-linecap="round" stroke-linejoin="round"/>
</svg>
