<svg width="80" height="80" viewBox="0 0 80 80" fill="none" xmlns="http://www.w3.org/2000/svg">
<path d="M66 28.6667L47.3333 10M66 28.6667H47.3333V10M66 28.6667V34.8889V41.1111M47.3333 10H14.1481C11.8572 10 10 11.8572 10 14.1481V61.8519C10 64.1428 11.8572 66 14.1481 66H38.1481" stroke="#DDDDDD" stroke-width="5" stroke-linecap="round" stroke-linejoin="round"/>
<path d="M61 52H57V62H61V52Z" fill="#D9D9D9"/>
<path d="M59 68C60.1046 68 61 67.1046 61 66C61 64.8954 60.1046 64 59 64C57.8954 64 57 64.8954 57 66C57 67.1046 57.8954 68 59 68Z" fill="#D9D9D9"/>
<path d="M59 74C66.732 74 73 67.732 73 60C73 52.268 66.732 46 59 46C51.268 46 45 52.268 45 60C45 67.732 51.268 74 59 74Z" stroke="#DDDDDD" stroke-width="4"/>
</svg>
