<svg width="15" height="18" viewBox="0 0 15 18" fill="none" xmlns="http://www.w3.org/2000/svg">
<path d="M5.976 5.472C5.464 6.096 4.864 6.688 4.176 7.248C3.488 7.792 2.728 8.216 1.896 8.52L0.36 5.616C0.808 5.488 1.32 5.256 1.896 4.92C2.488 4.584 3.088 4.184 3.696 3.72C4.304 3.256 4.888 2.744 5.448 2.184C6.024 1.624 6.512 1.048 6.912 0.456H8.184C8.584 1.048 9.064 1.624 9.624 2.184C10.184 2.744 10.768 3.256 11.376 3.72C11.984 4.184 12.576 4.584 13.152 4.92C13.744 5.256 14.264 5.488 14.712 5.616L13.176 8.52C12.344 8.216 11.584 7.792 10.896 7.248C10.224 6.704 9.632 6.128 9.12 5.52V18H5.976V5.472Z" fill="#EF3434"/>
</svg>
