<svg width="64" height="41" viewBox="0 0 64 41" fill="none" xmlns="http://www.w3.org/2000/svg">
<circle cx="32" cy="20.5" r="17.5" fill="white" stroke="#CCCCCC"/>
<path d="M35.3522 15.2072L37.2928 17.1478M37.8333 23.5556V26.2222C37.8333 26.6937 37.646 27.1459 37.3126 27.4793C36.9792 27.8127 36.5271 28 36.0556 28H26.2778C25.8063 28 25.3541 27.8127 25.0207 27.4793C24.6873 27.1459 24.5 26.6937 24.5 26.2222V16.4444C24.5 15.9729 24.6873 15.5208 25.0207 15.1874C25.3541 14.854 25.8063 14.6667 26.2778 14.6667H28.9444M36.5998 13.4976L31.3499 18.7474C31.0787 19.0183 30.8937 19.3634 30.8183 19.7393L30.3333 22.1667L32.7607 21.6808C33.1365 21.6057 33.4812 21.4214 33.7526 21.1501L39.0024 15.9002C39.1602 15.7425 39.2853 15.5552 39.3707 15.3491C39.4561 15.1429 39.5 14.922 39.5 14.6989C39.5 14.4758 39.4561 14.2549 39.3707 14.0488C39.2853 13.8426 39.1602 13.6554 39.0024 13.4976C38.8446 13.3398 38.6574 13.2147 38.4512 13.1293C38.2451 13.0439 38.0242 13 37.8011 13C37.578 13 37.3571 13.0439 37.1509 13.1293C36.9448 13.2147 36.7575 13.3398 36.5998 13.4976Z" stroke="black" stroke-width="1.5" stroke-linecap="round" stroke-linejoin="round"/>
</svg>
