<svg width="24" height="24" viewBox="0 0 24 24" fill="none" xmlns="http://www.w3.org/2000/svg">
<path d="M5.77778 19.2H5.02778H5.77778ZM7.69444 6.6C7.69444 7.01421 8.03023 7.35 8.44444 7.35C8.85866 7.35 9.19444 7.01421 9.19444 6.6H7.69444ZM10.2222 3V2.25V3ZM13.7778 3V2.25V3ZM14.8056 6.6C14.8056 7.01421 15.1413 7.35 15.5556 7.35C15.9698 7.35 16.3056 7.01421 16.3056 6.6H14.8056ZM20 7.35C20.4142 7.35 20.75 7.01421 20.75 6.6C20.75 6.18579 20.4142 5.85 20 5.85V7.35ZM4 5.85C3.58579 5.85 3.25 6.18579 3.25 6.6C3.25 7.01421 3.58579 7.35 4 7.35V5.85ZM14.5278 11.1C14.5278 10.6858 14.192 10.35 13.7778 10.35C13.3636 10.35 13.0278 10.6858 13.0278 11.1H14.5278ZM13.0278 16.5C13.0278 16.9142 13.3636 17.25 13.7778 17.25C14.192 17.25 14.5278 16.9142 14.5278 16.5H13.0278ZM10.9722 11.1C10.9722 10.6858 10.6364 10.35 10.2222 10.35C9.80801 10.35 9.47222 10.6858 9.47222 11.1H10.9722ZM9.47222 16.5C9.47222 16.9142 9.80801 17.25 10.2222 17.25C10.6364 17.25 10.9722 16.9142 10.9722 16.5H9.47222ZM17.4722 6.6V19.2H18.9722V6.6H17.4722ZM17.4722 19.2C17.4722 19.4815 17.3617 19.7495 17.1679 19.9458L18.2351 20.9998C18.7081 20.5209 18.9722 19.8733 18.9722 19.2H17.4722ZM17.1679 19.9458C16.9744 20.1417 16.714 20.25 16.4444 20.25V21.75C17.1179 21.75 17.7618 21.479 18.2351 20.9998L17.1679 19.9458ZM16.4444 20.25H7.55556V21.75H16.4444V20.25ZM7.55556 20.25C7.286 20.25 7.02557 20.1417 6.83209 19.9458L5.76486 20.9998C6.23818 21.479 6.88212 21.75 7.55556 21.75V20.25ZM6.83209 19.9458C6.6383 19.7495 6.52778 19.4815 6.52778 19.2H5.02778C5.02778 19.8733 5.29186 20.5209 5.76486 20.9998L6.83209 19.9458ZM6.52778 19.2V6.6H5.02778V19.2H6.52778ZM5.77778 7.35H18.2222V5.85H5.77778V7.35ZM9.19444 6.6V4.8H7.69444V6.6H9.19444ZM9.19444 4.8C9.19444 4.51854 9.30496 4.25045 9.49876 4.05423L8.43153 3.00018C7.95853 3.4791 7.69444 4.12668 7.69444 4.8H9.19444ZM9.49876 4.05423C9.69224 3.85833 9.95267 3.75 10.2222 3.75V2.25C9.54879 2.25 8.90484 2.52095 8.43153 3.00018L9.49876 4.05423ZM10.2222 3.75H13.7778V2.25H10.2222V3.75ZM13.7778 3.75C14.0473 3.75 14.3078 3.85833 14.5012 4.05423L15.5685 3.00018C15.0952 2.52095 14.4512 2.25 13.7778 2.25V3.75ZM14.5012 4.05423C14.695 4.25045 14.8056 4.51854 14.8056 4.8H16.3056C16.3056 4.12668 16.0415 3.4791 15.5685 3.00018L14.5012 4.05423ZM14.8056 4.8V6.6H16.3056V4.8H14.8056ZM18.2222 7.35H20V5.85H18.2222V7.35ZM5.77778 5.85H4V7.35H5.77778V5.85ZM13.0278 11.1V16.5H14.5278V11.1H13.0278ZM9.47222 11.1V16.5H10.9722V11.1H9.47222Z" fill="#D9D9D9"/>
</svg>
