<svg width="80" height="80" viewBox="0 0 80 80" fill="none" xmlns="http://www.w3.org/2000/svg">
<path d="M16.6667 63.3333V16.6667H40V40H63.3333V43.3333C65.6667 43.3333 67.9 43.7667 70 44.5V30L50 10H16.6667C12.9667 10 10 12.9667 10 16.6667V63.3333C10 65.1014 10.7024 66.7971 11.9526 68.0474C13.2029 69.2976 14.8986 70 16.6667 70H44.5C43.7667 67.9 43.3333 65.6667 43.3333 63.3333H16.6667ZM46.6667 15L65 33.3333H46.6667V15Z" fill="black"/>
<path d="M59.1667 73.3331L75 57.4998L70.5 53L59.1667 64.7665L55 69L59.1667 73.3331Z" fill="#2189FF"/>
<path d="M54.8334 57.3332L70.6667 73.1665L75.1665 68.6665L63.4 57.3332L59.1665 53.1665L54.8334 57.3332Z" fill="#2189FF"/>
</svg>
