<svg width="16" height="16" viewBox="0 0 16 16" fill="none" xmlns="http://www.w3.org/2000/svg">
<path d="M10.4724 8.47179C11.1259 7.95756 11.603 7.2524 11.8372 6.45442C12.0713 5.65643 12.051 4.8053 11.7789 4.01943C11.5068 3.23357 10.9965 2.55205 10.3191 2.06969C9.64161 1.58733 8.83066 1.32813 7.99902 1.32812C7.16739 1.32812 6.35643 1.58733 5.67897 2.06969C5.00152 2.55205 4.49125 3.23357 4.21916 4.01943C3.94707 4.8053 3.9267 5.65643 4.16086 6.45442C4.39503 7.2524 4.87209 7.95756 5.52569 8.47179C4.40574 8.92048 3.42855 9.66469 2.69828 10.6251C1.96802 11.5854 1.51206 12.726 1.37902 13.9251C1.36939 14.0127 1.3771 14.1013 1.4017 14.1858C1.42631 14.2704 1.46733 14.3493 1.52243 14.418C1.6337 14.5568 1.79554 14.6457 1.97235 14.6651C2.14917 14.6846 2.32646 14.633 2.46524 14.5217C2.60401 14.4104 2.69291 14.2486 2.71235 14.0718C2.85874 12.7686 3.48015 11.565 4.45783 10.691C5.43552 9.81697 6.70095 9.33381 8.01236 9.33381C9.32376 9.33381 10.5892 9.81697 11.5669 10.691C12.5446 11.565 13.166 12.7686 13.3124 14.0718C13.3305 14.2356 13.4086 14.3869 13.5318 14.4965C13.6549 14.606 13.8142 14.6661 13.979 14.6651H14.0524C14.2271 14.645 14.3868 14.5567 14.4967 14.4193C14.6066 14.2819 14.6578 14.1067 14.639 13.9318C14.5054 12.7293 14.0469 11.5858 13.3129 10.6239C12.5789 9.66207 11.597 8.91811 10.4724 8.47179ZM7.99902 7.99846C7.4716 7.99846 6.95603 7.84206 6.5175 7.54904C6.07897 7.25602 5.73718 6.83955 5.53534 6.35228C5.33351 5.86501 5.2807 5.32883 5.38359 4.81155C5.48649 4.29427 5.74046 3.81911 6.1134 3.44617C6.48634 3.07323 6.9615 2.81926 7.47878 2.71636C7.99606 2.61347 8.53224 2.66628 9.01951 2.86811C9.50678 3.06994 9.92326 3.41174 10.2163 3.85027C10.5093 4.2888 10.6657 4.80437 10.6657 5.33179C10.6657 6.03903 10.3847 6.71731 9.88464 7.21741C9.38454 7.7175 8.70627 7.99846 7.99902 7.99846Z" fill="#666666"/>
</svg>
