<svg width="16" height="16" viewBox="0 0 16 16" fill="none" xmlns="http://www.w3.org/2000/svg">
<path d="M9.33147 9.33366V13.9203C9.35813 14.1203 9.29147 14.3337 9.13813 14.4737C9.07646 14.5355 9.0032 14.5845 8.92255 14.6179C8.8419 14.6514 8.75545 14.6686 8.66813 14.6686C8.58082 14.6686 8.49437 14.6514 8.41372 14.6179C8.33307 14.5845 8.25981 14.5355 8.19813 14.4737L6.85813 13.1337C6.78542 13.0626 6.73014 12.9756 6.6966 12.8797C6.66306 12.7837 6.65218 12.6812 6.6648 12.5803V9.33366L6.6448 8.66699L2.8048 3.74699C2.69654 3.60801 2.64769 3.43183 2.66893 3.25695C2.69016 3.08206 2.77976 2.92269 2.91813 2.81366C3.0448 2.72033 3.1848 2.66699 3.33147 2.66699H12.6648C12.8115 2.66699 12.9515 2.72033 13.0781 2.81366C13.2165 2.92269 13.3061 3.08206 13.3273 3.25695C13.3486 3.43183 13.2997 3.60801 13.1915 3.74699L9.35147 8.66699L9.33147 9.33366Z" stroke="black" stroke-width="1.5"/>
</svg>
