<svg width="40" height="40" viewBox="0 0 40 40" fill="none" xmlns="http://www.w3.org/2000/svg">
<circle cx="20" cy="20" r="18" fill="white"/>
<path fill-rule="evenodd" clip-rule="evenodd" d="M16.75 16C16.75 14.2051 18.2051 12.75 20 12.75C21.795 12.75 23.25 14.2051 23.25 16C23.25 17.7949 21.795 19.25 20 19.25C18.2051 19.25 16.75 17.7949 16.75 16ZM22.8951 19.7661C24.0231 18.8976 24.75 17.5337 24.75 16C24.75 13.3766 22.6234 11.25 20 11.25C17.3767 11.25 15.25 13.3766 15.25 16C15.25 17.5337 15.9769 18.8976 17.105 19.7661C15.757 20.2925 14.7383 21.1733 13.9951 22.1794C12.8153 23.7766 12.3368 25.6727 12.2517 26.9501C12.2241 27.3634 12.5368 27.7208 12.9501 27.7483C13.3634 27.7759 13.7208 27.4632 13.7484 27.0499C13.8188 25.9939 14.227 24.39 15.2016 23.0706C16.1527 21.783 17.6493 20.75 20 20.75C22.3508 20.75 23.8473 21.783 24.7984 23.0706C25.773 24.39 26.1813 25.9939 26.2517 27.0499C26.2792 27.4632 26.6366 27.7759 27.0499 27.7483C27.4632 27.7208 27.7759 27.3634 27.7484 26.9501C27.6632 25.6727 27.1848 23.7766 26.005 22.1794C25.2618 21.1733 24.243 20.2925 22.8951 19.7661Z" fill="#AAAAAA"/>
</svg>
