<svg width="16" height="16" viewBox="0 0 16 16" fill="none" xmlns="http://www.w3.org/2000/svg">
<g clip-path="url(#clip0_3_15414)">
<path d="M11.43 1C11.6197 0.999898 11.8028 1.07354 11.9442 1.20681C12.0855 1.34007 12.1751 1.52357 12.1958 1.72211L12.2 1.81053V3.94737H12.9C13.4356 3.94734 13.9511 4.16277 14.3408 4.54958C14.7305 4.93639 14.9651 5.46534 14.9965 6.02821L15 6.15789V11.3158C15.0001 11.6876 14.8667 12.0457 14.6266 12.3183C14.3864 12.5909 14.0572 12.7579 13.705 12.7858L13.6 12.7895H12.2V14.1895C12.2001 14.3892 12.1301 14.5819 12.0035 14.7307C11.8769 14.8795 11.7026 14.9738 11.514 14.9956L11.43 15H4.57C4.38026 15.0001 4.19716 14.9265 4.05584 14.7932C3.91451 14.6599 3.8249 14.4764 3.8042 14.2779L3.8 14.1895V12.7895H2.4C2.0468 12.7896 1.7066 12.6492 1.44762 12.3964C1.18863 12.1436 1.02999 11.7971 1.0035 11.4263L1 11.3158V6.15789C0.99997 5.59406 1.20463 5.05152 1.5721 4.64128C1.93957 4.23105 2.44207 3.98413 2.9768 3.95105L3.1 3.94737H3.8V1.81053C3.7999 1.6108 3.86986 1.41807 3.99647 1.2693C4.12307 1.12053 4.29739 1.02621 4.486 1.00442L4.57 1H11.43ZM10.8 10.5789H5.2V13.5263H10.8V10.5789ZM12.9 5.42105H3.1C2.92855 5.42108 2.76306 5.48734 2.63494 5.60726C2.50682 5.72719 2.42496 5.89245 2.4049 6.07168L2.4 6.15789V11.3158H3.8V9.91579C3.7999 9.71606 3.86986 9.52333 3.99647 9.37456C4.12307 9.2258 4.29739 9.13147 4.486 9.10968L4.57 9.10526H11.43C11.6197 9.10516 11.8028 9.1788 11.9442 9.31207C12.0855 9.44533 12.1751 9.62883 12.1958 9.82737L12.2 9.91579V11.3158H13.6V6.15789C13.6 5.96247 13.5263 5.77505 13.395 5.63687C13.2637 5.49868 13.0857 5.42105 12.9 5.42105ZM11.5 6.15789C11.6784 6.1581 11.85 6.23002 11.9798 6.35894C12.1095 6.48787 12.1876 6.66407 12.198 6.85155C12.2085 7.03904 12.1505 7.22365 12.036 7.36767C11.9215 7.51168 11.7591 7.60424 11.5819 7.62642L11.5 7.63158H10.1C9.92158 7.63137 9.74998 7.55946 9.62024 7.43053C9.49051 7.30161 9.41244 7.1254 9.40198 6.93792C9.39152 6.75044 9.44947 6.56583 9.56398 6.42181C9.6785 6.27779 9.84093 6.18523 10.0181 6.16305L10.1 6.15789H11.5ZM10.8 2.47368H5.2V3.94737H10.8V2.47368Z" fill="black"/>
</g>
<defs>
<clipPath id="clip0_3_15414">
<rect width="16" height="16" fill="white"/>
</clipPath>
</defs>
</svg>
