<svg width="16" height="16" viewBox="0 0 16 16" fill="none" xmlns="http://www.w3.org/2000/svg">
<g clip-path="url(#clip0_3274_23482)">
<path d="M15.5 8C15.5 12.1421 12.1421 15.5 8 15.5C3.85786 15.5 0.5 12.1421 0.5 8C0.5 3.85786 3.85786 0.5 8 0.5C12.1421 0.5 15.5 3.85786 15.5 8Z" fill="black" stroke="black" stroke-linecap="round" stroke-linejoin="round"/>
<path d="M6.83228 10.1777C6.80493 9.83138 6.79126 9.58984 6.79126 9.45312C6.79126 8.91536 6.89152 8.47331 7.09204 8.12695C7.29256 7.77148 7.65715 7.38411 8.18579 6.96484C8.55949 6.67318 8.81014 6.4362 8.93774 6.25391C9.06535 6.0625 9.12915 5.84375 9.12915 5.59766C9.12915 4.8776 8.68709 4.51758 7.80298 4.51758C7.14673 4.51758 6.42668 4.74544 5.64282 5.20117L5.00024 3.875C5.4104 3.59245 5.87069 3.37826 6.3811 3.23242C6.89152 3.07747 7.41105 3 7.9397 3C8.85116 3 9.55754 3.22331 10.0588 3.66992C10.5693 4.11654 10.8245 4.74089 10.8245 5.54297C10.8245 5.9987 10.7242 6.39062 10.5237 6.71875C10.3232 7.04688 9.95858 7.41146 9.42993 7.8125C8.9742 8.16797 8.66886 8.45964 8.51392 8.6875C8.35897 8.90625 8.28149 9.17513 8.28149 9.49414C8.28149 9.63086 8.29517 9.85872 8.32251 10.1777H6.83228ZM7.58423 13.2539C7.2561 13.2539 7.0009 13.1673 6.8186 12.9941C6.63631 12.8118 6.54517 12.5658 6.54517 12.2559C6.54517 11.9368 6.63631 11.6908 6.8186 11.5176C7.0009 11.3353 7.2561 11.2441 7.58423 11.2441C7.91235 11.2441 8.16756 11.3353 8.34985 11.5176C8.53215 11.6908 8.62329 11.9323 8.62329 12.2422C8.62329 12.5612 8.53215 12.8118 8.34985 12.9941C8.16756 13.1673 7.91235 13.2539 7.58423 13.2539Z" fill="white"/>
</g>
<defs>
<clipPath id="clip0_3274_23482">
<rect width="16" height="16" fill="white"/>
</clipPath>
</defs>
</svg>
