<svg width="160" height="26" viewBox="0 0 160 26" fill="none" xmlns="http://www.w3.org/2000/svg">
<path d="M132.435 19.5152L132.122 1.3418H137.785V24.2535H129.642L123.998 5.45808H123.872L124.187 24.2535H118.553V1.34291H127.044L132.298 19.5163L132.435 19.5152Z" fill="black"/>
<path d="M29.5439 3.48975L26.4203 24.4983H20.2363L24.4732 1.34766H34.6484L38.865 24.4983H32.7193L29.6701 3.49539L29.5439 3.48975Z" fill="black"/>
<path d="M56.2079 19.0442L59.0249 1.3418H68.3494L68.8531 24.4924H63.1333L62.988 3.68334H62.8652L59.0475 24.498H53.2432L49.4244 3.68896H49.2971L49.1528 24.498H43.4297L43.9334 1.34742H53.2601L56.0772 19.0498L56.2079 19.0442Z" fill="black"/>
<path d="M10.6147 17.9622C10.7917 18.5185 10.8077 19.1134 10.6609 19.6784C10.5565 20.1721 10.2679 20.6075 9.85381 20.8959C9.43975 21.1844 8.93133 21.3043 8.43202 21.2312C8.13872 21.2664 7.84127 21.238 7.55991 21.148C7.27856 21.0579 7.0199 20.9083 6.80156 20.7093C6.58321 20.5103 6.41031 20.2666 6.29461 19.9948C6.17891 19.723 6.12312 19.4294 6.13106 19.1341V16.8918H0V18.6767C0 23.8398 4.01713 25.3982 8.31258 25.3982C12.4514 25.3982 15.8522 23.9693 16.3964 20.1021C16.5999 18.8453 16.5915 17.5632 16.3716 16.3092C15.4071 11.456 6.72828 10.0114 6.08486 7.30137C5.99192 6.90269 5.98271 6.48906 6.05781 6.08665C6.14143 5.60955 6.40475 5.18266 6.79358 4.89382C7.1824 4.60497 7.66715 4.47615 8.14807 4.53388C8.43082 4.50924 8.71554 4.54638 8.98252 4.64268C9.24951 4.73898 9.4924 4.89216 9.69432 5.09161C9.89624 5.29107 10.0524 5.53204 10.152 5.79782C10.2515 6.06361 10.2922 6.34787 10.271 6.6309V8.06198H15.9784V6.43371C15.9784 1.3923 11.5049 0.603516 8.26751 0.603516C4.20419 0.603516 0.880049 1.96698 0.267057 5.74184C0.0804508 6.77615 0.0988325 7.83704 0.321149 8.86426C1.30825 13.5969 9.43377 14.9649 10.6147 17.9622Z" fill="black"/>
<path d="M84.9588 17.9159C85.1345 18.4658 85.1502 19.0544 85.0039 19.6129C84.9013 20.102 84.6158 20.5335 84.2057 20.8192C83.7956 21.1048 83.2919 21.2231 82.7975 21.1499C82.5072 21.1856 82.2126 21.1581 81.9339 21.0693C81.6551 20.9804 81.3989 20.8323 81.1828 20.6352C80.9667 20.438 80.7958 20.1964 80.6818 19.927C80.5678 19.6576 80.5135 19.3667 80.5225 19.0743V16.8544H74.4512V18.6224C74.4512 23.7348 78.4277 25.2786 82.677 25.2786C86.7719 25.2786 90.1399 23.8655 90.6774 20.0366C90.8794 18.7929 90.871 17.5241 90.6526 16.2831C89.6982 11.4806 81.1073 10.0518 80.4684 7.36768C80.3769 6.97337 80.368 6.56438 80.4425 6.16649C80.524 5.69347 80.7839 5.26975 81.1686 4.98272C81.5534 4.6957 82.0336 4.56725 82.5102 4.62387C82.7906 4.59933 83.0729 4.63612 83.3376 4.73166C83.6023 4.82719 83.8431 4.9792 84.0431 5.17712C84.2432 5.37504 84.3978 5.61414 84.4962 5.87781C84.5945 6.14147 84.6344 6.42339 84.6129 6.70399V8.11815H90.2662V6.5068C90.2662 1.51497 85.8366 0.736328 82.6285 0.736328C78.608 0.736328 75.3166 2.08175 74.7149 5.8228C74.5316 6.84689 74.5507 7.89697 74.7712 8.91369C75.7481 13.5934 83.7926 14.949 84.9588 17.9159Z" fill="black"/>
<path d="M104.156 21.0249C104.665 21.0659 105.171 20.9168 105.576 20.6065C105.982 20.2962 106.258 19.8467 106.351 19.3448C106.396 19.0534 106.413 18.7584 106.403 18.4637V1.33594H112.19V17.9352C112.199 18.3611 112.154 19.2288 112.134 19.4575C111.733 23.7755 108.361 25.1784 104.155 25.1784C99.9485 25.1784 96.577 23.7755 96.1759 19.4575C96.1556 19.2322 96.1116 18.3611 96.1229 17.9352V1.33932H101.907V18.467C101.897 18.7619 101.916 19.0571 101.963 19.3482C102.056 19.8495 102.332 20.2985 102.737 20.6082C103.142 20.918 103.648 21.0664 104.156 21.0249Z" fill="black"/>
<path d="M151.854 20.787C152.383 20.8473 152.915 20.7084 153.347 20.3974C153.78 20.0863 154.08 19.6254 154.191 19.1046C154.235 18.8138 154.254 18.5197 154.247 18.2257V14.8677H151.901V11.4929H160.001V17.6983C159.999 18.2072 159.972 18.7157 159.918 19.2218C159.54 23.4361 155.932 24.9393 151.877 24.9393C147.823 24.9393 144.215 23.4373 143.834 19.2218C143.781 18.7158 143.753 18.2072 143.752 17.6983V7.95808C143.752 7.54566 143.803 6.82223 143.85 6.43461C144.36 2.10648 147.819 0.714844 151.875 0.714844C155.932 0.714844 159.48 2.09408 159.904 6.43461C159.947 6.94124 159.963 7.44972 159.955 7.95808V8.7277H154.187V7.43072C154.188 7.13469 154.164 6.83914 154.114 6.5473C154.015 6.03152 153.724 5.5722 153.301 5.26084C152.878 4.94948 152.353 4.80892 151.831 4.86719C151.311 4.81793 150.791 4.96208 150.371 5.27204C149.951 5.58199 149.659 6.03603 149.553 6.5473C149.487 6.90892 149.456 7.27612 149.462 7.64369V18.2246C149.454 18.5185 149.473 18.8126 149.516 19.1035C149.626 19.6247 149.927 20.0861 150.359 20.3974C150.792 20.7087 151.324 20.8476 151.854 20.787Z" fill="black"/>
</svg>
