<svg width="24" height="24" viewBox="0 0 24 24" fill="none" xmlns="http://www.w3.org/2000/svg">
<path d="M17.25 8.253C17.25 8.65162 17.0916 9.03391 16.8098 9.31578C16.5279 9.59765 16.1456 9.756 15.747 9.756C15.3484 9.756 14.9661 9.59765 14.6842 9.31578C14.4024 9.03391 14.244 8.65162 14.244 8.253C14.244 7.85438 14.4024 7.47209 14.6842 7.19022C14.9661 6.90835 15.3484 6.75 15.747 6.75C16.1456 6.75 16.5279 6.90835 16.8098 7.19022C17.0916 7.47209 17.25 7.85438 17.25 8.253ZM3 6.75C3 5.75544 3.39509 4.80161 4.09835 4.09835C4.80161 3.39509 5.75544 3 6.75 3H17.25C18.2446 3 19.1984 3.39509 19.9016 4.09835C20.6049 4.80161 21 5.75544 21 6.75V17.25C21 18.2446 20.6049 19.1984 19.9016 19.9016C19.1984 20.6049 18.2446 21 17.25 21H6.75C5.75544 21 4.80161 20.6049 4.09835 19.9016C3.39509 19.1984 3 18.2446 3 17.25V6.75ZM6.75 4.5C6.15326 4.5 5.58097 4.73705 5.15901 5.15901C4.73705 5.58097 4.5 6.15326 4.5 6.75V17.25C4.5 17.598 4.578 17.925 4.719 18.2205L10.197 12.7425C10.6752 12.2644 11.3238 11.9957 12 11.9957C12.6762 11.9957 13.3248 12.2644 13.803 12.7425L19.281 18.2205C19.4255 17.9174 19.5003 17.5858 19.5 17.25V6.75C19.5 6.15326 19.2629 5.58097 18.841 5.15901C18.419 4.73705 17.8467 4.5 17.25 4.5H6.75ZM18.2205 19.281L12.7425 13.803C12.645 13.7055 12.5292 13.6281 12.4018 13.5754C12.2744 13.5226 12.1379 13.4954 12 13.4954C11.8621 13.4954 11.7256 13.5226 11.5982 13.5754C11.4708 13.6281 11.355 13.7055 11.2575 13.803L5.7795 19.281C6.0735 19.422 6.402 19.5 6.75 19.5H17.25C17.598 19.5 17.925 19.4205 18.2205 19.281Z" fill="#D9D9D9"/>
</svg>
