<svg width="21" height="19" viewBox="0 0 21 19" fill="none" xmlns="http://www.w3.org/2000/svg">
<g id="Clip path group">
<mask id="mask0_34_59" style="mask-type:luminance" maskUnits="userSpaceOnUse" x="0" y="0" width="21" height="19">
<g id="clippath1">
<path id="Vector" d="M0 18.512H21V0.674683H0V18.512Z" fill="white"/>
</g>
</mask>
<g mask="url(#mask0_34_59)">
<g id="Group">
<g id="Group_2">
<path id="Vector_2" d="M11.0178 15.0116C10.6914 14.8231 10.2891 14.8231 9.96275 15.0116C9.63636 15.2001 9.43522 15.548 9.43522 15.925C9.43522 16.302 9.63636 16.6499 9.96275 16.8383C10.2891 17.0268 10.6914 17.0268 11.0178 16.8383C11.3442 16.6499 11.5453 16.302 11.5453 15.925C11.5453 15.548 11.3442 15.2001 11.0178 15.0116ZM9.7907 13.8022H11.1962V5.01256H9.7907V13.8022ZM10.4941 2.00551L1.17691 17.8453H19.8112L10.4941 2.00551ZM21.0409 18.5487H-0.0527344L10.4941 0.619005L21.0409 18.5487Z" fill="black"/>
</g>
</g>
</g>
</g>
</svg>
