<svg width="63" height="63" viewBox="0 0 63 63" fill="none" xmlns="http://www.w3.org/2000/svg">
<g id="gas">
<g id="Clip path group">
<mask id="mask0_30_301" style="mask-type:luminance" maskUnits="userSpaceOnUse" x="0" y="0" width="63" height="63">
<g id="clippath5">
<path id="Vector" d="M0.625 62.2994H62.125V0.399414H0.625V62.2994Z" fill="white"/>
</g>
</mask>
<g mask="url(#mask0_30_301)">
<g id="Group">
<g id="Group_2">
<path id="Vector_2" d="M0.615234 31.3589C10.8632 21.1109 21.1372 10.8359 31.5272 0.447941C32.1882 1.15094 32.8522 1.89494 33.5572 2.60194C40.0862 9.13894 46.6232 15.6709 53.1572 22.2049C56.0622 25.1109 58.9622 28.0209 61.8782 30.9149C62.2242 31.2569 62.2642 31.4589 61.8912 31.8299C56.4532 37.2379 51.0322 42.6649 45.6092 48.0859C41.3872 52.3079 37.1662 56.5329 32.9502 60.7619C32.4502 61.2619 31.9882 61.8019 31.5412 62.2889C21.1642 51.9119 10.8942 41.6379 0.615234 31.3589ZM31.4362 57.4109C31.5812 57.2769 31.7432 57.1369 31.8962 56.9859C36.2862 52.5969 40.6772 48.2059 45.0652 43.8139C49.0812 39.7999 53.0942 35.7819 57.1152 31.7729C57.4112 31.4789 57.4512 31.3079 57.1262 30.9939C55.9722 29.8769 54.8482 28.7279 53.7122 27.5919C47.5962 21.4729 41.4772 15.3569 35.3612 9.23594C34.0592 7.93394 32.7702 6.61894 31.5072 5.33794C22.7712 14.0679 14.0922 22.7439 5.43123 31.3989C14.0722 40.0419 22.7382 48.7119 31.4362 57.4109Z" fill="black"/>
</g>
</g>
</g>
</g>
<g id="Group_3">
<path id="Vector_3" d="M30.8806 40.8713C28.7426 40.9873 26.7116 40.6823 24.8306 39.6583C23.2216 38.7863 22.1106 37.5003 21.5976 35.7283C21.1466 34.1683 20.6866 32.6123 20.2616 31.0473C20.0946 30.4363 20.0106 29.8013 19.8906 29.1783C19.9326 29.1523 19.9746 29.1273 20.0166 29.1013C20.3746 29.4873 20.7886 29.8343 21.0776 30.2673C21.8596 31.4373 22.9436 31.9463 24.3666 31.8993C24.0556 31.1483 23.6686 30.4253 23.4556 29.6563C23.1996 28.7343 23.0336 27.7783 22.9356 26.8253C22.8136 25.6323 22.7976 24.4293 22.8306 23.1443C23.3026 23.7033 23.7886 24.2513 24.2426 24.8233C24.7536 25.4673 25.0776 26.2913 25.9916 26.5813C25.2776 24.5473 25.7496 22.5493 26.0736 20.5383C26.1496 20.0603 25.9846 19.5423 25.9286 19.0403C26.8426 19.0483 27.4486 19.4183 27.7446 20.2353C27.9466 20.7973 28.0736 21.3863 28.2226 21.9663C28.2866 22.2113 28.2806 22.4823 28.3786 22.7113C28.5936 23.2133 28.8536 23.6933 29.1296 24.2513C29.7446 23.1733 30.1566 22.0863 30.2536 20.9263C30.3846 19.3623 30.3456 17.7843 30.5096 16.2283C30.6186 15.1773 30.9536 14.1503 31.1856 13.1123C31.2386 13.1233 31.2936 13.1343 31.3456 13.1453C31.3786 13.2483 31.4316 13.3483 31.4426 13.4543C31.6116 15.1883 32.4436 16.6613 33.2206 18.1733C34.0186 19.7313 34.6676 21.3693 34.8146 23.1403C34.8606 23.7053 34.7146 24.2893 34.6506 24.9223C35.5186 24.6733 36.1346 24.2163 36.3256 23.3543C36.6106 22.0623 36.8546 20.7623 37.1106 19.4883C37.9566 20.6223 38.3656 21.9763 38.3946 23.4563C38.4236 24.8893 38.6106 26.3493 37.7706 27.6783C38.5266 27.4213 39.1636 27.0253 39.6176 26.4073C40.0576 25.8123 40.4346 25.1713 40.8356 24.5563C42.2196 27.4833 41.6646 30.1703 39.6546 32.6773C40.8216 32.2973 42.1956 32.3433 42.7426 30.8723C42.6226 32.0393 42.5996 33.2243 42.3576 34.3643C42.1106 35.5303 41.7506 36.6753 41.0636 37.7063C39.4086 40.1763 37.0346 41.0583 34.1746 40.9953C36.0386 39.7243 37.6416 38.2463 38.4486 35.9723C37.4436 36.7103 36.3966 37.1243 35.0676 36.9263C36.6986 35.4953 37.1986 33.7283 36.9836 31.8393C36.5746 32.2323 36.1326 32.6943 35.6506 33.1103C35.1436 33.5503 34.5986 33.9433 34.0186 34.3973C34.0186 33.6503 34.0146 32.8973 34.0186 32.1463C34.0296 29.8853 33.2276 27.9943 31.3676 26.4613C31.3676 26.8033 31.3436 27.0673 31.3716 27.3233C31.4736 28.2813 31.2366 29.1743 30.8516 30.0303C30.2716 31.3253 30.0936 32.6453 30.4766 34.0243C30.5076 34.1393 30.4826 34.2663 30.4826 34.4013C29.1626 33.8813 28.0406 33.1903 27.7336 31.6503C27.1046 33.2853 27.3896 34.6973 28.4606 35.9703C28.6826 36.2313 28.8846 36.5133 29.1066 36.7993C28.1736 36.8823 27.1626 36.9283 25.5156 35.7573C26.5026 38.3953 27.8516 40.5063 30.8806 40.8713Z" fill="black"/>
</g>
<g id="Group_4">
<path id="Vector_4" d="M22.6172 42.9374H41.1212V44.7574H22.6172V42.9374Z" fill="black"/>
</g>
</g>
</svg>
