<svg width="62" height="55" viewBox="0 0 62 55" fill="none" xmlns="http://www.w3.org/2000/svg">
<g id="Pic 3">
<path id="Vector" fill-rule="evenodd" clip-rule="evenodd" d="M18.8184 47.7145H43.1832V45.0801H18.8184V47.7145Z" fill="black"/>
<path id="Vector_2" fill-rule="evenodd" clip-rule="evenodd" d="M5.20307 50.6292L30.9998 5.94943L56.7945 50.6292H5.20307ZM60.0489 54.3494H1.95172C0.530011 54.3494 -0.354877 52.8181 0.356484 51.5861L29.4046 1.27332C30.1149 0.0413802 31.8837 0.0413802 32.596 1.27332L61.6441 51.5851C62.3545 52.8181 61.4696 54.3494 60.0489 54.3494Z" fill="black"/>
<path id="Vector_3" fill-rule="evenodd" clip-rule="evenodd" d="M29.044 23.7208C28.7152 23.8243 28.4605 21.9317 26.9606 21.2396C27.3889 22.1976 27.5685 23.5756 27.5888 24.1855C27.6324 25.4621 27.4355 27.307 26.6866 28.2984C26.2553 28.1168 25.2598 26.2679 24.518 26.1227C24.5393 27.1984 24.7626 28.338 24.3526 29.4116C23.9122 30.5583 23.8016 31.1155 23.8564 32.5686C23.2171 32.4134 22.7767 31.5985 22.0684 31.5264C22.1303 32.2145 22.4976 32.2804 22.4519 33.3612C22.3515 35.6921 22.2987 37.879 22.7523 39.5117C23.5043 42.2192 26.5029 43.8875 29.1241 43.3568C27.5167 42.4982 24.79 38.1844 25.5074 36.7982C25.9225 36.9312 25.82 37.333 26.3315 37.4C26.369 36.5537 26.3365 34.6997 26.9018 34.3201C27.1483 36.0919 27.5451 37.3888 28.497 38.8055C28.6665 39.0521 28.9435 39.1576 29.1028 39.0602C29.1383 38.773 28.3559 35.5145 29.251 34.5982C29.3961 35.2639 30.1775 36.6318 30.558 37.054C30.8117 36.7718 31.1415 34.3059 31.2491 33.7123C31.3688 32.4103 31.2876 30.8821 31.2836 29.5365C31.6428 29.6258 31.7534 29.915 31.9564 30.2022C32.4993 30.9774 32.8108 31.7091 33.0331 32.664C33.5709 34.9757 32.824 35.7165 32.8331 36.7313C33.2654 36.4684 33.6287 36.0311 33.9504 35.5744C34.2731 35.1127 34.4659 34.516 34.7693 34.1294C35.2493 35.063 34.7186 36.4542 34.6587 37.4467C35.0839 37.3574 35.1397 37.2092 35.4838 37.0235C35.7344 36.8896 35.4503 36.9728 35.7862 36.8987C35.7922 38.3326 34.7886 40.0019 34.0773 40.8431C33.6216 41.386 33.1041 41.8386 32.5967 42.2253L30.8361 43.2999C32.204 43.6602 34.3959 43.3841 35.088 43.1913C36.9156 42.6799 38.3373 41.4632 39.1522 39.8801C39.8351 38.5528 40.2319 36.3943 39.6535 34.9574C39.5053 34.5809 39.4059 34.5434 39.4018 34.653C39.3907 34.9838 39.3145 35.3846 39.0456 35.7043C38.8985 35.8788 38.8143 35.9407 38.5717 35.959C38.2297 33.899 39.5094 31.0728 38.8082 28.9032C38.6509 28.4151 38.2216 27.4186 37.7376 27.4034C37.6635 27.9605 37.6493 29.0372 36.9755 29.228C36.6436 27.1568 36.2296 23.7248 34.3228 22.5365C34.1331 22.4178 33.9951 22.3518 34.0255 22.4401C34.2853 23.2387 34.0854 24.7548 33.8997 24.698C33.6754 24.627 33.6957 23.7573 33.4978 23.1048C32.9509 21.3127 31.4013 21.2142 30.6757 18.6276C30.5671 18.245 30.5803 17.698 30.3926 17.3835C29.8284 17.7031 29.3169 18.9929 29.4275 20.0838C29.5909 21.6922 29.2449 23.6558 29.044 23.7208Z" fill="black"/>
</g>
</svg>
