<svg width="68" height="51" viewBox="0 0 68 51" fill="none" xmlns="http://www.w3.org/2000/svg">
<g id="Pic 4">
<path id="Vector" d="M50.1131 17.3127C52.2262 17.3127 53.9396 15.8243 53.9396 13.9689C53.9396 12.1189 52.2262 10.6162 50.1131 10.6162C47.9868 10.6162 46.2832 12.1189 46.2832 13.9689C46.2832 15.8243 47.9868 17.3127 50.1131 17.3127Z" fill="black"/>
<path id="Vector_2" d="M54.9788 31.5729H53.8606V19.5428L45.5063 19.5569C44.625 19.5569 43.9141 20.1576 43.9141 20.8805C43.9141 21.6111 44.625 22.203 45.5063 22.203H46.4094V31.5729H45.6657C44.7899 31.5729 44.0757 32.1659 44.0757 32.8899C44.0757 33.6205 44.7899 34.2124 45.6657 34.2124H54.9788C55.8492 34.2124 56.5645 33.6205 56.5645 32.8899C56.5645 32.1659 55.8492 31.5729 54.9788 31.5729Z" fill="black"/>
<path id="Vector_3" d="M66.7667 6.39829C66.2568 6.02481 65.595 5.92215 64.9943 6.12528C63.6456 6.55664 62.3614 6.76741 61.052 6.76741C57.339 6.76741 54.2889 5.01247 51.3414 3.31322C49.1278 2.03442 47.0365 0.830967 44.8251 0.505533C44.1119 0.400695 43.3595 0.349367 42.6093 0.349367C38.8755 0.349367 35.5742 1.62708 34.0027 2.35111C32.4247 1.62708 29.1321 0.349367 25.3995 0.349367C24.6427 0.349367 23.8903 0.400695 23.187 0.505533C20.9755 0.830967 18.7991 2.02022 16.4981 3.27937C13.4196 4.96333 10.234 6.70735 6.6084 6.70735C5.39621 6.70735 4.22115 6.51514 3.01006 6.12528C2.41052 5.92215 1.74873 6.01825 1.23873 6.39392C0.726557 6.76741 0.421875 7.36258 0.421875 7.99707V48.2504C0.421875 49.254 1.18413 50.1015 2.19429 50.2129C2.24561 50.2205 3.5408 50.3494 5.42679 50.3494C9.86602 50.3494 15.8811 49.6406 19.2545 46.2924C20.9461 44.6084 24.2725 43.6015 28.1515 43.6015C30.0877 43.6015 31.9901 43.8702 33.3759 44.3321C33.5888 44.4009 33.8193 44.437 34.0573 44.437C35.2564 44.3933 36.5909 44.2295 37.9997 44.0569C39.7382 43.8374 41.5292 43.6157 43.2361 43.6157C45.6856 43.6157 47.3379 44.0689 48.4234 45.0703C53.4141 49.6199 60.2035 50.2948 63.8051 50.2948C65.0555 50.2948 65.8123 50.2129 65.8123 50.2129C66.8115 50.096 67.5781 49.2475 67.5781 48.2504V7.99707C67.5781 7.36258 67.2778 6.76741 66.7667 6.39829ZM31.8044 39.9355C30.6523 39.7553 29.415 39.6526 28.1515 39.6526C25.7926 39.6526 19.9468 40.025 16.4653 43.4858C14.6121 45.339 10.5824 46.3994 5.42679 46.3994C5.04348 46.3994 4.68965 46.3928 4.37186 46.3852V10.4924C5.11555 10.6093 5.8647 10.665 6.6084 10.665C11.2475 10.665 15.0402 8.58351 18.3961 6.74666C20.3738 5.66334 22.25 4.63571 23.7527 4.41948C24.2801 4.33976 24.8316 4.30263 25.3995 4.30263C28.0051 4.30263 30.4186 5.12167 31.8044 5.70047V39.9355ZM63.6369 46.347C60.5595 46.3175 55.014 45.7245 51.0837 42.1545C49.2424 40.4793 46.6848 39.6592 43.2361 39.6592C41.289 39.6592 39.2861 39.9147 37.5115 40.1277C36.9054 40.2118 36.3146 40.2806 35.7566 40.3428V5.9014C37.0168 5.32589 39.6727 4.30263 42.6093 4.30263C43.1706 4.30263 43.7286 4.33976 44.2495 4.41948C45.7184 4.63243 47.41 5.61201 49.368 6.73137C52.452 8.51034 56.2808 10.7163 61.052 10.7163C61.9093 10.7163 62.7676 10.6508 63.6369 10.5132V46.347Z" fill="black"/>
</g>
</svg>
