<svg width="60" height="61" viewBox="0 0 60 61" fill="none" xmlns="http://www.w3.org/2000/svg">
<g id="Pic 1">
<path id="Vector" d="M29.5105 39.5693C27.4361 39.6818 25.4656 39.3859 23.6406 38.3924C22.0795 37.5464 21.0016 36.2986 20.5038 34.5794C20.0663 33.0658 19.62 31.5562 19.2076 30.0377C19.0456 29.4449 18.9641 28.8288 18.8477 28.2244C18.8884 28.1992 18.9292 28.1749 18.9699 28.1497C19.3172 28.5242 19.7189 28.8609 19.9993 29.281C20.758 30.4161 21.8098 30.91 23.1904 30.8644C22.8887 30.1357 22.5132 29.4343 22.3065 28.6882C22.0581 27.7936 21.8971 26.8661 21.802 25.9414C21.6836 24.7839 21.6681 23.6168 21.7001 22.37C22.1581 22.9124 22.6296 23.4441 23.0701 23.999C23.5659 24.6239 23.8802 25.4233 24.767 25.7047C24.0743 23.7312 24.5322 21.7927 24.8466 19.8416C24.9203 19.3778 24.7602 18.8752 24.7059 18.3882C25.5927 18.396 26.1807 18.7549 26.4678 19.5476C26.6638 20.0929 26.787 20.6644 26.9316 21.2271C26.9937 21.4648 26.9879 21.7277 27.083 21.9499C27.2916 22.437 27.5438 22.9027 27.8116 23.4441C28.4083 22.3982 28.808 21.3435 28.9022 20.218C29.0293 18.7006 28.9914 17.1696 29.1505 15.6599C29.2563 14.6402 29.5813 13.6438 29.8064 12.6367C29.8578 12.6473 29.9112 12.658 29.9616 12.6687C29.9937 12.7686 30.0451 12.8656 30.0558 12.9685C30.2197 14.6509 31.027 16.08 31.7808 17.547C32.5551 19.0586 33.1847 20.6479 33.3274 22.3661C33.372 22.9143 33.2303 23.4809 33.1683 24.0951C34.0104 23.8535 34.6081 23.4101 34.7934 22.5738C35.0699 21.3202 35.3066 20.0589 35.555 18.8229C36.3758 19.9231 36.7727 21.2368 36.8008 22.6727C36.8289 24.0631 37.0104 25.4796 36.1954 26.769C36.9289 26.5197 37.5469 26.1355 37.9874 25.5359C38.4143 24.9586 38.7801 24.3367 39.1691 23.74C40.5119 26.5798 39.9734 29.1869 38.0233 31.6192C39.1555 31.2505 40.4886 31.2952 41.0194 29.868C40.9029 31.0002 40.8806 32.1499 40.6458 33.256C40.4062 34.3873 40.0569 35.4982 39.3903 36.4985C37.7846 38.895 35.4813 39.7507 32.7064 39.6896C34.5149 38.4564 36.0702 37.0224 36.8532 34.8161C35.8781 35.5322 34.8623 35.9338 33.5728 35.7417C35.1553 34.3533 35.6404 32.6389 35.4318 30.8062C35.035 31.1875 34.6061 31.6357 34.1385 32.0393C33.6466 32.4662 33.1178 32.8475 32.5551 33.288C32.5551 32.5633 32.5512 31.8327 32.5551 31.104C32.5657 28.9103 31.7876 27.0756 29.983 25.5883C29.983 25.9201 29.9597 26.1762 29.9869 26.4246C30.0858 27.3541 29.8559 28.2205 29.4823 29.051C28.9196 30.3075 28.7469 31.5882 29.1185 32.9261C29.1486 33.0377 29.1243 33.1609 29.1243 33.2919C27.8436 32.7874 26.755 32.1169 26.4572 30.6228C25.8469 32.2091 26.1234 33.5791 27.1625 34.8142C27.3779 35.0674 27.5739 35.341 27.7893 35.6185C26.8841 35.699 25.9032 35.7437 24.3052 34.6075C25.2628 37.167 26.5717 39.2152 29.5105 39.5693Z" fill="black"/>
<path id="Vector_2" d="M21.4941 41.5739H39.4473V43.3397H21.4941V41.5739Z" fill="black"/>
<path id="Vector_3" d="M0.146484 30.3401C10.0894 20.3972 20.0575 10.4281 30.1382 0.349366C30.7796 1.03144 31.4238 1.75329 32.1078 2.43924C38.4424 8.78164 44.7848 15.1192 51.1243 21.4587C53.9428 24.2782 56.7565 27.1015 59.5857 29.9094C59.9214 30.2412 59.9602 30.4372 59.5983 30.7971C54.3222 36.0441 49.0626 41.3096 43.801 46.5692C39.7047 50.6655 35.6094 54.7647 31.5189 58.8678C31.0338 59.3529 30.5855 59.8769 30.1518 60.3494C20.0837 50.2813 10.1195 40.3131 0.146484 30.3401ZM30.0499 55.6166C30.1906 55.4866 30.3478 55.3507 30.4963 55.2042C34.7556 50.9459 39.0158 46.6856 43.2732 42.4244C47.1697 38.5299 51.0632 34.6315 54.9645 30.7418C55.2517 30.4566 55.2905 30.2907 54.9752 29.986C53.8555 28.9023 52.765 27.7875 51.6628 26.6853C45.7289 20.7485 39.792 14.8145 33.8581 8.87575C32.5949 7.61251 31.3442 6.33666 30.1188 5.09379C21.6429 13.5639 13.2223 21.9816 4.81911 30.379C13.2029 38.7647 21.6109 47.1766 30.0499 55.6166Z" fill="black"/>
</g>
</svg>
