<svg width="60" height="51" viewBox="0 0 60 51" fill="none" xmlns="http://www.w3.org/2000/svg">
<g id="Pic 2">
<path id="Vector" d="M58.5498 10.1245H54.3326V7.26373C54.3326 6.50516 53.7201 5.89065 52.9615 5.89065H48.7972V2.61528C48.7972 1.98019 48.3689 1.43429 47.7622 1.28042C45.3395 0.660042 42.8619 0.349364 40.3961 0.349364C35.1792 0.349364 31.3501 1.7342 29.8408 2.37908C27.5219 1.20888 24.1319 0.609081 19.749 0.609081C15.8082 0.609081 12.5073 1.10107 12.3701 1.11872C11.6978 1.22162 11.2009 1.79986 11.2009 2.47708V5.89065H7.03757C6.28096 5.89065 5.65862 6.50516 5.65862 7.26373V10.1245H1.46002C0.695572 10.1245 0.0761719 10.739 0.0761719 11.4956V48.9743C0.0761719 49.7349 0.695572 50.3494 1.46002 50.3494H58.5498C59.3054 50.3494 59.9229 49.7349 59.9229 48.9743V11.4956C59.9229 10.739 59.3054 10.1245 58.5498 10.1245ZM46.053 3.70217V37.9947C44.5535 37.5409 42.7325 37.3204 40.5803 37.3204C36.9717 37.3204 33.2837 37.9408 31.1815 38.3671V4.79592C32.6202 4.22846 35.9554 3.10237 40.3961 3.10237C42.2827 3.10237 44.1781 3.29936 46.053 3.70217ZM13.951 3.69139C15.2123 3.55124 17.3763 3.36503 19.749 3.36503C23.5478 3.36503 26.5213 3.8482 28.4344 4.75378V38.2661C26.1047 37.6585 23.4439 37.3341 20.4772 37.3341C17.783 37.3341 15.4289 37.5889 13.951 37.7957V3.69139ZM8.40869 8.63484H11.2009V39.4089C11.2009 39.8235 11.3881 40.2096 11.7046 40.4713C12.0212 40.732 12.4417 40.8349 12.8415 40.7516C12.8768 40.7516 16.2531 40.0832 20.4772 40.0832C23.927 40.0832 26.9045 40.5193 29.3243 41.3798C29.3586 41.3876 29.3929 41.3876 29.4272 41.4023C29.4977 41.42 29.584 41.4347 29.6614 41.4474C29.6888 41.4474 29.7202 41.4553 29.7477 41.4553H29.8133C29.9368 41.4553 30.0574 41.4347 30.1789 41.4023C30.7287 41.271 35.8299 40.0567 40.5803 40.0567C43.3157 40.0567 45.4336 40.4772 46.7028 41.2563C46.9253 41.3876 47.1771 41.4553 47.4173 41.4553C47.6515 41.4553 47.8877 41.4023 48.0925 41.2838C48.5277 41.0417 48.7972 40.582 48.7972 40.0832V8.63484H51.5884V42.6892C42.2092 39.2903 32.4595 41.9659 30.1554 42.6843C21.3612 39.4559 12.2672 41.6013 8.40869 42.8078V8.63484ZM57.1728 47.5993H2.83015V12.8687H5.65862V44.7365C5.65862 45.2001 5.88796 45.6206 6.27312 45.8812C6.5005 46.0322 6.77002 46.1135 7.03757 46.1135C7.21693 46.1135 7.3904 46.0822 7.55897 46.0126C7.6707 45.9636 19.1806 41.3533 29.6193 45.4265C29.9368 45.551 30.2749 45.551 30.5846 45.4392C30.7032 45.4049 42.3601 41.3592 52.3842 45.9842C52.8125 46.1841 53.3016 46.1488 53.7024 45.8959C54.0984 45.647 54.3326 45.206 54.3326 44.7365V12.8687H57.1728V47.5993Z" fill="black"/>
</g>
</svg>
