<svg width="60" height="61" viewBox="0 0 60 61" fill="none" xmlns="http://www.w3.org/2000/svg">
<g id="Pic frame 2">
<g id="Pic 2">
<path id="Vector" d="M58.4736 14.7752H54.2564V11.9144C54.2564 11.1558 53.6439 10.5413 52.8853 10.5413H48.721V7.26591C48.721 6.63083 48.2927 6.08493 47.6861 5.93106C45.2633 5.31068 42.7857 5 40.3199 5C35.103 5 31.2739 6.38483 29.7646 7.02971C27.4458 5.85952 24.0557 5.25972 19.6729 5.25972C15.732 5.25972 12.4311 5.75171 12.2939 5.76935C11.6216 5.87226 11.1247 6.45049 11.1247 7.12772V10.5413H6.9614C6.20479 10.5413 5.58245 11.1558 5.58245 11.9144V14.7752H1.38385C0.6194 14.7752 0 15.3897 0 16.1463V53.625C0 54.3855 0.6194 55 1.38385 55H58.4736C59.2293 55 59.8467 54.3855 59.8467 53.625V16.1463C59.8467 15.3897 59.2293 14.7752 58.4736 14.7752ZM45.9768 8.3528V42.6453C44.4773 42.1915 42.6564 41.971 40.5041 41.971C36.8955 41.971 33.2076 42.5914 31.1053 43.0177V9.44655C32.5441 8.8791 35.8792 7.753 40.3199 7.753C42.2065 7.753 44.102 7.94999 45.9768 8.3528ZM13.8748 8.34202C15.1361 8.20187 17.3001 8.01566 19.6729 8.01566C23.4716 8.01566 26.4451 8.49883 28.3582 9.40441V42.9168C26.0286 42.3091 23.3677 41.9847 20.401 41.9847C17.7068 41.9847 15.3527 42.2395 13.8748 42.4463V8.34202ZM8.33252 13.2855H11.1247V44.0595C11.1247 44.4741 11.3119 44.8602 11.6285 45.1219C11.945 45.3826 12.3655 45.4855 12.7654 45.4022C12.8006 45.4022 16.177 44.7338 20.401 44.7338C23.8509 44.7338 26.8283 45.1699 29.2481 46.0304C29.2824 46.0383 29.3167 46.0383 29.351 46.053C29.4216 46.0706 29.5078 46.0853 29.5852 46.0981C29.6127 46.0981 29.644 46.1059 29.6715 46.1059H29.7371C29.8606 46.1059 29.9812 46.0853 30.1027 46.053C30.6525 45.9217 35.7538 44.7074 40.5041 44.7074C43.2395 44.7074 45.3574 45.1278 46.6266 45.907C46.8491 46.0383 47.101 46.1059 47.3411 46.1059C47.5753 46.1059 47.8115 46.053 48.0163 45.9344C48.4515 45.6923 48.721 45.2327 48.721 44.7338V13.2855H51.5122V47.3398C42.133 43.9409 32.3833 46.6165 30.0792 47.3349C21.2851 44.1066 12.191 46.2519 8.33252 47.4584V13.2855ZM57.0967 52.2499H2.75398V17.5194H5.58245V49.3872C5.58245 49.8507 5.81179 50.2712 6.19695 50.5319C6.42433 50.6828 6.69384 50.7642 6.9614 50.7642C7.14075 50.7642 7.31423 50.7328 7.4828 50.6632C7.59453 50.6142 19.1044 46.004 29.5431 50.0771C29.8606 50.2016 30.1988 50.2016 30.5085 50.0899C30.627 50.0556 42.2839 46.0099 52.3081 50.6348C52.7363 50.8347 53.2254 50.7994 53.6262 50.5466C54.0222 50.2976 54.2564 49.8566 54.2564 49.3872V17.5194H57.0967V52.2499Z" fill="black"/>
</g>
</g>
</svg>
