<svg width="98" height="45" viewBox="0 0 98 45" fill="none" xmlns="http://www.w3.org/2000/svg">
<g id="Pic 5">
<path id="Vector" d="M97.5826 12.8138L94.2189 8.29546L94.2169 8.29342L94.2097 8.28318C94.1094 8.15011 93.9856 8.04877 93.8545 7.96074C93.8361 7.94845 93.8248 7.93412 93.8054 7.92082C93.788 7.90342 93.7542 7.90341 93.7266 7.89113C93.6171 7.83381 93.4932 7.79082 93.3734 7.76625C93.3263 7.75806 93.2936 7.73963 93.2485 7.73349C93.1032 7.72223 92.9619 7.72223 92.8125 7.74884C92.7613 7.76318 88.0362 8.67933 80.4255 6.09875C79.0211 5.30134 67.9474 -0.565101 57.0468 5.45181C55.067 3.29707 49.5179 -1.34204 39.5222 0.422706C39.4218 0.438061 29.1415 2.20587 21.8542 0.43806C21.3312 0.31113 20.7784 0.501527 20.4396 0.912003L1.0397 24.7371C1.02435 24.7524 1.01412 24.779 1.00286 24.7995C0.990572 24.8138 0.979314 24.8169 0.971125 24.8302C0.949629 24.8517 0.949623 24.8804 0.938363 24.909C0.86978 25.0175 0.821675 25.1404 0.785848 25.2683C0.778682 25.3072 0.7623 25.3441 0.75104 25.385C0.748993 25.3983 0.741824 25.4188 0.741824 25.4372L0.159377 29.9709C0.0815811 30.5329 0.36104 31.0815 0.857502 31.361C1.08168 31.4848 6.46496 34.4339 14.8762 32.4215C16.2755 32.0888 17.3431 31.9219 18.333 31.8933C22.1521 31.7817 29.5151 32.489 36.0234 38.595C36.2281 38.7885 36.4902 38.9164 36.7676 38.9574L41.4169 39.6565C41.6636 39.6923 41.9195 39.6606 42.1498 39.5644C42.2747 39.5173 54.5798 34.5854 65.2266 41.0548C65.8746 41.5513 70.1503 44.6682 75.6902 44.6682C76.7466 44.6682 77.8531 44.5536 78.9873 44.2854C79.0999 44.2588 79.2074 44.2229 79.3118 44.1656C79.3497 44.1492 79.3681 44.1195 79.4039 44.0981C79.4838 44.051 79.5472 43.9936 79.6148 43.9261C79.6854 43.8636 79.7499 43.8022 79.8072 43.7265C79.8257 43.6947 79.8574 43.6814 79.8779 43.6487L97.6532 14.3697C97.945 13.8906 97.9163 13.2673 97.5826 12.8138ZM57.708 8.30775C67.9157 2.13013 79.0293 8.51043 79.1347 8.57697C79.2176 8.61996 79.3046 8.66397 79.3926 8.69059C84.257 10.3601 88.0905 10.7092 90.5154 10.7051L75.2275 36.126C73.4484 35.8425 70.485 34.5046 67.1991 32.489C66.5676 32.1011 65.8142 31.6537 64.9983 31.2689C56.0886 27.0873 47.9794 28.6494 43.4079 30.2411L50.8661 18.8061H67.4817C68.3814 20.2034 70.0592 21.1554 72.001 21.1554C73.775 21.1554 75.337 20.359 76.2829 19.148H72.9264C71.6008 19.148 70.5167 18.0732 70.5167 16.7415V16.7282C70.5167 15.3974 71.6008 14.3155 72.9264 14.3155H76.5951C75.7178 12.8465 73.9961 11.8352 72.001 11.8352C70.0592 11.8352 68.3814 12.7872 67.4817 14.1824H53.8745L57.708 8.30775ZM38.5395 36.4065L37.608 36.2632C30.4517 29.7406 22.4295 28.9769 18.2439 29.1069C16.7248 29.1551 15.2979 29.454 14.2251 29.7129C8.71695 31.0314 4.7084 29.9187 3.05524 29.2902L3.27122 27.5961C5.56723 28.2799 10.0241 28.8531 17.4946 26.987C17.6236 26.9635 30.0607 24.9377 38.8056 33.6754L38.5395 36.4065ZM16.9162 24.2641C10.2974 25.9153 6.37078 25.4976 4.41974 24.9991L22.06 3.34825C29.8048 4.92874 39.5805 3.24588 40.0043 3.17013C48.7809 1.6224 53.4702 5.66064 55.0067 7.34656L50.5477 14.1824H30.4057C29.6523 12.4299 27.7657 11.179 25.5342 11.179C23.7521 11.179 22.189 11.9734 21.2411 13.1813H24.6027C25.9314 13.1813 27.0103 14.2612 27.0103 15.594V15.6063C27.0103 16.939 25.9314 18.0179 24.6027 18.0179H20.9361C21.8164 19.4889 23.532 20.5023 25.5342 20.5023C27.1505 20.5023 28.5775 19.8339 29.5387 18.8061H47.5352L39.7576 30.7437C30.0884 22.0766 17.5611 24.1444 16.9162 24.2641ZM66.891 38.813C66.845 38.7793 66.7979 38.7475 66.7487 38.7127C61.9735 35.7882 56.973 34.9048 52.6676 34.9048C47.14 34.9048 42.7558 36.3655 41.466 36.8456L41.2982 36.819L41.5735 34.0194C43.9821 32.8319 53.3873 28.894 63.813 33.7942C64.507 34.1197 65.1775 34.5158 65.7405 34.8639C68.0447 36.2806 72.1105 38.5295 75.0893 38.898L76.5705 41.8379C71.2701 42.2125 66.935 38.856 66.891 38.813ZM78.7979 40.0527L77.5757 37.641L93.2127 11.6172L94.783 13.7289L78.7979 40.0527Z" fill="black"/>
</g>
</svg>
