<svg width="185" height="36" viewBox="0 0 185 36" fill="none" xmlns="http://www.w3.org/2000/svg">
<path fill-rule="evenodd" clip-rule="evenodd" d="M21.2894 21.3136C21.3623 21.0333 21.3543 20.7381 21.2665 20.4622C21.0157 19.8257 20.1338 19.3373 19.1686 18.8027C17.8785 18.0883 16.4395 17.2913 16.1593 15.9482C16.049 15.4385 16.0399 14.9122 16.1325 14.399C16.4366 12.5261 18.0859 11.8496 20.1019 11.8496C21.7082 11.8496 23.9277 12.241 23.9277 14.7423V15.5501H21.096V14.8401C21.1065 14.6997 21.0863 14.5586 21.0369 14.4268C20.9875 14.2949 20.91 14.1753 20.8098 14.0764C20.7097 13.9774 20.5892 13.9014 20.4567 13.8536C20.3242 13.8059 20.183 13.7874 20.0427 13.7997C19.8041 13.771 19.5636 13.8349 19.3706 13.9782C19.1777 14.1216 19.0471 14.3334 19.0056 14.5701C18.9683 14.7697 18.9729 14.975 19.019 15.1728C19.1546 15.7439 20.0097 16.2018 20.9852 16.7242C22.306 17.4315 23.8475 18.257 24.1228 19.642C24.2319 20.2642 24.236 20.9003 24.1351 21.5238C23.8651 23.4426 22.1778 24.1515 20.1243 24.1515C17.9931 24.1515 16 23.3783 16 20.8166V19.931H19.0419V21.0436C19.038 21.1901 19.0657 21.3358 19.1231 21.4706C19.1805 21.6055 19.2663 21.7264 19.3746 21.8251C19.4829 21.9238 19.6113 21.9981 19.7509 22.0428C19.8905 22.0874 20.038 22.1015 20.1836 22.084C20.4313 22.1203 20.6835 22.0608 20.889 21.9177C21.0944 21.7746 21.2376 21.5586 21.2894 21.3136ZM81.5526 12.2158L81.7081 21.2326L81.6399 21.2331L79.0335 12.2164H74.8203V23.5835H77.6156L77.4597 14.2581H77.5217L80.3221 23.5835H84.3625V12.2158H81.5526ZM29.1086 23.7048L30.6584 13.2814L30.721 13.2842L32.2339 23.7048H35.2831L33.191 12.2186H28.1425L26.0404 23.7048H29.1086ZM43.8872 20.9989L45.2849 12.2158H49.9112L50.1611 23.702H47.3233L47.2512 13.3776H47.1902L45.2961 23.7048H42.4163L40.5216 13.3804H40.4584L40.3868 23.7048H37.5473L37.7972 12.2186H42.4247L43.8223 21.0017L43.8872 20.9989ZM58.1526 20.4392C58.2397 20.7121 58.2475 21.0041 58.1749 21.2812C58.124 21.5239 57.9824 21.738 57.7789 21.8797C57.5754 22.0214 57.3255 22.0801 57.0802 22.0438C56.9362 22.0615 56.79 22.0479 56.6517 22.0038C56.5134 21.9597 56.3863 21.8862 56.2791 21.7884C56.1719 21.6906 56.0871 21.5707 56.0305 21.437C55.974 21.3034 55.947 21.159 55.9515 21.014V19.9126H52.9392V20.7898C52.9392 23.3263 54.9122 24.0922 57.0204 24.0922C59.0521 24.0922 60.7232 23.3912 60.9899 21.4914C61.09 20.8743 61.0859 20.2448 60.9776 19.6291C60.7052 18.2587 59.1796 17.442 57.8721 16.742C56.9062 16.2249 56.0593 15.7715 55.9246 15.2057C55.8792 15.0101 55.8748 14.8072 55.9118 14.6098C55.9522 14.3751 56.0812 14.1648 56.2721 14.0224C56.4629 13.88 56.7012 13.8163 56.9377 13.8444C57.0768 13.8322 57.2169 13.8505 57.3482 13.8979C57.4795 13.9453 57.599 14.0207 57.6982 14.1189C57.7975 14.2171 57.8742 14.3357 57.923 14.4665C57.9718 14.5973 57.9916 14.7372 57.9809 14.8764V15.5781H60.7858V14.7786C60.7858 12.3019 58.5881 11.9156 56.9964 11.9156C55.0016 11.9156 53.3686 12.5831 53.07 14.4392C52.9791 14.9473 52.9886 15.4683 53.098 15.9728C53.3751 17.3004 54.7987 18.0888 56.0753 18.7957C57.0313 19.3252 57.9048 19.8089 58.1526 20.4392ZM68.3816 21.7741C68.1805 21.9281 67.9294 22.002 67.677 21.9817C67.4248 22.0023 67.174 21.9286 66.973 21.775C66.772 21.6213 66.6352 21.3985 66.589 21.1498C66.5654 21.0053 66.556 20.8589 66.561 20.7126V12.2147H63.6913V20.4487C63.6857 20.6601 63.7075 21.0922 63.7176 21.204C63.9166 23.3464 65.5894 24.0425 67.6764 24.0425C69.7634 24.0425 71.4362 23.3464 71.6352 21.204C71.6453 21.0906 71.6676 20.6601 71.6632 20.4487V12.213H68.7918V20.7109C68.7969 20.8572 68.7883 21.0035 68.766 21.1481C68.7197 21.3971 68.5828 21.6202 68.3816 21.7741ZM91.342 21.8632C91.6045 21.8932 91.8687 21.8242 92.0831 21.6699C92.2975 21.5156 92.4467 21.2869 92.5016 21.0285C92.5233 20.8842 92.5327 20.7383 92.5295 20.5924V18.9264H91.3655V17.2519H95.3841V20.3308C95.3833 20.5833 95.3697 20.8355 95.3433 21.0866C95.1555 23.1776 93.3653 23.9234 91.3538 23.9234C89.3422 23.9234 87.5521 23.1781 87.3631 21.0866C87.3365 20.8356 87.3228 20.5833 87.3223 20.3308V15.4981C87.3223 15.2935 87.3475 14.9346 87.3709 14.7423C87.6242 12.5949 89.34 11.9044 91.3527 11.9044C93.3653 11.9044 95.1259 12.5887 95.3361 14.7423C95.3572 14.9936 95.3657 15.2459 95.3612 15.4981V15.88H92.4999V15.2365C92.5003 15.0896 92.4881 14.943 92.4635 14.7982C92.4141 14.5423 92.2701 14.3144 92.0602 14.1599C91.8503 14.0054 91.5899 13.9357 91.3309 13.9646C91.0729 13.9401 90.815 14.0117 90.6064 14.1655C90.3979 14.3192 90.2533 14.5445 90.2004 14.7982C90.1677 14.9776 90.1525 15.1598 90.1551 15.3421V20.5919C90.1516 20.7377 90.1606 20.8836 90.182 21.0279C90.2367 21.2865 90.386 21.5154 90.6005 21.6699C90.815 21.8244 91.0794 21.8933 91.342 21.8632ZM170.799 23.6851C171.332 23.9304 171.919 24.0531 172.559 24.0531C173.124 24.0531 173.679 23.9464 174.223 23.7331C174.767 23.5091 175.252 23.1891 175.679 22.7731C176.116 22.3571 176.468 21.8504 176.735 21.2531C177.001 20.6451 177.135 19.9571 177.135 19.1891C177.135 18.4104 177.001 17.7224 176.735 17.1251C176.479 16.5171 176.137 16.0051 175.711 15.5891C175.284 15.1731 174.793 14.8584 174.239 14.6451C173.684 14.4211 173.113 14.3091 172.527 14.3091C171.897 14.3091 171.316 14.4371 170.783 14.6931C170.26 14.9384 169.833 15.2691 169.503 15.6851V12.0211H167.343V23.8611H169.487V22.6451C169.828 23.0931 170.265 23.4398 170.799 23.6851ZM173.295 21.8451C172.953 21.9944 172.585 22.0691 172.191 22.0691C171.796 22.0691 171.428 21.9944 171.087 21.8451C170.745 21.6958 170.447 21.4878 170.191 21.2211C169.945 20.9544 169.753 20.6451 169.615 20.2931C169.476 19.9411 169.407 19.5624 169.407 19.1571C169.407 18.7624 169.476 18.3891 169.615 18.0371C169.753 17.6851 169.945 17.3811 170.191 17.1251C170.447 16.8584 170.745 16.6504 171.087 16.5011C171.428 16.3518 171.796 16.2771 172.191 16.2771C172.585 16.2771 172.953 16.3518 173.295 16.5011C173.636 16.6504 173.935 16.8531 174.191 17.1091C174.447 17.3651 174.644 17.6691 174.783 18.0211C174.932 18.3731 175.007 18.7518 175.007 19.1571C175.007 19.5624 174.932 19.9464 174.783 20.3091C174.644 20.6611 174.447 20.9704 174.191 21.2371C173.935 21.4931 173.636 21.6958 173.295 21.8451ZM166.087 23.8611H163.943V22.7891C163.644 23.1838 163.271 23.4931 162.823 23.7171C162.375 23.9411 161.852 24.0531 161.255 24.0531C160.146 24.0531 159.266 23.7011 158.615 22.9971C157.975 22.2931 157.655 21.3118 157.655 20.0531V14.5011H159.847V19.8291C159.847 20.5544 160.007 21.1304 160.327 21.5571C160.658 21.9731 161.164 22.1811 161.847 22.1811C162.444 22.1811 162.94 21.9624 163.335 21.5251C163.73 21.0878 163.927 20.4584 163.927 19.6371V14.5011H166.087V23.8611ZM149.707 19.0451H154.187V23.8611H156.363V12.1811H154.187V16.9651H149.707V12.1811H147.531V23.8611H149.707V19.0451ZM137.477 24.0211C136.581 24.0211 135.759 23.8664 135.013 23.5571C134.277 23.2371 133.647 22.8104 133.125 22.2771C132.602 21.7331 132.197 21.0984 131.909 20.3731C131.621 19.6371 131.477 18.8531 131.477 18.0211C131.477 17.1464 131.631 16.3464 131.941 15.6211C132.25 14.8851 132.671 14.2504 133.205 13.7171C133.749 13.1838 134.383 12.7678 135.109 12.4691C135.845 12.1704 136.634 12.0211 137.477 12.0211C138.021 12.0211 138.543 12.0904 139.045 12.2291C139.557 12.3678 140.031 12.5651 140.469 12.8211C140.917 13.0664 141.317 13.3704 141.669 13.7331C142.031 14.0851 142.341 14.4798 142.597 14.9171L140.693 16.1331C140.351 15.5251 139.919 15.0451 139.397 14.6931C138.874 14.3411 138.234 14.1651 137.477 14.1651C136.922 14.1651 136.41 14.2664 135.941 14.4691C135.471 14.6611 135.066 14.9331 134.725 15.2851C134.383 15.6264 134.117 16.0318 133.925 16.5011C133.733 16.9704 133.637 17.4771 133.637 18.0211C133.637 18.5544 133.733 19.0558 133.925 19.5251C134.117 19.9838 134.378 20.3891 134.709 20.7411C135.05 21.0824 135.45 21.3544 135.909 21.5571C136.378 21.7491 136.885 21.8451 137.429 21.8451C138.239 21.8451 138.922 21.6424 139.477 21.2371C140.042 20.8211 140.479 20.2931 140.789 19.6531L142.773 20.6931C142.517 21.1838 142.202 21.6371 141.829 22.0531C141.466 22.4584 141.055 22.8104 140.597 23.1091C140.149 23.3971 139.658 23.6211 139.125 23.7811C138.602 23.9411 138.053 24.0211 137.477 24.0211ZM127.451 12.1811H125.259L121.099 23.8611H123.371L124.091 21.7811H128.619L129.339 23.8611H131.611L127.451 12.1811ZM126.363 15.2691L127.899 19.7011H124.827L126.363 15.2691ZM112.74 12.1811H114.996L117.764 20.5331L120.516 12.1811H122.772L118.852 23.8611H116.66L112.74 12.1811ZM105.176 19.0451H109.656V23.8611H111.832V12.1811H109.656V16.9651H105.176V12.1811H103V23.8611H105.176V19.0451Z" fill="black"/>
</svg>
