<svg width="62" height="47" viewBox="0 0 62 47" fill="none" xmlns="http://www.w3.org/2000/svg">
<g id="manual">
<g id="Clip path group">
<mask id="mask0_16_349" style="mask-type:luminance" maskUnits="userSpaceOnUse" x="0" y="0" width="62" height="47">
<g id="clippath9">
<path id="Vector" d="M0.125 46.2493H61.625V0.449341H0.125V46.2493Z" fill="white"/>
</g>
</mask>
<g mask="url(#mask0_16_349)">
<g id="Group">
<g id="Group_2">
<path id="Vector_2" d="M60.8711 5.96457C60.4041 5.62257 59.7981 5.52857 59.2481 5.71457C58.0131 6.10957 56.8371 6.30257 55.6381 6.30257C52.2381 6.30257 49.4451 4.69557 46.7461 3.13957C44.7191 1.96857 42.8041 0.866573 40.7791 0.568573C40.1261 0.472572 39.4371 0.425571 38.7501 0.425571C35.3311 0.425571 32.3081 1.59557 30.8691 2.25857C29.4241 1.59557 26.4091 0.425571 22.9911 0.425571C22.2981 0.425571 21.6091 0.472572 20.9651 0.568573C18.9401 0.866573 16.9471 1.95557 14.8401 3.10857C12.0211 4.65057 9.10414 6.24757 5.78414 6.24757C4.67414 6.24757 3.59814 6.07157 2.48914 5.71457C1.94014 5.52857 1.33414 5.61657 0.867138 5.96057C0.398138 6.30257 0.119141 6.84757 0.119141 7.42857V44.2886C0.119141 45.2076 0.817138 45.9836 1.74214 46.0856C1.78914 46.0926 2.97514 46.2106 4.70214 46.2106C8.76714 46.2106 14.2751 45.5616 17.3641 42.4956C18.9131 40.9536 21.9591 40.0316 25.5111 40.0316C27.2841 40.0316 29.0261 40.2776 30.2951 40.7006C30.4901 40.7636 30.7011 40.7966 30.9191 40.7966C32.0171 40.7566 33.2391 40.6066 34.5291 40.4486C36.1211 40.2476 37.7611 40.0446 39.3241 40.0446C41.5671 40.0446 43.0801 40.4596 44.0741 41.3766C48.6441 45.5426 54.8611 46.1606 58.1591 46.1606C59.3041 46.1606 59.9971 46.0856 59.9971 46.0856C60.9121 45.9786 61.6141 45.2016 61.6141 44.2886V7.42857C61.6141 6.84757 61.3391 6.30257 60.8711 5.96457ZM28.8561 36.6746C27.8011 36.5096 26.6681 36.4156 25.5111 36.4156C23.3511 36.4156 17.9981 36.7566 14.8101 39.9256C13.1131 41.6226 9.42314 42.5936 4.70214 42.5936C4.35114 42.5936 4.02714 42.5876 3.73614 42.5806V9.71357C4.41714 9.82057 5.10314 9.87157 5.78414 9.87157C10.0321 9.87157 13.5051 7.96557 16.5781 6.28357C18.3891 5.29157 20.1071 4.35057 21.4831 4.15257C21.9661 4.07957 22.4711 4.04557 22.9911 4.04557C25.3771 4.04557 27.5871 4.79557 28.8561 5.32557V36.6746ZM58.0051 42.5456C55.1871 42.5186 50.1091 41.9756 46.5101 38.7066C44.8241 37.1726 42.4821 36.4216 39.3241 36.4216C37.5411 36.4216 35.7071 36.6556 34.0821 36.8506C33.5271 36.9276 32.9861 36.9906 32.4751 37.0476V5.50957C33.6291 4.98257 36.0611 4.04557 38.7501 4.04557C39.2641 4.04557 39.7751 4.07957 40.2521 4.15257C41.5971 4.34757 43.1461 5.24457 44.9391 6.26957C47.7631 7.89857 51.2691 9.91857 55.6381 9.91857C56.4231 9.91857 57.2091 9.85857 58.0051 9.73257V42.5456Z" fill="black"/>
</g>
</g>
</g>
</g>
<g id="Group_3">
<path id="Vector_3" d="M45.6222 15.9589C47.5572 15.9589 49.1262 14.5959 49.1262 12.8969C49.1262 11.2029 47.5572 9.82686 45.6222 9.82686C43.6752 9.82686 42.1152 11.2029 42.1152 12.8969C42.1152 14.5959 43.6752 15.9589 45.6222 15.9589Z" fill="black"/>
</g>
<g id="Group_4">
<path id="Vector_4" d="M50.0773 29.017H49.0533V18.001L41.4033 18.014C40.5963 18.014 39.9453 18.564 39.9453 19.226C39.9453 19.895 40.5963 20.437 41.4033 20.437H42.2303V29.017H41.5493C40.7473 29.017 40.0933 29.56 40.0933 30.223C40.0933 30.892 40.7473 31.434 41.5493 31.434H50.0773C50.8743 31.434 51.5293 30.892 51.5293 30.223C51.5293 29.56 50.8743 29.017 50.0773 29.017Z" fill="black"/>
</g>
</g>
</svg>
