<svg width="62" height="54" viewBox="0 0 62 54" fill="none" xmlns="http://www.w3.org/2000/svg">
<g id="materials">
<g id="Clip path group">
<mask id="mask0_16_331" style="mask-type:luminance" maskUnits="userSpaceOnUse" x="0" y="0" width="62" height="54">
<g id="clippath7">
<path id="Vector" d="M0.925781 53.9494H61.8258V0.74939H0.925781V53.9494Z" fill="white"/>
</g>
</mask>
<g mask="url(#mask0_16_331)">
<g id="Group">
<g id="Group_2">
<path id="Vector_2" fill-rule="evenodd" clip-rule="evenodd" d="M29.456 23.7431C29.132 23.8451 28.881 21.9801 27.403 21.2981C27.825 22.2421 28.002 23.6001 28.022 24.2011C28.065 25.4591 27.871 27.2771 27.133 28.2541C26.708 28.0751 25.727 26.2531 24.996 26.1101C25.017 27.1701 25.237 28.2931 24.833 29.3511C24.399 30.4811 24.29 31.0301 24.344 32.4621C23.714 32.3091 23.28 31.5061 22.582 31.4351C22.643 32.1131 23.005 32.1781 22.96 33.2431C22.861 35.5401 22.809 37.6951 23.256 39.3041C23.997 41.9721 26.952 43.6161 29.535 43.0931C27.951 42.2471 25.264 37.9961 25.971 36.6301C26.38 36.7611 26.279 37.1571 26.783 37.2231C26.82 36.3891 26.788 34.5621 27.345 34.1881C27.588 35.9341 27.979 37.2121 28.917 38.6081C29.084 38.8511 29.357 38.9551 29.514 38.8591C29.549 38.5761 28.778 35.3651 29.66 34.4621C29.803 35.1181 30.573 36.4661 30.948 36.8821C31.198 36.6041 31.523 34.1741 31.629 33.5891C31.747 32.3061 31.667 30.8001 31.663 29.4741C32.017 29.5621 32.126 29.8471 32.326 30.1301C32.861 30.8941 33.168 31.6151 33.387 32.5561C33.917 34.8341 33.181 35.5641 33.19 36.5641C33.616 36.3051 33.974 35.8741 34.291 35.4241C34.609 34.9691 34.799 34.3811 35.098 34.0001C35.571 34.9201 35.048 36.2911 34.989 37.2691C35.408 37.1811 35.463 37.0351 35.802 36.8521C36.049 36.7201 35.769 36.8021 36.1 36.7291C36.106 38.1421 35.117 39.7871 34.416 40.6161C33.967 41.1511 33.457 41.5971 32.957 41.9781L31.222 43.0371C32.57 43.3921 34.73 43.1201 35.412 42.9301C37.213 42.4261 38.614 41.2271 39.417 39.6671C40.09 38.3591 40.481 36.2321 39.911 34.8161C39.765 34.4451 39.667 34.4081 39.663 34.5161C39.652 34.8421 39.577 35.2371 39.312 35.5521C39.167 35.7241 39.084 35.7851 38.845 35.8031C38.508 33.7731 39.769 30.9881 39.078 28.8501C38.923 28.3691 38.5 27.3871 38.023 27.3721C37.95 27.9211 37.936 28.9821 37.272 29.1701C36.945 27.1291 36.537 23.7471 34.658 22.5761C34.471 22.4591 34.335 22.3941 34.365 22.4811C34.621 23.2681 34.424 24.7621 34.241 24.7061C34.02 24.6361 34.04 23.7791 33.845 23.1361C33.306 21.3701 31.779 21.2731 31.064 18.7241C30.957 18.3471 30.97 17.8081 30.785 17.4981C30.229 17.8131 29.725 19.0841 29.834 20.1591C29.995 21.7441 29.654 23.6791 29.456 23.7431Z" fill="black"/>
</g>
</g>
</g>
</g>
<g id="Group_3">
<path id="Vector_3" fill-rule="evenodd" clip-rule="evenodd" d="M19.3789 47.3875H43.3889V44.7914H19.3789V47.3875Z" fill="black"/>
</g>
<g id="Clip path group_2">
<mask id="mask1_16_331" style="mask-type:luminance" maskUnits="userSpaceOnUse" x="0" y="0" width="62" height="54">
<g id="clippath8">
<path id="Vector_4" d="M0.925781 53.9494H61.8258V0.74939H0.925781V53.9494Z" fill="white"/>
</g>
</mask>
<g mask="url(#mask1_16_331)">
<g id="Group_4">
<g id="Group_5">
<path id="Vector_5" fill-rule="evenodd" clip-rule="evenodd" d="M5.96281 50.2597L31.3838 6.23066L56.8028 50.2597H5.96281ZM60.0098 53.9257H2.75881C1.35781 53.9257 0.485812 52.4167 1.18681 51.2027L29.8118 1.62266C30.5118 0.408657 32.2548 0.408657 32.9568 1.62266L61.5818 51.2017C62.2818 52.4167 61.4098 53.9257 60.0098 53.9257Z" fill="black"/>
</g>
</g>
</g>
</g>
</g>
</svg>
