<svg width="68" height="61" viewBox="0 0 68 61" fill="none" xmlns="http://www.w3.org/2000/svg">
<g id="Pic frame 4">
<g id="Pic 4">
<path id="Vector" d="M50.1131 21.9634C52.2262 21.9634 53.9396 20.4749 53.9396 18.6195C53.9396 16.7695 52.2262 15.2669 50.1131 15.2669C47.9868 15.2669 46.2832 16.7695 46.2832 18.6195C46.2832 20.4749 47.9868 21.9634 50.1131 21.9634Z" fill="black"/>
<path id="Vector_2" d="M54.9788 36.2235H53.8606V24.1934L45.5063 24.2076C44.625 24.2076 43.9141 24.8082 43.9141 25.5312C43.9141 26.2617 44.625 26.8536 45.5063 26.8536H46.4094V36.2235H45.6657C44.7899 36.2235 44.0757 36.8165 44.0757 37.5406C44.0757 38.2711 44.7899 38.863 45.6657 38.863H54.9788C55.8492 38.863 56.5645 38.2711 56.5645 37.5406C56.5645 36.8165 55.8492 36.2235 54.9788 36.2235Z" fill="black"/>
<path id="Vector_3" d="M66.7667 11.0489C66.2568 10.6754 65.595 10.5728 64.9943 10.7759C63.6456 11.2073 62.3614 11.418 61.052 11.418C57.339 11.418 54.2889 9.6631 51.3414 7.96386C49.1278 6.68505 47.0365 5.4816 44.8251 5.15617C44.1119 5.05133 43.3595 5 42.6093 5C38.8755 5 35.5742 6.27771 34.0027 7.00175C32.4247 6.27771 29.1321 5 25.3995 5C24.6427 5 23.8903 5.05133 23.187 5.15617C20.9755 5.4816 18.7991 6.67086 16.4981 7.93C13.4196 9.61396 10.234 11.358 6.6084 11.358C5.39621 11.358 4.22115 11.1658 3.01006 10.7759C2.41052 10.5728 1.74873 10.6689 1.23873 11.0446C0.726557 11.418 0.421875 12.0132 0.421875 12.6477V52.9011C0.421875 53.9047 1.18413 54.7521 2.19429 54.8635C2.24561 54.8711 3.5408 55 5.42679 55C9.86602 55 15.8811 54.2913 19.2545 50.943C20.9461 49.259 24.2725 48.2522 28.1515 48.2522C30.0877 48.2522 31.9901 48.5208 33.3759 48.9827C33.5888 49.0515 33.8193 49.0876 34.0573 49.0876C35.2564 49.0439 36.5909 48.8801 37.9997 48.7075C39.7382 48.488 41.5292 48.2664 43.2361 48.2664C45.6856 48.2664 47.3379 48.7196 48.4234 49.721C53.4141 54.2705 60.2035 54.9454 63.8051 54.9454C65.0555 54.9454 65.8123 54.8635 65.8123 54.8635C66.8115 54.7466 67.5781 53.8981 67.5781 52.9011V12.6477C67.5781 12.0132 67.2778 11.418 66.7667 11.0489ZM31.8044 44.5861C30.6523 44.4059 29.415 44.3033 28.1515 44.3033C25.7926 44.3033 19.9468 44.6757 16.4653 48.1364C14.6121 49.9896 10.5824 51.05 5.42679 51.05C5.04348 51.05 4.68965 51.0435 4.37186 51.0358V15.1431C5.11555 15.2599 5.8647 15.3156 6.6084 15.3156C11.2475 15.3156 15.0402 13.2341 18.3961 11.3973C20.3738 10.314 22.25 9.28634 23.7527 9.07011C24.2801 8.99039 24.8316 8.95326 25.3995 8.95326C28.0051 8.95326 30.4186 9.77231 31.8044 10.3511V44.5861ZM63.6369 50.9976C60.5595 50.9681 55.014 50.3751 51.0837 46.8052C49.2424 45.13 46.6848 44.3098 43.2361 44.3098C41.289 44.3098 39.2861 44.5654 37.5115 44.7783C36.9054 44.8624 36.3146 44.9312 35.7566 44.9934V10.552C37.0168 9.97652 39.6727 8.95326 42.6093 8.95326C43.1706 8.95326 43.7286 8.99039 44.2495 9.07011C45.7184 9.28306 47.41 10.2626 49.368 11.382C52.452 13.161 56.2808 15.3669 61.052 15.3669C61.9093 15.3669 62.7676 15.3014 63.6369 15.1638V50.9976Z" fill="black"/>
</g>
</g>
</svg>
