<svg width="90" height="61" viewBox="0 0 90 61" fill="none" xmlns="http://www.w3.org/2000/svg">
<g id="Pic frame 5">
<g id="Pic 5">
<path id="Vector" d="M89.4958 21.7415L86.4062 17.5914L86.4043 17.5895L86.3978 17.5801C86.3056 17.4579 86.1919 17.3648 86.0715 17.2839C86.0546 17.2726 86.0442 17.2595 86.0264 17.2473C86.0104 17.2313 85.9794 17.2313 85.954 17.22C85.8534 17.1673 85.7396 17.1279 85.6296 17.1053C85.5864 17.0978 85.5563 17.0808 85.5149 17.0752C85.3814 17.0649 85.2516 17.0649 85.1144 17.0893C85.0674 17.1025 80.7273 17.944 73.7368 15.5737C72.4469 14.8413 62.2756 9.45289 52.2633 14.9795C50.4449 13.0003 45.348 8.73927 36.1668 10.3602C36.0747 10.3743 26.6321 11.998 19.9387 10.3743C19.4583 10.2577 18.9506 10.4326 18.6394 10.8096L0.820427 32.6931C0.806323 32.7072 0.796926 32.7316 0.786583 32.7504C0.775301 32.7636 0.76496 32.7664 0.757438 32.7787C0.737694 32.7984 0.737689 32.8247 0.727346 32.8511C0.664352 32.9507 0.620167 33.0635 0.58726 33.1811C0.580678 33.2168 0.565631 33.2506 0.555289 33.2883C0.553408 33.3005 0.546824 33.3193 0.546824 33.3362L0.0118421 37.5004C-0.0596141 38.0166 0.197071 38.5205 0.653074 38.7772C0.858981 38.891 5.80357 41.5997 13.5293 39.7513C14.8146 39.4457 15.7952 39.2925 16.7044 39.2661C20.2123 39.1636 26.9753 39.8133 32.9532 45.4217C33.1412 45.5994 33.3819 45.7169 33.6367 45.7545L37.9072 46.3967C38.1338 46.4296 38.3688 46.4005 38.5804 46.3121C38.6951 46.2688 49.9974 41.7389 59.7765 47.681C60.3717 48.137 64.299 51 69.3874 51C70.3577 51 71.3741 50.8947 72.4158 50.6484C72.5193 50.6239 72.618 50.591 72.7139 50.5384C72.7487 50.5233 72.7656 50.496 72.7985 50.4763C72.8718 50.4331 72.9301 50.3804 72.9922 50.3183C73.0571 50.261 73.1163 50.2046 73.169 50.135C73.1859 50.1059 73.215 50.0936 73.2338 50.0635L89.5606 23.1706C89.8286 22.7306 89.8023 22.158 89.4958 21.7415ZM52.8707 17.6027C62.2465 11.9285 72.4544 17.7888 72.5512 17.8499C72.6274 17.8894 72.7073 17.9299 72.7882 17.9543C77.2561 19.4878 80.7772 19.8084 83.0045 19.8046L68.9624 43.1539C67.3283 42.8935 64.6064 41.6646 61.5883 39.8133C61.0082 39.457 60.3162 39.0461 59.5669 38.6926C51.3833 34.8518 43.9349 36.2866 39.7359 37.7486L46.5863 27.2455H61.8478C62.6743 28.5289 64.2153 29.4033 65.9989 29.4033C67.6283 29.4033 69.063 28.6718 69.9318 27.5595H66.8488C65.6313 27.5595 64.6356 26.5723 64.6356 25.3491V25.3369C64.6356 24.1146 65.6313 23.1208 66.8488 23.1208H70.2186C69.4128 21.7716 67.8314 20.8426 65.9989 20.8426C64.2153 20.8426 62.6743 21.717 61.8478 22.9985H49.3496L52.8707 17.6027ZM35.2642 43.4115L34.4086 43.2799C27.8356 37.2889 20.4671 36.5875 16.6226 36.7069C15.2273 36.7511 13.9167 37.0256 12.9313 37.2635C7.87204 38.4745 4.19016 37.4525 2.67171 36.8752L2.87009 35.3191C4.97899 35.9472 9.07269 36.4737 15.9344 34.7597C16.0528 34.7381 27.4764 32.8774 35.5087 40.903L35.2642 43.4115ZM15.4031 32.2587C9.32372 33.7753 5.71706 33.3917 3.92501 32.9338L20.1277 13.0473C27.2414 14.499 36.2204 12.9533 36.6097 12.8837C44.6711 11.4621 48.9782 15.1713 50.3894 16.7198L46.2939 22.9985H27.7933C27.1013 21.3889 25.3685 20.24 23.3188 20.24C21.6819 20.24 20.2462 20.9696 19.3755 22.079H22.4632C23.6836 22.079 24.6746 23.0709 24.6746 24.2951V24.3064C24.6746 25.5305 23.6836 26.5215 22.4632 26.5215H19.0954C19.904 27.8726 21.4797 28.8034 23.3188 28.8034C24.8034 28.8034 26.1141 28.1895 26.9969 27.2455H43.5268L36.3831 38.2103C27.5018 30.2495 15.9955 32.1487 15.4031 32.2587ZM61.3053 45.622C61.263 45.5909 61.2198 45.5618 61.1746 45.5298C56.7885 42.8436 52.1956 42.0322 48.2411 42.0322C43.1639 42.0322 39.137 43.3739 37.9523 43.8149L37.7981 43.7904L38.051 41.219C40.2633 40.1283 48.902 36.5113 58.4781 41.0121C59.1156 41.3111 59.7314 41.675 60.2485 41.9946C62.365 43.2959 66.0995 45.3615 68.8355 45.7L70.196 48.4003C65.3276 48.7444 61.3458 45.6615 61.3053 45.622ZM72.2419 46.7606L71.1193 44.5454L85.482 20.6424L86.9243 22.582L72.2419 46.7606Z" fill="black"/>
</g>
</g>
</svg>
