<svg width="62" height="61" viewBox="0 0 62 61" fill="none" xmlns="http://www.w3.org/2000/svg">
<g id="Pic frame 3">
<g id="Pic 3">
<path id="Vector" fill-rule="evenodd" clip-rule="evenodd" d="M18.7129 50.3651H43.0778V47.7307H18.7129V50.3651Z" fill="black"/>
<path id="Vector_2" fill-rule="evenodd" clip-rule="evenodd" d="M5.0976 53.2798L30.8943 8.60007L56.689 53.2798H5.0976ZM59.9434 57H1.84625C0.424542 57 -0.460346 55.4687 0.251015 54.2368L29.2991 3.92396C30.0094 2.69201 31.7782 2.69201 32.4906 3.92396L61.5387 54.2357C62.249 55.4687 61.3641 57 59.9434 57Z" fill="black"/>
<path id="Vector_3" fill-rule="evenodd" clip-rule="evenodd" d="M28.9385 26.3714C28.6097 26.4749 28.355 24.5823 26.8551 23.8903C27.2834 24.8482 27.463 26.2263 27.4833 26.8362C27.5269 28.1128 27.3301 29.9576 26.5812 30.9491C26.1499 30.7674 25.1544 28.9185 24.4126 28.7734C24.4339 29.849 24.6571 30.9886 24.2472 32.0623C23.8067 33.209 23.6961 33.7661 23.7509 35.2193C23.1116 35.064 22.6712 34.2491 21.9629 34.1771C22.0248 34.8651 22.3921 34.9311 22.3465 36.0118C22.246 38.3428 22.1932 40.5296 22.6469 42.1624C23.3988 44.8698 26.3975 46.5381 29.0187 46.0074C27.4112 45.1489 24.6845 40.8351 25.402 39.4489C25.817 39.5818 25.7145 39.9837 26.226 40.0506C26.2635 39.2043 26.2311 37.3503 26.7963 36.9708C27.0429 38.7426 27.4397 40.0395 28.3915 41.4561C28.561 41.7027 28.838 41.8082 28.9973 41.7108C29.0329 41.4236 28.2505 38.1652 29.1455 37.2488C29.2906 37.9145 30.072 39.2824 30.4525 39.7046C30.7062 39.4225 31.036 36.9566 31.1436 36.3629C31.2633 35.061 31.1822 33.5327 31.1781 32.1871C31.5373 32.2764 31.648 32.5656 31.8509 32.8528C32.3938 33.6281 32.7054 34.3597 32.9276 35.3146C33.4654 37.6263 32.7185 38.3671 32.7277 39.3819C33.16 39.1191 33.5233 38.6817 33.8449 38.225C34.1676 37.7633 34.3605 37.1666 34.6639 36.78C35.1439 37.7136 34.6131 39.1049 34.5533 40.0973C34.9785 40.008 35.0343 39.8598 35.3783 39.6741C35.6289 39.5402 35.3448 39.6234 35.6807 39.5493C35.6868 40.9832 34.6832 42.6525 33.9718 43.4938C33.5162 44.0367 32.9986 44.4893 32.4912 44.8759L30.7306 45.9506C32.0985 46.3108 34.2904 46.0348 34.9825 45.842C36.8101 45.3305 38.2318 44.1138 39.0467 42.5307C39.7297 41.2034 40.1264 39.045 39.548 37.6081C39.3999 37.2316 39.3004 37.194 39.2963 37.3036C39.2852 37.6344 39.2091 38.0353 38.9402 38.3549C38.793 38.5295 38.7088 38.5914 38.4663 38.6096C38.1243 36.5496 39.4039 33.7235 38.7027 31.5539C38.5454 31.0658 38.1162 30.0692 37.6321 30.054C37.558 30.6111 37.5438 31.6878 36.87 31.8786C36.5382 29.8074 36.1241 26.3755 34.2174 25.1871C34.0276 25.0684 33.8896 25.0025 33.92 25.0907C34.1798 25.8894 33.9799 27.4055 33.7942 27.3486C33.5699 27.2776 33.5902 26.4079 33.3924 25.7554C32.8454 23.9633 31.2958 23.8649 30.5703 21.2782C30.4617 20.8956 30.4749 20.3487 30.2871 20.0341C29.7229 20.3537 29.2115 21.6435 29.3221 22.7344C29.4855 24.3428 29.1394 26.3064 28.9385 26.3714Z" fill="black"/>
</g>
</g>
</svg>
