<svg width="178" height="28" viewBox="0 0 178 28" fill="none" xmlns="http://www.w3.org/2000/svg">
<path fill-rule="evenodd" clip-rule="evenodd" d="M13.5896 17.5011C13.6666 17.2049 13.6582 16.8929 13.5653 16.6013C13.3004 15.9287 12.3684 15.4126 11.3484 14.8477C9.98509 14.0927 8.46442 13.2505 8.16838 11.8312C8.05182 11.2926 8.04218 10.7364 8.14002 10.1941C8.46142 8.21487 10.2043 7.5 12.3347 7.5C14.0321 7.5 16.3776 7.91356 16.3776 10.5568V11.4105H13.3852V10.6602C13.3963 10.5118 13.3749 10.3628 13.3227 10.2234C13.2705 10.0841 13.1887 9.95772 13.0828 9.85314C12.9769 9.74856 12.8496 9.66825 12.7096 9.61776C12.5696 9.56727 12.4203 9.5478 12.2721 9.56072C12.0199 9.53045 11.7658 9.59799 11.5619 9.74943C11.3581 9.90088 11.22 10.1247 11.1762 10.3748C11.1368 10.5858 11.1416 10.8027 11.1903 11.0117C11.3336 11.6153 12.2372 12.0992 13.2681 12.6512C14.6638 13.3986 16.2929 14.271 16.5838 15.7346C16.699 16.3921 16.7034 17.0643 16.5968 17.7232C16.3114 19.7509 14.5284 20.5 12.3583 20.5C10.1062 20.5 8 19.6829 8 16.9759V16.04H11.2146V17.2157C11.2104 17.3706 11.2396 17.5245 11.3003 17.667C11.361 17.8095 11.4516 17.9373 11.5661 18.0416C11.6806 18.1459 11.8162 18.2244 11.9637 18.2716C12.1112 18.3188 12.2672 18.3337 12.421 18.3152C12.6828 18.3535 12.9493 18.2907 13.1664 18.1395C13.3835 17.9882 13.5348 17.7599 13.5896 17.5011ZM77.2727 7.88699L77.437 17.4154L77.3649 17.416L74.6106 7.88758H70.1583V19.8998H73.1123L72.9475 10.0452H73.013L75.9724 19.8998H80.2421V7.88699H77.2727ZM21.8525 20.028L23.4902 9.01307L23.5564 9.01603L25.1551 20.028H28.3773L26.1665 7.88996H20.8316L18.6102 20.028H21.8525ZM37.4697 17.1685L38.9467 7.88699H43.8356L44.0997 20.025H41.1008L41.0246 9.11468H40.9602L38.9585 20.028H35.9153L33.9131 9.11763H33.8463L33.7707 20.028H30.77L31.0341 7.88994H35.9242L37.4012 17.1714L37.4697 17.1685ZM52.5447 16.577C52.6368 16.8654 52.645 17.1739 52.5683 17.4668C52.5145 17.7232 52.3648 17.9494 52.1498 18.0992C51.9348 18.249 51.6707 18.311 51.4115 18.2726C51.2593 18.2914 51.1048 18.2769 50.9587 18.2304C50.8125 18.1838 50.6782 18.1061 50.5649 18.0028C50.4516 17.8994 50.362 17.7727 50.3022 17.6315C50.2425 17.4902 50.214 17.3377 50.2187 17.1844V16.0205H47.0355V16.9475C47.0355 19.6279 49.1204 20.4373 51.3483 20.4373C53.4953 20.4373 55.2612 19.6965 55.543 17.6889C55.6489 17.0368 55.6445 16.3716 55.53 15.7209C55.2422 14.2728 53.63 13.4097 52.2483 12.67C51.2276 12.1235 50.3327 11.6444 50.1903 11.0465C50.1423 10.8398 50.1377 10.6253 50.1767 10.4167C50.2195 10.1687 50.3558 9.94656 50.5575 9.79607C50.7592 9.64558 51.011 9.57824 51.2609 9.60792C51.4079 9.59506 51.5559 9.61435 51.6947 9.66444C51.8335 9.71453 51.9597 9.79422 52.0646 9.898C52.1695 10.0018 52.2505 10.1271 52.3021 10.2654C52.3537 10.4036 52.3746 10.5514 52.3633 10.6985V11.44H55.3274V10.5952C55.3274 7.9779 53.0049 7.56966 51.3229 7.56966C49.2149 7.56966 47.4892 8.27507 47.1737 10.2365C47.0776 10.7735 47.0877 11.324 47.2032 11.8571C47.4961 13.2601 49.0005 14.0932 50.3495 14.8403C51.3598 15.3997 52.2829 15.9109 52.5447 16.577ZM63.3542 17.9877C63.1417 18.1504 62.8764 18.2286 62.6096 18.2071C62.3431 18.2289 62.0781 18.151 61.8657 17.9886C61.6533 17.8262 61.5087 17.5908 61.4599 17.328C61.4349 17.1753 61.425 17.0206 61.4303 16.866V7.8858H58.3978V16.5871C58.3918 16.8104 58.4149 17.2671 58.4255 17.3853C58.6358 19.6492 60.4035 20.3848 62.609 20.3848C64.8144 20.3848 66.5821 19.6492 66.7925 17.3853C66.8031 17.2654 66.8267 16.8104 66.822 16.5871V7.88403H63.7876V16.8642C63.7931 17.0187 63.784 17.1734 63.7605 17.3262C63.7115 17.5894 63.5668 17.825 63.3542 17.9877ZM87.6176 18.0819C87.8949 18.1135 88.1741 18.0407 88.4007 17.8776C88.6272 17.7145 88.7849 17.4729 88.8429 17.1998C88.8659 17.0473 88.8758 16.8932 88.8724 16.739V14.9784H87.6424V13.2089H91.8891V16.4625C91.8882 16.7293 91.8738 16.9959 91.8459 17.2613C91.6474 19.4708 89.7557 20.259 87.63 20.259C85.5043 20.259 83.6125 19.4714 83.4128 17.2613C83.3847 16.9959 83.3703 16.7293 83.3697 16.4625V11.3556C83.3697 11.1394 83.3963 10.7601 83.4211 10.5568C83.6888 8.28756 85.5019 7.55792 87.6288 7.55792C89.7557 7.55792 91.6161 8.28106 91.8382 10.5568C91.8606 10.8225 91.8695 11.0891 91.8648 11.3556V11.7591H88.8411V11.0791C88.8416 10.9239 88.8287 10.7689 88.8027 10.6159C88.7505 10.3455 88.5983 10.1047 88.3765 9.94142C88.1547 9.77817 87.8795 9.70447 87.6058 9.73502C87.3331 9.7092 87.0606 9.78477 86.8402 9.94729C86.6198 10.1098 86.4671 10.3479 86.4112 10.6159C86.3766 10.8055 86.3605 10.998 86.3633 11.1908V16.7384C86.3596 16.8925 86.369 17.0467 86.3917 17.1992C86.4495 17.4725 86.6072 17.7144 86.8339 17.8776C87.0606 18.0408 87.34 18.1137 87.6176 18.0819ZM163.955 19.7064C164.458 19.9421 165.012 20.06 165.616 20.06C166.15 20.06 166.674 19.9575 167.188 19.7525C167.701 19.5373 168.16 19.2299 168.562 18.8302C168.975 18.4305 169.308 17.9437 169.559 17.3698C169.811 16.7857 169.937 16.1247 169.937 15.3868C169.937 14.6387 169.811 13.9777 169.559 13.4038C169.318 12.8196 168.995 12.3277 168.593 11.928C168.19 11.5283 167.726 11.226 167.203 11.0211C166.679 10.8058 166.14 10.6982 165.586 10.6982C164.992 10.6982 164.443 10.8212 163.939 11.0672C163.446 11.3029 163.043 11.6206 162.731 12.0203V8.5H160.691V19.8755H162.716V18.7072C163.038 19.1376 163.451 19.4707 163.955 19.7064ZM166.311 17.9386C165.989 18.0821 165.642 18.1538 165.269 18.1538C164.896 18.1538 164.549 18.0821 164.226 17.9386C163.904 17.7951 163.622 17.5953 163.38 17.3391C163.149 17.0829 162.967 16.7857 162.837 16.4475C162.706 16.1093 162.64 15.7455 162.64 15.3561C162.64 14.9769 162.706 14.6182 162.837 14.28C162.967 13.9418 163.149 13.6497 163.38 13.4038C163.622 13.1476 163.904 12.9477 164.226 12.8042C164.549 12.6608 164.896 12.589 165.269 12.589C165.642 12.589 165.989 12.6608 166.311 12.8042C166.634 12.9477 166.916 13.1424 167.157 13.3884C167.399 13.6344 167.585 13.9264 167.716 14.2646C167.857 14.6028 167.928 14.9666 167.928 15.3561C167.928 15.7455 167.857 16.1144 167.716 16.4629C167.585 16.8011 167.399 17.0982 167.157 17.3545C166.916 17.6004 166.634 17.7951 166.311 17.9386ZM159.506 19.8756H157.481V18.8457C157.199 19.2248 156.847 19.522 156.424 19.7373C156.001 19.9525 155.507 20.0601 154.943 20.0601C153.896 20.0601 153.065 19.7219 152.45 19.0455C151.846 18.3691 151.544 17.4263 151.544 16.217V10.8828H153.614V16.0018C153.614 16.6987 153.765 17.2521 154.067 17.662C154.379 18.0617 154.857 18.2615 155.502 18.2615C156.066 18.2615 156.534 18.0514 156.907 17.6312C157.28 17.2111 157.466 16.6064 157.466 15.8173V10.8828H159.506V19.8756ZM144.04 15.2484H148.27V19.8755H150.324V8.65368H148.27V13.25H144.04V8.65368H141.985V19.8755H144.04V15.2484ZM132.491 20.0292C131.645 20.0292 130.87 19.8806 130.165 19.5834C129.47 19.276 128.876 18.8661 128.382 18.3537C127.888 17.831 127.506 17.2212 127.234 16.5243C126.962 15.8172 126.826 15.064 126.826 14.2646C126.826 13.4243 126.972 12.6556 127.264 11.9588C127.556 11.2516 127.954 10.6419 128.458 10.1295C128.971 9.61705 129.57 9.21737 130.255 8.93042C130.95 8.64347 131.696 8.5 132.491 8.5C133.005 8.5 133.498 8.56661 133.972 8.69984C134.455 8.83307 134.903 9.02266 135.316 9.26862C135.739 9.50432 136.117 9.7964 136.449 10.1448C136.792 10.483 137.084 10.8622 137.326 11.2824L135.528 12.4507C135.206 11.8665 134.798 11.4054 134.304 11.0672C133.811 10.729 133.206 10.5599 132.491 10.5599C131.968 10.5599 131.484 10.6572 131.041 10.852C130.598 11.0364 130.215 11.2978 129.893 11.636C129.57 11.9639 129.319 12.3533 129.137 12.8042C128.956 13.2552 128.865 13.742 128.865 14.2646C128.865 14.777 128.956 15.2587 129.137 15.7096C129.319 16.1503 129.565 16.5397 129.878 16.8779C130.2 17.2059 130.578 17.4672 131.011 17.6619C131.454 17.8464 131.932 17.9386 132.446 17.9386C133.211 17.9386 133.856 17.7439 134.38 17.3545C134.914 16.9548 135.326 16.4475 135.619 15.8326L137.492 16.8318C137.25 17.3032 136.953 17.7388 136.601 18.1384C136.258 18.5279 135.87 18.8661 135.437 19.153C135.014 19.4297 134.551 19.6449 134.047 19.7987C133.554 19.9524 133.035 20.0292 132.491 20.0292ZM123.025 8.65368H120.955L117.027 19.8755H119.172L119.852 17.8771H124.128L124.807 19.8755H126.953L123.025 8.65368ZM123.448 15.8787H120.547L121.997 11.6205L123.448 15.8787ZM109.134 8.65368H111.264L113.878 16.678L116.476 8.65368H118.606L114.905 19.8755H112.835L109.134 8.65368ZM101.992 15.2484H106.222V19.8755H108.277V8.65368H106.222V13.25H101.992V8.65368H99.9371V19.8755H101.992V15.2484Z" fill="black"/>
</svg>
