<svg width="16" height="19" viewBox="0 0 16 19" fill="none" xmlns="http://www.w3.org/2000/svg">
<path d="M7.388 18.024C6.988 17.432 6.508 16.856 5.948 16.296C5.388 15.736 4.804 15.224 4.196 14.76C3.588 14.296 2.988 13.896 2.396 13.56C1.82 13.224 1.308 12.992 0.86 12.864L2.396 9.936C3.228 10.256 3.98 10.688 4.652 11.232C5.34 11.776 5.94 12.36 6.452 12.984V0.48H9.596V13.008C10.108 12.384 10.7 11.8 11.372 11.256C12.06 10.696 12.828 10.256 13.676 9.936L15.212 12.864C14.764 12.992 14.244 13.224 13.652 13.56C13.076 13.896 12.484 14.296 11.876 14.76C11.268 15.224 10.676 15.736 10.1 16.296C9.54 16.856 9.06 17.432 8.66 18.024H7.388Z" fill="#006BEA"/>
</svg>
