<svg width="40" height="41" viewBox="0 0 40 41" fill="none" xmlns="http://www.w3.org/2000/svg">
<circle cx="20" cy="20.6001" r="20" transform="rotate(90 20 20.6001)" fill="black"/>
<path d="M12.2219 12.8219C10.4222 14.6215 9.30227 16.9896 9.05293 19.5224C8.80359 22.0553 9.44028 24.5963 10.8545 26.7123C12.2687 28.8284 14.3729 30.3885 16.8086 31.1269C19.2442 31.8654 21.8605 31.7363 24.2117 30.7619C26.5629 29.7874 28.5034 28.0278 29.7025 25.7828C30.9017 23.5379 31.2853 20.9466 30.7879 18.4506C30.2906 15.9545 28.9431 13.7082 26.9751 12.0943C25.0071 10.4805 22.5403 9.59899 19.9952 9.6001L19 9.6001" stroke="white" stroke-width="2" stroke-linecap="round" stroke-linejoin="round"/>
<path d="M20.3333 7.6001L18 10.0001L20.3333 12.4001M25 19.6001L19.1667 19.6001L19.1667 25.6001" stroke="white" stroke-width="2" stroke-linecap="round" stroke-linejoin="round"/>
</svg>
