<svg width="41" height="41" viewBox="0 0 41 41" fill="none" xmlns="http://www.w3.org/2000/svg">
<path d="M35.0202 5H5.97852C4.56329 5 3.41602 6.22423 3.41602 7.73439V31.4324C3.41602 32.9426 4.56329 34.1668 5.97852 34.1668H35.0202C36.4354 34.1668 37.5827 32.9426 37.5827 31.4324V7.73439C37.5827 6.22423 36.4354 5 35.0202 5Z" stroke="#2189FF" stroke-width="3" stroke-linejoin="round"/>
<path d="M3.41602 7.73439C3.41602 7.00918 3.68599 6.31368 4.16655 5.80088C4.64712 5.28809 5.2989 5 5.97852 5H35.0202C35.6998 5 36.3516 5.28809 36.8321 5.80088C37.3127 6.31368 37.5827 7.00918 37.5827 7.73439V15.9376H3.41602V7.73439Z" stroke="#2189FF" stroke-width="3"/>
<path d="M6.83333 10.4691C6.83333 9.46229 7.59818 8.64614 8.54167 8.64614C9.48515 8.64614 10.25 9.46229 10.25 10.4691C10.25 11.4758 9.48515 12.292 8.54167 12.292C7.59818 12.292 6.83333 11.4758 6.83333 10.4691Z" fill="#2189FF"/>
<path d="M11.9583 10.4691C11.9583 9.46229 12.7232 8.64614 13.6667 8.64614C14.6102 8.64614 15.375 9.46229 15.375 10.4691C15.375 11.4758 14.6102 12.292 13.6667 12.292C12.7232 12.292 11.9583 11.4758 11.9583 10.4691Z" fill="#2189FF"/>
</svg>
