<svg width="64" height="41" viewBox="0 0 64 41" fill="none" xmlns="http://www.w3.org/2000/svg">
<circle cx="32" cy="20.5" r="17.5" fill="white" stroke="#CCCCCC"/>
<path d="M27 18.9765C27 18.3197 27.2609 17.6898 27.7253 17.2253C28.1898 16.7609 28.8197 16.5 29.4765 16.5H37.5235C37.8487 16.5 38.1708 16.5641 38.4712 16.6885C38.7717 16.813 39.0447 16.9954 39.2746 17.2253C39.5046 17.4553 39.687 17.7283 39.8115 18.0288C39.9359 18.3292 40 18.6513 40 18.9765V27.0235C40 27.3487 39.9359 27.6708 39.8115 27.9712C39.687 28.2717 39.5046 28.5447 39.2746 28.7746C39.0447 29.0046 38.7717 29.187 38.4712 29.3115C38.1708 29.4359 37.8487 29.5 37.5235 29.5H29.4765C29.1513 29.5 28.8292 29.4359 28.5288 29.3115C28.2283 29.187 27.9553 29.0046 27.7253 28.7746C27.4954 28.5447 27.313 28.2717 27.1885 27.9712C27.0641 27.6708 27 27.3487 27 27.0235V18.9765Z" stroke="black" stroke-width="1.5" stroke-linecap="round" stroke-linejoin="round"/>
<path d="M24.8996 25.5C24.6267 25.3476 24.3997 25.127 24.2417 24.8605C24.0837 24.594 24.0003 24.2911 24 23.9826V15.2471C24 14.2862 24.8 13.5 25.7778 13.5H30.2222H34.6667C35.3333 13.5 35.696 13.8363 36 14.3736" stroke="black" stroke-width="1.5" stroke-linecap="round" stroke-linejoin="round"/>
</svg>
