<svg width="40" height="40" viewBox="0 0 40 40" fill="none" xmlns="http://www.w3.org/2000/svg">
<circle cx="20" cy="20" r="18" fill="white"/>
<path d="M15 18.4765C15 17.8197 15.2609 17.1898 15.7253 16.7253C16.1898 16.2609 16.8197 16 17.4765 16H25.5235C25.8487 16 26.1708 16.0641 26.4712 16.1885C26.7717 16.313 27.0447 16.4954 27.2746 16.7253C27.5046 16.9553 27.687 17.2283 27.8115 17.5288C27.9359 17.8292 28 18.1513 28 18.4765V26.5235C28 26.8487 27.9359 27.1708 27.8115 27.4712C27.687 27.7717 27.5046 28.0447 27.2746 28.2746C27.0447 28.5046 26.7717 28.687 26.4712 28.8115C26.1708 28.9359 25.8487 29 25.5235 29H17.4765C17.1513 29 16.8292 28.9359 16.5288 28.8115C16.2283 28.687 15.9553 28.5046 15.7253 28.2746C15.4954 28.0447 15.313 27.7717 15.1885 27.4712C15.0641 27.1708 15 26.8487 15 26.5235V18.4765Z" stroke="#AAAAAA" stroke-width="1.5" stroke-linecap="round" stroke-linejoin="round"/>
<path d="M12.8996 25C12.6267 24.8476 12.3997 24.627 12.2417 24.3605C12.0837 24.094 12.0003 23.7911 12 23.4826V14.7471C12 13.7862 12.8 13 13.7778 13H18.2222H22.6667C23.3333 13 23.696 13.3363 24 13.8736" stroke="#AAAAAA" stroke-width="1.5" stroke-linecap="round" stroke-linejoin="round"/>
</svg>
