<svg width="24" height="24" viewBox="0 0 24 24" fill="none" xmlns="http://www.w3.org/2000/svg">
<mask id="path-1-inside-1_3274_22532" fill="white">
<path fill-rule="evenodd" clip-rule="evenodd" d="M16.4188 3C15.6858 3 14.9601 3.14756 14.283 3.43425C13.6059 3.72095 12.9907 4.14115 12.4725 4.67086L11.9998 5.15393L11.5269 4.67075C10.4803 3.6013 9.06084 3.00049 7.58073 3.00049C6.10063 3.00049 4.68115 3.6013 3.63456 4.67075C2.58797 5.7402 2 7.19068 2 8.70311C2 10.2155 2.58797 11.666 3.63456 12.7355L11.5263 20.7996C11.7878 21.0668 12.2117 21.0668 12.4732 20.7996L20.365 12.7355C20.8833 12.206 21.2945 11.5774 21.575 10.8856C21.8556 10.1937 22 9.45207 22 8.70311C22 7.95416 21.8556 7.21255 21.575 6.52065C21.2945 5.82884 20.8834 5.20028 20.3651 4.67086C19.8469 4.14115 19.2317 3.72095 18.5546 3.43425C17.8775 3.14756 17.1517 3 16.4188 3Z"/>
</mask>
<path d="M14.283 3.43425L13.8931 2.51339L13.8931 2.51339L14.283 3.43425ZM12.4725 4.67086L13.1872 5.37029L13.1874 5.37012L12.4725 4.67086ZM11.9998 5.15393L11.2851 5.85336L11.9998 6.58367L12.7145 5.85336L11.9998 5.15393ZM11.5269 4.67075L10.8122 5.37018L10.8122 5.37018L11.5269 4.67075ZM3.63456 4.67075L4.34926 5.37018V5.37018L3.63456 4.67075ZM3.63456 12.7355L2.91985 13.4349L2.91986 13.4349L3.63456 12.7355ZM11.5263 20.7996L10.8116 21.499V21.499L11.5263 20.7996ZM12.4732 20.7996L13.1879 21.499V21.499L12.4732 20.7996ZM20.365 12.7355L19.6504 12.0359L19.6503 12.0361L20.365 12.7355ZM21.575 10.8856L22.5017 11.2614V11.2614L21.575 10.8856ZM21.575 6.52065L22.5017 6.14487L21.575 6.52065ZM20.3651 4.67086L19.6502 5.37012L19.6505 5.37042L20.3651 4.67086ZM18.5546 3.43425L18.9445 2.51339V2.51339L18.5546 3.43425ZM14.6729 4.35511C15.227 4.12047 15.8202 4 16.4188 4V2C15.5514 2 14.6931 2.17465 13.8931 2.51339L14.6729 4.35511ZM13.1874 5.37012C13.6137 4.93431 14.1186 4.58977 14.6729 4.35511L13.8931 2.51339C13.0931 2.85212 12.3676 3.34799 11.7576 3.9716L13.1874 5.37012ZM12.7145 5.85336L13.1872 5.37029L11.7578 3.97144L11.2851 4.4545L12.7145 5.85336ZM10.8122 5.37018L11.2851 5.85336L12.7145 4.4545L12.2416 3.97132L10.8122 5.37018ZM7.58073 4.00049C8.78856 4.00049 9.9514 4.49057 10.8122 5.37018L12.2416 3.97132C11.0092 2.71202 9.33311 2.00049 7.58073 2.00049V4.00049ZM4.34926 5.37018C5.21006 4.49057 6.3729 4.00049 7.58073 4.00049V2.00049C5.82836 2.00049 4.15224 2.71202 2.91986 3.97132L4.34926 5.37018ZM3 8.70311C3 7.44901 3.48774 6.25051 4.34926 5.37018L2.91986 3.97132C1.68819 5.22989 1 6.93236 1 8.70311H3ZM4.34926 12.0361C3.48774 11.1557 3 9.95722 3 8.70311H1C1 10.4739 1.68819 12.1763 2.91985 13.4349L4.34926 12.0361ZM12.241 20.1002L4.34926 12.0361L2.91986 13.4349L10.8116 21.499L12.241 20.1002ZM11.7585 20.1002C11.8892 19.9666 12.1103 19.9666 12.241 20.1002L10.8116 21.499C11.4653 22.167 12.5342 22.167 13.1879 21.499L11.7585 20.1002ZM19.6503 12.0361L11.7585 20.1002L13.1879 21.499L21.0797 13.4349L19.6503 12.0361ZM20.6483 10.5098C20.4163 11.0819 20.0769 11.6003 19.6504 12.0359L21.0795 13.4351C21.6897 12.8118 22.1726 12.073 22.5017 11.2614L20.6483 10.5098ZM21 8.70311C21 9.32367 20.8803 9.93765 20.6483 10.5098L22.5017 11.2614C22.8309 10.4497 23 9.58046 23 8.70311H21ZM20.6483 6.89642C20.8803 7.46858 21 8.08256 21 8.70311H23C23 7.82577 22.8309 6.95653 22.5017 6.14487L20.6483 6.89642ZM19.6505 5.37042C20.0769 5.80603 20.4164 6.32438 20.6483 6.89642L22.5017 6.14487C22.1727 5.3333 21.6898 4.59453 21.0797 3.97131L19.6505 5.37042ZM18.1647 4.35511C18.7189 4.58977 19.2239 4.93431 19.6502 5.37012L21.0799 3.9716C20.4699 3.34799 19.7445 2.85212 18.9445 2.51339L18.1647 4.35511ZM16.4188 4C17.0173 4 17.6105 4.12047 18.1647 4.35511L18.9445 2.51339C18.1444 2.17465 17.2861 2 16.4188 2V4Z" fill="black" mask="url(#path-1-inside-1_3274_22532)"/>
</svg>
