<svg width="24" height="24" viewBox="0 0 24 24" fill="none" xmlns="http://www.w3.org/2000/svg">
<path fill-rule="evenodd" clip-rule="evenodd" d="M16.4188 3C15.6858 3 14.9601 3.14756 14.283 3.43425C13.6059 3.72095 12.9907 4.14115 12.4725 4.67086L11.9998 5.15393L11.5269 4.67075C10.4803 3.6013 9.06084 3.00049 7.58073 3.00049C6.10063 3.00049 4.68115 3.6013 3.63456 4.67075C2.58797 5.7402 2 7.19068 2 8.70311C2 10.2155 2.58797 11.666 3.63456 12.7355L11.5263 20.7996C11.7878 21.0668 12.2117 21.0668 12.4732 20.7996L20.365 12.7355C20.8833 12.206 21.2945 11.5774 21.575 10.8856C21.8556 10.1937 22 9.45207 22 8.70311C22 7.95416 21.8556 7.21255 21.575 6.52065C21.2945 5.82884 20.8834 5.20028 20.3651 4.67086C19.8469 4.14115 19.2317 3.72095 18.5546 3.43425C17.8775 3.14756 17.1517 3 16.4188 3Z" fill="black"/>
</svg>
