<svg width="49" height="48" viewBox="0 0 49 48" fill="none" xmlns="http://www.w3.org/2000/svg">
<circle cx="24.5" cy="24" r="24" fill="#DDDDDD"/>
<path d="M14.5 18C14.5 17.4696 14.7107 16.9609 15.0858 16.5858C15.4609 16.2107 15.9696 16 16.5 16H32.5C33.0304 16 33.5391 16.2107 33.9142 16.5858C34.2893 16.9609 34.5 17.4696 34.5 18V30C34.5 30.5304 34.2893 31.0391 33.9142 31.4142C33.5391 31.7893 33.0304 32 32.5 32H16.5C15.9696 32 15.4609 31.7893 15.0858 31.4142C14.7107 31.0391 14.5 30.5304 14.5 30V18ZM18.019 18L24.5 23.671L30.981 18H18.019ZM32.5 19.329L25.159 25.753C24.9766 25.9128 24.7424 26.0009 24.5 26.0009C24.2576 26.0009 24.0234 25.9128 23.841 25.753L16.5 19.329V30H32.5V19.329Z" fill="black"/>
</svg>
