<svg width="48" height="48" viewBox="0 0 48 48" fill="none" xmlns="http://www.w3.org/2000/svg">
<path d="M16.25 13C15.4216 13 14.75 13.6716 14.75 14.5C14.75 15.3284 15.4216 16 16.25 16V13ZM30.75 16C31.5784 16 32.25 15.3284 32.25 14.5C32.25 13.6716 31.5784 13 30.75 13V16ZM16.25 20.2647C15.4216 20.2647 14.75 20.9363 14.75 21.7647C14.75 22.5931 15.4216 23.2647 16.25 23.2647V20.2647ZM25.1731 23.2647C26.0015 23.2647 26.6731 22.5931 26.6731 21.7647C26.6731 20.9363 26.0015 20.2647 25.1731 20.2647V23.2647ZM14.5769 6.5H32.4231V3.5H14.5769V6.5ZM36.5 10.5882V37.4118H39.5V10.5882H36.5ZM32.4231 41.5H14.5769V44.5H32.4231V41.5ZM10.5 37.4118V10.5882H7.5V37.4118H10.5ZM14.5769 41.5C12.3282 41.5 10.5 39.6725 10.5 37.4118H7.5C7.5 41.3236 10.6656 44.5 14.5769 44.5V41.5ZM36.5 37.4118C36.5 39.6725 34.6718 41.5 32.4231 41.5V44.5C36.3344 44.5 39.5 41.3236 39.5 37.4118H36.5ZM32.4231 6.5C34.6718 6.5 36.5 8.3275 36.5 10.5882H39.5C39.5 6.67638 36.3344 3.5 32.4231 3.5V6.5ZM14.5769 3.5C10.6656 3.5 7.5 6.67638 7.5 10.5882H10.5C10.5 8.3275 12.3282 6.5 14.5769 6.5V3.5ZM14.5769 33.3235H38V30.3235H14.5769V33.3235ZM14.5769 30.3235C10.6656 30.3235 7.5 33.4999 7.5 37.4118H10.5C10.5 35.151 12.3282 33.3235 14.5769 33.3235V30.3235ZM16.25 16H30.75V13H16.25V16ZM16.25 23.2647H25.1731V20.2647H16.25V23.2647Z" fill="black"/>
</svg>
