<svg width="24" height="24" viewBox="0 0 24 24" fill="none" xmlns="http://www.w3.org/2000/svg">
<path d="M14.0011 14V20.88C14.0411 21.18 13.9411 21.5 13.7111 21.71C13.6186 21.8027 13.5087 21.8763 13.3877 21.9264C13.2668 21.9766 13.1371 22.0024 13.0061 22.0024C12.8751 22.0024 12.7455 21.9766 12.6245 21.9264C12.5035 21.8763 12.3936 21.8027 12.3011 21.71L10.2911 19.7C10.182 19.5934 10.0991 19.463 10.0488 19.319C9.9985 19.175 9.98217 19.0213 10.0011 18.87V14L9.97111 13L4.21111 5.62C4.04872 5.41153 3.97544 5.14726 4.0073 4.88493C4.03915 4.6226 4.17354 4.38355 4.38111 4.22C4.57111 4.08 4.78111 4 5.00111 4H19.0011C19.2211 4 19.4311 4.08 19.6211 4.22C19.8287 4.38355 19.9631 4.6226 19.9949 4.88493C20.0268 5.14726 19.9535 5.41153 19.7911 5.62L14.0311 13L14.0011 14Z" stroke="black" stroke-width="1.5"/>
</svg>
