<svg width="41" height="40" viewBox="0 0 41 40" fill="none" xmlns="http://www.w3.org/2000/svg">
<path fill-rule="evenodd" clip-rule="evenodd" d="M24.0966 21.18H22.0416V23.5H20.6719V17.5H25.0836V18.6H22.0416V20.08H24.0966V21.18Z" fill="black"/>
<path fill-rule="evenodd" clip-rule="evenodd" d="M12.0979 21.5H11.4533V23.5H10.0835V17.5H12.2188C13.7296 17.5 14.4951 18.22 14.4951 19.5C14.499 19.772 14.4434 20.0417 14.3321 20.2903C14.2208 20.5389 14.0564 20.7606 13.8505 20.94C13.3512 21.3263 12.7304 21.5247 12.0979 21.5ZM11.977 18.6H11.4533V20.46H11.977C12.7022 20.46 13.0648 20.14 13.0648 19.52C13.0648 18.9 12.7022 18.6 11.977 18.6Z" fill="black"/>
<path fill-rule="evenodd" clip-rule="evenodd" d="M18.9133 22.6568C19.2073 22.366 19.4372 22.0165 19.5881 21.6309C19.739 21.2453 19.7892 20.9248 19.7892 20.4182C19.7892 18.4194 18.7341 17.5 16.604 17.5H15.3774V23.4963H16.604C17.0251 23.5167 17.446 23.4531 17.8425 23.309C18.2389 23.1649 18.6028 22.9432 18.9133 22.6568ZM16.7068 18.705C17.3731 18.705 17.6918 18.925 17.8781 19.099C18.0468 19.2769 18.1779 19.4873 18.2634 19.7174C18.349 19.9476 18.3758 20.1295 18.3758 20.4963C18.3758 20.9829 18.2267 21.4823 17.8781 21.8773C17.6958 22.0524 17.3662 22.278 16.7068 22.278C16.7068 21.782 16.7068 19.4477 16.7068 18.705Z" fill="black"/>
<path d="M19.2282 4L20.1075 3.1115C19.8734 2.87991 19.5575 2.75 19.2282 2.75V4ZM29.3335 14H30.5835C30.5835 13.6662 30.45 13.3463 30.2127 13.1115L29.3335 14ZM28.0835 19.625C28.0835 20.3154 28.6431 20.875 29.3335 20.875C30.0239 20.875 30.5835 20.3154 30.5835 19.625H28.0835ZM19.8335 35.25C20.5239 35.25 21.0835 34.6904 21.0835 34C21.0835 33.3096 20.5239 32.75 19.8335 32.75V35.25ZM34.4496 36.8839C34.9377 37.372 35.7292 37.372 36.2174 36.8839C36.7055 36.3957 36.7055 35.6043 36.2174 35.1161L34.4496 36.8839ZM6.59665 5.25H19.2282V2.75H6.59665V5.25ZM18.349 4.8885L28.4543 14.8885L30.2127 13.1115L20.1075 3.1115L18.349 4.8885ZM17.9782 4V12.75H20.4782V4H17.9782ZM20.4914 15.25H29.3335V12.75H20.4914V15.25ZM4.0835 5.25V32.75H6.5835V5.25H4.0835ZM28.0835 14V19.625H30.5835V14H28.0835ZM19.8335 32.75H6.59665V35.25H19.8335V32.75ZM17.9782 12.75C17.9782 14.143 19.1158 15.25 20.4914 15.25V12.75C20.4879 12.75 20.4859 12.7497 20.4849 12.7495C20.4838 12.7493 20.483 12.749 20.4823 12.7487C20.4808 12.748 20.479 12.7469 20.4774 12.7454C20.4759 12.7439 20.4761 12.7435 20.4769 12.7453C20.4773 12.7462 20.4777 12.7475 20.478 12.7488C20.4783 12.7502 20.4782 12.7507 20.4782 12.75H17.9782ZM6.59665 2.75C5.22105 2.75 4.0835 3.85698 4.0835 5.25H6.5835C6.5835 5.24926 6.58355 5.24982 6.58326 5.25121C6.58299 5.25252 6.58259 5.25375 6.58217 5.25472C6.58141 5.25651 6.58119 5.25612 6.58271 5.25462C6.58423 5.25311 6.58603 5.25196 6.5876 5.2513C6.5883 5.25101 6.5891 5.25075 6.59017 5.25053C6.59117 5.25033 6.59321 5.25 6.59665 5.25V2.75ZM4.0835 32.75C4.0835 34.143 5.22105 35.25 6.59665 35.25V32.75C6.59321 32.75 6.59117 32.7497 6.59017 32.7495C6.5891 32.7493 6.5883 32.749 6.5876 32.7487C6.58603 32.748 6.58423 32.7469 6.58271 32.7454C6.58119 32.7439 6.58141 32.7435 6.58217 32.7453C6.58259 32.7462 6.58299 32.7475 6.58326 32.7488C6.58355 32.7502 6.5835 32.7507 6.5835 32.75H4.0835ZM28.6667 33.4167C26.4116 33.4167 24.5835 31.5886 24.5835 29.3334H22.0835C22.0835 32.9692 25.0309 35.9167 28.6667 35.9167V33.4167ZM24.5835 29.3334C24.5835 27.0782 26.4116 25.25 28.6667 25.25V22.75C25.0309 22.75 22.0835 25.6975 22.0835 29.3334H24.5835ZM28.6667 25.25C30.9218 25.25 32.7499 27.0782 32.7499 29.3334H35.2499C35.2499 25.6975 32.3026 22.75 28.6667 22.75V25.25ZM36.2174 35.1161L33.3219 32.2206L31.5541 33.9883L34.4496 36.8839L36.2174 35.1161ZM32.7499 29.3334C32.7499 30.4612 32.2943 31.4803 31.5541 32.2206L33.322 33.9883C34.5118 32.7983 35.2499 31.1509 35.2499 29.3334H32.7499ZM31.5541 32.2206C30.8138 32.961 29.7947 33.4167 28.6667 33.4167V35.9167C30.4844 35.9167 32.132 35.1784 33.322 33.9883L31.5541 32.2206Z" fill="black"/>
</svg>
