<svg width="25" height="24" viewBox="0 0 25 24" fill="none" xmlns="http://www.w3.org/2000/svg">
<path d="M16.5226 5.64866L18.8513 7.9774M19.5 15.6667V18.8667C19.5 19.4325 19.2752 19.9751 18.8752 20.3752C18.4751 20.7752 17.9325 21 17.3667 21H5.63333C5.06754 21 4.52492 20.7752 4.12484 20.3752C3.72476 19.9751 3.5 19.4325 3.5 18.8667V7.13333C3.5 6.56754 3.72476 6.02492 4.12484 5.62484C4.52492 5.22476 5.06754 5 5.63333 5H8.83333M18.0197 3.59712L11.7199 9.89693C11.3944 10.222 11.1724 10.6361 11.0819 11.0872L10.5 14L13.4129 13.417C13.8639 13.3268 14.2775 13.1057 14.6031 12.7801L20.9029 6.48027C21.0922 6.29096 21.2424 6.06622 21.3448 5.81887C21.4473 5.57152 21.5 5.30642 21.5 5.03869C21.5 4.77097 21.4473 4.50587 21.3448 4.25852C21.2424 4.01117 21.0922 3.78643 20.9029 3.59712C20.7136 3.40781 20.4888 3.25764 20.2415 3.15519C19.9941 3.05273 19.729 3 19.4613 3C19.1936 3 18.9285 3.05273 18.6811 3.15519C18.4338 3.25764 18.209 3.40781 18.0197 3.59712Z" stroke="black" stroke-width="1.5" stroke-linecap="round" stroke-linejoin="round"/>
</svg>
