<svg width="64" height="64" viewBox="0 0 64 64" fill="none" xmlns="http://www.w3.org/2000/svg">
<path d="M25.2623 55.0433C22.898 56.5699 20.0809 57.2348 17.2847 56.9261C14.4885 56.6175 11.8837 55.3541 9.90807 53.3484L8.1811 51.6612C7.42393 50.8853 7 49.8435 7 48.7587C7 47.6738 7.42393 46.632 8.1811 45.8561L15.5121 38.5873C16.2802 37.8314 17.3141 37.4078 18.391 37.4078C19.4679 37.4078 20.5017 37.8314 21.2699 38.5873C22.0446 39.3456 23.0848 39.7701 24.1681 39.7701C25.2513 39.7701 26.2916 39.3456 27.0662 38.5873L38.5781 27.058C38.9622 26.6788 39.2672 26.227 39.4754 25.7287C39.6836 25.2304 39.7908 24.6956 39.7908 24.1555C39.7908 23.6153 39.6836 23.0806 39.4754 22.5823C39.2672 22.084 38.9622 21.6321 38.5781 21.253C37.8234 20.4836 37.4005 19.4482 37.4005 18.3697C37.4005 17.2911 37.8234 16.2557 38.5781 15.4864L45.8745 8.18288C46.6491 7.42457 47.6894 7 48.7726 7C49.8559 7 50.8961 7.42457 51.6708 8.18288L53.3593 9.91631C55.3595 11.8949 56.6191 14.5024 56.9265 17.3011C57.234 20.0999 56.5706 22.9193 55.0478 25.2861C47.1027 37.0148 36.9929 47.115 25.2623 55.0433Z" stroke="black" stroke-width="4" stroke-linecap="round" stroke-linejoin="round"/>
</svg>
