<svg width="25" height="24" viewBox="0 0 25 24" fill="none" xmlns="http://www.w3.org/2000/svg">
<path fill-rule="evenodd" clip-rule="evenodd" d="M13.25 1.28027C13.25 0.86606 12.9142 0.530273 12.5 0.530273C12.0858 0.530273 11.75 0.86606 11.75 1.28027V15.9696L6.28033 10.4999C5.98744 10.2071 5.51256 10.2071 5.21967 10.4999C4.92678 10.7928 4.92678 11.2677 5.21967 11.5606L11.9697 18.3106L12.5 18.8409L13.0303 18.3106L19.7803 11.5606C20.0732 11.2677 20.0732 10.7928 19.7803 10.4999C19.4874 10.2071 19.0126 10.2071 18.7197 10.4999L13.25 15.9696V1.28027ZM5.75 20.7803C5.33579 20.7803 5 21.1161 5 21.5303C5 21.9445 5.33579 22.2803 5.75 22.2803H19.25C19.6642 22.2803 20 21.9445 20 21.5303C20 21.1161 19.6642 20.7803 19.25 20.7803H5.75Z" fill="white"/>
</svg>
