<svg width="24" height="24" viewBox="0 0 24 24" fill="none" xmlns="http://www.w3.org/2000/svg">
<circle cx="12" cy="12" r="10" fill="#4586F9"/>
<path d="M10.788 11.974H13.07L14.358 13.654C14.5167 13.3927 14.6427 13.1173 14.736 12.828C14.8293 12.5293 14.876 12.2167 14.876 11.89C14.876 11.4233 14.7873 10.9847 14.61 10.574C14.442 10.1633 14.204 9.80867 13.896 9.51C13.5973 9.202 13.2427 8.95933 12.832 8.782C12.4307 8.60467 11.9967 8.516 11.53 8.516C11.0633 8.516 10.6247 8.60467 10.214 8.782C9.81267 8.95933 9.46267 9.202 9.164 9.51C8.86533 9.80867 8.62733 10.1633 8.45 10.574C8.282 10.9847 8.198 11.4233 8.198 11.89C8.198 12.3567 8.282 12.7953 8.45 13.206C8.62733 13.6167 8.86533 13.976 9.164 14.284C9.46267 14.5827 9.81267 14.8207 10.214 14.998C10.6247 15.1753 11.0633 15.264 11.53 15.264C11.866 15.264 12.1973 15.2127 12.524 15.11L13.714 16.664C13.0233 16.9813 12.2953 17.14 11.53 17.14C10.802 17.14 10.1207 17.0047 9.486 16.734C8.85133 16.454 8.296 16.0807 7.82 15.614C7.35333 15.138 6.98467 14.5827 6.714 13.948C6.44333 13.304 6.308 12.618 6.308 11.89C6.308 11.162 6.44333 10.4807 6.714 9.846C6.98467 9.21133 7.35333 8.656 7.82 8.18C8.296 7.704 8.85133 7.33067 9.486 7.06C10.1207 6.78 10.802 6.64 11.53 6.64C12.258 6.64 12.9393 6.78 13.574 7.06C14.2087 7.33067 14.764 7.704 15.24 8.18C15.716 8.656 16.0893 9.21133 16.36 9.846C16.6307 10.4807 16.766 11.162 16.766 11.89C16.766 12.534 16.6587 13.136 16.444 13.696C16.2387 14.256 15.954 14.7647 15.59 15.222L16.962 17H14.638L10.788 11.974Z" fill="white"/>
</svg>
