<svg width="24" height="24" viewBox="0 0 24 24" fill="none" xmlns="http://www.w3.org/2000/svg">
<g clip-path="url(#clip0_1_101792)">
<path d="M10.1326 0.922852C12.5734 0.928459 14.9127 1.90055 16.6386 3.62646C18.3645 5.35237 19.3366 7.69159 19.3422 10.1324C19.3454 12.2165 18.6327 14.2385 17.3234 15.8601L23.076 21.6385L21.6379 23.0518L15.9111 17.2982C14.2788 18.6264 12.237 19.3485 10.1326 19.3419C7.69011 19.3419 5.34763 18.3716 3.62051 16.6445C1.89338 14.9174 0.923096 12.5749 0.923096 10.1324C0.923096 7.68987 1.89338 5.34739 3.62051 3.62026C5.34763 1.89314 7.69011 0.922852 10.1326 0.922852ZM10.1326 2.94162C8.71043 2.94162 7.32017 3.36335 6.13766 4.15348C4.95514 4.94362 4.03348 6.06666 3.48923 7.3806C2.94498 8.69454 2.80258 10.1404 3.08003 11.5352C3.35749 12.9301 4.04235 14.2114 5.04799 15.217C6.05364 16.2227 7.33491 16.9075 8.72978 17.185C10.1247 17.4624 11.5705 17.32 12.8844 16.7758C14.1984 16.2315 15.3214 15.3099 16.1115 14.1274C16.9017 12.9449 17.3234 11.5546 17.3234 10.1324C17.321 8.22603 16.5626 6.39845 15.2146 5.05045C13.8666 3.70244 12.039 2.94406 10.1326 2.94162Z" fill="black"/>
</g>
<defs>
<clipPath id="clip0_1_101792">
<rect width="24" height="24" fill="white"/>
</clipPath>
</defs>
</svg>
