<svg width="56" height="57" viewBox="0 0 56 57" fill="none" xmlns="http://www.w3.org/2000/svg">
<path d="M41.095 9.60945L39.095 9.60508V9.60945H41.095ZM36.8733 4.90099L37.0863 2.91235L37.0798 2.91167L36.8733 4.90099ZM19.1244 4.90099L18.918 2.91166L18.9114 2.91236L19.1244 4.90099ZM14.9028 9.60945H16.9028L16.9028 9.60508L14.9028 9.60945ZM35.0873 44.675C36.1919 44.675 37.0873 43.7796 37.0873 42.675C37.0873 41.5704 36.1919 40.675 35.0873 40.675V44.675ZM20.9128 40.675C19.8082 40.675 18.9128 41.5704 18.9128 42.675C18.9128 43.7796 19.8082 44.675 20.9128 44.675V40.675ZM51.7006 40.1029C51.8549 39.0092 51.0934 37.9974 49.9997 37.8431C48.906 37.6887 47.8942 38.4502 47.7398 39.544L51.7006 40.1029ZM6.27989 39.8235L4.29939 40.102L4.2995 40.1028L6.27989 39.8235ZM5.28295 32.736L7.26345 32.4574L7.26329 32.4562L5.28295 32.736ZM5.9397 19.1043L4.47272 17.7449L4.4714 17.7464L5.9397 19.1043ZM50.0604 19.1067L48.5928 20.4654L48.5928 20.4654L50.0604 19.1067ZM49.306 28.257C49.1719 29.3534 49.9519 30.351 51.0483 30.4852C52.1447 30.6194 53.1422 29.8393 53.2764 28.743L49.306 28.257ZM47.8347 17.0327C48.012 16.0212 47.9657 14.9832 47.6991 13.9915L43.8362 15.0298C43.9513 15.4578 43.9712 15.9058 43.8947 16.3423L47.8347 17.0327ZM47.6991 13.9915C47.4326 12.9997 46.9522 12.0784 46.2917 11.2921L43.2288 13.8648C43.5139 14.2041 43.7212 14.6018 43.8362 15.0298L47.6991 13.9915ZM46.2917 11.2921C45.6312 10.5058 44.8066 9.87353 43.8758 9.43977L42.1862 13.0654C42.5879 13.2526 42.9438 13.5255 43.2288 13.8648L46.2917 11.2921ZM43.8758 9.43977C42.945 9.00602 41.9305 8.78125 40.9036 8.78125V12.7812C41.3468 12.7812 41.7846 12.8782 42.1862 13.0654L43.8758 9.43977ZM40.9036 8.78125H15.0965V12.7812H40.9036V8.78125ZM15.0965 8.78125C14.0696 8.78125 13.0551 9.00602 12.1243 9.43977L13.8139 13.0654C14.2155 12.8782 14.6533 12.7812 15.0965 12.7812V8.78125ZM12.1243 9.43977C11.1935 9.87353 10.3689 10.5058 9.70842 11.2921L12.7713 13.8648C13.0563 13.5255 13.4122 13.2526 13.8139 13.0654L12.1243 9.43977ZM9.70842 11.2921C9.04793 12.0784 8.56755 12.9997 8.30099 13.9915L12.1639 15.0298C12.2789 14.6018 12.4862 14.2041 12.7713 13.8648L9.70842 11.2921ZM8.30099 13.9915C8.03443 14.9832 7.98815 16.0212 8.16539 17.0327L12.1054 16.3423C12.0289 15.9058 12.0488 15.4578 12.1639 15.0298L8.30099 13.9915ZM42.9819 10.9954C43.0406 10.4507 43.095 10 43.095 9.60945H39.095C39.095 9.72448 39.0785 9.88334 39.0049 10.5671L42.9819 10.9954ZM43.095 9.61382C43.0986 7.95173 42.4866 6.34717 41.3771 5.10966L38.3989 7.77994C38.8485 8.28138 39.0965 8.93156 39.095 9.60508L43.095 9.61382ZM41.3771 5.10966C40.2675 3.87215 38.739 3.08938 37.0863 2.91236L36.6603 6.88961C37.3299 6.96133 37.9493 7.2785 38.3989 7.77994L41.3771 5.10966ZM37.0798 2.91167C36.7 2.87226 36.2636 2.875 35.7016 2.875V6.875C36.368 6.875 36.5458 6.87774 36.6669 6.8903L37.0798 2.91167ZM35.7016 2.875H20.2985V6.875H35.7016V2.875ZM20.2985 2.875C19.7368 2.875 19.2978 2.87226 18.918 2.91167L19.3309 6.8903C19.4519 6.87774 19.6318 6.875 20.2985 6.875V2.875ZM18.9114 2.91236C17.2588 3.08938 15.7302 3.87215 14.6207 5.10966L17.5989 7.77994C18.0485 7.2785 18.6678 6.96133 19.3374 6.88961L18.9114 2.91236ZM14.6207 5.10966C13.5111 6.34717 12.8991 7.95173 12.9028 9.61382L16.9028 9.60508C16.9013 8.93156 17.1493 8.28138 17.5989 7.77994L14.6207 5.10966ZM12.9028 9.60945C12.9028 10.0008 12.9537 10.4402 13.0168 11.0038L16.9919 10.5587C16.918 9.89849 16.9028 9.72368 16.9028 9.60945H12.9028ZM35.0873 40.675H20.9128V44.675H35.0873V40.675ZM47.7398 39.544C47.3187 42.5279 47.0265 44.5698 46.5992 46.0963C46.1898 47.5586 45.7183 48.3049 45.085 48.8294L47.6367 51.9099C49.1225 50.6791 49.9172 49.0818 50.4511 47.1746C50.967 45.3316 51.2948 42.978 51.7006 40.1029L47.7398 39.544ZM45.085 48.8294C44.4391 49.3645 43.5576 49.7237 41.9239 49.9198C40.2428 50.1216 38.0392 50.125 34.8629 50.125V54.125C37.9399 54.125 40.4258 54.1284 42.4006 53.8913C44.4227 53.6486 46.1635 53.1302 47.6367 51.9099L45.085 48.8294ZM34.8629 50.125H21.1372V54.125H34.8629V50.125ZM21.1372 50.125C17.9621 50.125 15.7585 50.1216 14.0771 49.9198C12.4428 49.7237 11.5609 49.3644 10.9151 48.8294L8.36344 51.9099C9.83676 53.1303 11.5783 53.6486 13.6005 53.8913C15.5755 54.1284 18.0613 54.125 21.1372 54.125V50.125ZM10.9151 48.8294C10.2816 48.3047 9.81017 47.5588 9.40093 46.0971C8.97366 44.571 8.68138 42.5292 8.26029 39.5441L4.2995 40.1028C4.70526 42.9791 5.03312 45.3327 5.54904 47.1755C6.08301 49.0827 6.87781 50.6793 8.36344 51.9099L10.9151 48.8294ZM8.2604 39.5449L7.26345 32.4574L3.30245 33.0145L4.29939 40.102L8.2604 39.5449ZM7.26329 32.4562C6.72636 28.6556 6.36056 26.0273 6.37543 24.0401C6.38977 22.1231 6.76222 21.1606 7.40801 20.4623L4.4714 17.7464C2.87761 19.4697 2.39368 21.5855 2.37554 24.0102C2.35792 26.3646 2.78353 29.3414 3.30261 33.0157L7.26329 32.4562ZM7.40669 20.4637C8.07029 19.7476 9.08504 19.247 11.1531 18.9722C13.2636 18.6917 16.0955 18.6875 20.1379 18.6875V14.6875C16.2095 14.6875 13.062 14.6833 10.6261 15.007C8.14763 15.3364 6.0487 16.0442 4.47272 17.7449L7.40669 20.4637ZM20.1379 18.6875H35.8622V14.6875H20.1379V18.6875ZM35.8622 18.6875C39.9047 18.6875 42.7364 18.6917 44.8468 18.9724C46.9144 19.2475 47.929 19.7484 48.5928 20.4654L51.528 17.748C49.9522 16.0458 47.8531 15.3371 45.3743 15.0074C42.9382 14.6833 39.7906 14.6875 35.8622 14.6875V18.6875ZM48.5928 20.4654C49.643 21.5998 49.906 23.3546 49.306 28.257L53.2764 28.743C53.8387 24.1481 54.0167 20.4362 51.528 17.748L48.5928 20.4654Z" fill="black"/>
</svg>
