<svg width="16" height="17" viewBox="0 0 16 17" fill="none" xmlns="http://www.w3.org/2000/svg">
<path d="M13.8561 8.96194C13.7419 8.83421 13.6789 8.67001 13.6789 8.5C13.6789 8.32999 13.7419 8.16579 13.8561 8.03806L14.7681 7.0302C14.8686 6.92008 14.931 6.78153 14.9464 6.63441C14.9618 6.48729 14.9293 6.33917 14.8536 6.21131L13.4286 3.78964C13.3537 3.66192 13.2397 3.56069 13.1028 3.50036C12.9659 3.44003 12.8131 3.4237 12.6662 3.45369L11.3267 3.71965C11.1563 3.75425 10.9788 3.72636 10.8279 3.64126C10.6769 3.55616 10.5629 3.41973 10.5073 3.25771L10.0727 1.97689C10.0249 1.83787 9.93384 1.71713 9.81237 1.63172C9.69091 1.54632 9.54519 1.50057 9.39582 1.50095H6.54578C6.39041 1.49299 6.23665 1.5352 6.10799 1.62114C5.97933 1.70708 5.88285 1.83202 5.83327 1.97689L5.43427 3.25771C5.37869 3.41973 5.26467 3.55616 5.11372 3.64126C4.96277 3.72636 4.78533 3.75425 4.61488 3.71965L3.23974 3.45369C3.10048 3.43436 2.95851 3.45594 2.83172 3.51573C2.70493 3.57551 2.59898 3.67082 2.52723 3.78964L1.10221 6.21131C1.02466 6.33775 0.989792 6.48503 1.00259 6.63211C1.01539 6.77919 1.07519 6.91852 1.17346 7.0302L2.07835 8.03806C2.19258 8.16579 2.25557 8.32999 2.25557 8.5C2.25557 8.67001 2.19258 8.83421 2.07835 8.96194L1.17346 9.9698C1.07519 10.0815 1.01539 10.2208 1.00259 10.3679C0.989792 10.515 1.02466 10.6623 1.10221 10.7887L2.52723 13.2104C2.60211 13.3381 2.71613 13.4393 2.85303 13.4996C2.98992 13.56 3.14271 13.5763 3.28961 13.5463L4.62913 13.2803C4.79958 13.2458 4.97702 13.2736 5.12797 13.3587C5.27892 13.4438 5.39294 13.5803 5.44852 13.7423L5.88315 15.0231C5.93272 15.168 6.02921 15.2929 6.15787 15.3789C6.28653 15.4648 6.44028 15.507 6.59566 15.499H9.4457C9.59507 15.4994 9.74079 15.4537 9.86225 15.3683C9.98371 15.2829 10.0748 15.1621 10.1226 15.0231L10.5572 13.7423C10.6128 13.5803 10.7268 13.4438 10.8778 13.3587C11.0287 13.2736 11.2062 13.2458 11.3766 13.2803L12.7161 13.5463C12.863 13.5763 13.0158 13.56 13.1527 13.4996C13.2896 13.4393 13.4036 13.3381 13.4785 13.2104L14.9035 10.7887C14.9792 10.6608 15.0116 10.5127 14.9963 10.3656C14.9809 10.2185 14.9185 10.0799 14.818 9.9698L13.8561 8.96194ZM12.7945 9.89981L13.3645 10.5297L12.4525 12.0835L11.6117 11.9155C11.0986 11.8125 10.5647 11.8981 10.1116 12.1562C9.65847 12.4142 9.31755 12.8267 9.15357 13.3153L8.88281 14.0992H7.05879L6.80229 13.3013C6.63831 12.8127 6.29739 12.4002 5.84425 12.1422C5.39111 11.8841 4.85729 11.7985 4.34413 11.9015L3.50337 12.0695L2.57711 10.5227L3.14711 9.89281C3.49763 9.50785 3.69142 9.00948 3.69142 8.493C3.69142 7.97652 3.49763 7.47815 3.14711 7.09319L2.57711 6.46328L3.48912 4.92349L4.32988 5.09146C4.84304 5.1945 5.37686 5.10888 5.83 4.85084C6.28314 4.59279 6.62406 4.1803 6.78804 3.69165L7.05879 2.90076H8.88281L9.15357 3.69865C9.31755 4.1873 9.65847 4.59979 10.1116 4.85783C10.5647 5.11588 11.0986 5.2015 11.6117 5.09846L12.4525 4.93049L13.3645 6.48427L12.7945 7.11419C12.4479 7.49827 12.2565 7.99375 12.2565 8.507C12.2565 9.02025 12.4479 9.51573 12.7945 9.89981ZM7.9708 5.70038C7.40712 5.70038 6.85609 5.86458 6.38741 6.1722C5.91872 6.47983 5.55342 6.91707 5.33771 7.42863C5.122 7.9402 5.06556 8.50311 5.17553 9.04618C5.2855 9.58925 5.55694 10.0881 5.95552 10.4796C6.35411 10.8712 6.86193 11.1378 7.41479 11.2458C7.96764 11.3538 8.54069 11.2984 9.06146 11.0865C9.58224 10.8746 10.0274 10.5158 10.3405 10.0554C10.6537 9.59499 10.8208 9.05371 10.8208 8.5C10.8208 7.75749 10.5206 7.0454 9.98608 6.52037C9.4516 5.99534 8.72668 5.70038 7.9708 5.70038ZM7.9708 9.89981C7.68896 9.89981 7.41345 9.81771 7.1791 9.6639C6.94476 9.51009 6.76211 9.29147 6.65426 9.03568C6.5464 8.7799 6.51818 8.49845 6.57316 8.22691C6.62815 7.95537 6.76387 7.70595 6.96316 7.51019C7.16245 7.31442 7.41637 7.1811 7.69279 7.12709C7.96922 7.07308 8.25574 7.1008 8.51613 7.20674C8.77652 7.31269 8.99908 7.49211 9.15566 7.72231C9.31225 7.95251 9.39582 8.22314 9.39582 8.5C9.39582 8.87125 9.24569 9.2273 8.97844 9.48981C8.7112 9.75233 8.34874 9.89981 7.9708 9.89981Z" fill="black"/>
</svg>
