<svg width="72" height="72" viewBox="0 0 72 72" fill="none" xmlns="http://www.w3.org/2000/svg">
<path d="M15.3816 6.2998V3.7998V6.2998ZM10.7998 10.869H8.2998H10.7998ZM10.7998 61.1306H8.2998H10.7998ZM10.7998 49.4921C9.41909 49.4921 8.2998 50.6114 8.2998 51.9921C8.2998 53.3728 9.41909 54.4921 10.7998 54.4921V49.4921ZM61.1998 54.4921C62.5805 54.4921 63.6998 53.3728 63.6998 51.9921C63.6998 50.6114 62.5805 49.4921 61.1998 49.4921V54.4921ZM20.4012 20.8709C19.6509 22.0299 19.9822 23.5778 21.1412 24.3281C22.3002 25.0785 23.8481 24.7472 24.5984 23.5881L20.4012 20.8709ZM33.1619 17.5695L35.0062 15.8816L33.1619 17.5695ZM28.8971 38.5397L30.3122 36.4788L30.3119 36.4786L28.8971 38.5397ZM46.6169 45.2205C47.733 46.0335 49.2967 45.7878 50.1096 44.6718C50.9226 43.5558 50.6769 41.992 49.5609 41.1791L46.6169 45.2205ZM56.618 3.7998H15.3816V8.7998H56.618V3.7998ZM15.3816 3.7998C13.5056 3.7998 11.7051 4.54293 10.3765 5.8679L13.9071 9.4083C14.297 9.01948 14.8273 8.7998 15.3816 8.7998V3.7998ZM10.3765 5.8679C9.0476 7.19311 8.2998 8.99194 8.2998 10.869H13.2998C13.2998 10.3225 13.5175 9.79689 13.9071 9.4083L10.3765 5.8679ZM8.2998 10.869V61.1306H13.2998V10.869H8.2998ZM8.2998 61.1306C8.2998 63.0077 9.0476 64.8065 10.3765 66.1317L13.9071 62.5913C13.5175 62.2027 13.2998 61.6771 13.2998 61.1306H8.2998ZM10.3765 66.1317C11.7051 67.4567 13.5056 68.1998 15.3816 68.1998V63.1998C14.8273 63.1998 14.297 62.9801 13.9071 62.5913L10.3765 66.1317ZM15.3816 68.1998H56.618V63.1998H15.3816V68.1998ZM56.618 68.1998C58.494 68.1998 60.2945 67.4567 61.6232 66.1317L58.0925 62.5913C57.7026 62.9801 57.1723 63.1998 56.618 63.1998V68.1998ZM61.6232 66.1317C62.952 64.8065 63.6998 63.0077 63.6998 61.1306H58.6998C58.6998 61.6771 58.4822 62.2027 58.0925 62.5913L61.6232 66.1317ZM63.6998 61.1306V10.869H58.6998V61.1306H63.6998ZM63.6998 10.869C63.6998 8.99194 62.952 7.19311 61.6232 5.8679L58.0925 9.4083C58.4821 9.79688 58.6998 10.3225 58.6998 10.869H63.6998ZM61.6232 5.8679C60.2945 4.54293 58.494 3.7998 56.618 3.7998V8.7998C57.1723 8.7998 57.7026 9.01948 58.0925 9.4083L61.6232 5.8679ZM10.7998 54.4921H61.1998V49.4921H10.7998V54.4921ZM24.5984 23.5881C25.7377 21.8283 27.3071 20.0945 28.7761 19.2253C29.4947 18.8001 30.0092 18.6885 30.33 18.7007C30.5641 18.7097 30.8839 18.7833 31.3177 19.2573L35.0062 15.8816C33.7554 14.5149 32.2119 13.769 30.5209 13.7044C28.9165 13.6431 27.4438 14.2039 26.2299 14.9222C23.8339 16.3399 21.7568 18.7769 20.4012 20.8709L24.5984 23.5881ZM31.3177 19.2573C31.4202 19.3693 31.7346 19.8288 31.1876 21.5647C30.6703 23.2065 29.6521 25.1265 28.4939 27.3062C27.4141 29.3386 26.1674 31.6746 25.5868 33.7596C25.2915 34.8199 25.0984 36.0431 25.32 37.2636C25.5598 38.5848 26.2647 39.7651 27.4823 40.6009L30.3119 36.4786C30.2447 36.4324 30.2525 36.4417 30.2396 36.3704C30.2083 36.1984 30.2066 35.8078 30.4035 35.1009C30.8072 33.6513 31.7475 31.839 32.9094 29.6523C33.9929 27.6129 35.271 25.243 35.9565 23.0672C36.6124 20.9855 37.0361 18.0997 35.0062 15.8816L31.3177 19.2573ZM27.4819 40.6007C28.7799 41.4919 30.2176 41.7134 31.6002 41.441C32.8843 41.188 34.0344 40.5306 35.0017 39.8206C36.9112 38.4189 38.827 36.2546 40.491 34.3791C42.2739 32.3697 43.7981 30.6563 45.1615 29.6275C45.8333 29.1206 46.2655 28.94 46.4884 28.8938C46.5973 28.8712 46.5733 28.8785 46.6169 28.9103L49.5609 24.8689C48.2867 23.9407 46.8499 23.7126 45.4736 23.9978C44.2113 24.2595 43.0858 24.93 42.1497 25.6363C40.2974 27.0341 38.4055 29.1959 36.7509 31.0607C34.9775 33.0595 33.4344 34.7686 32.043 35.7899C31.3597 36.2915 30.8988 36.4831 30.6337 36.5353C30.4671 36.5681 30.4174 36.5511 30.3122 36.4788L27.4819 40.6007ZM46.6169 28.9103C46.9144 29.127 46.9582 29.2622 46.9697 29.2966C46.992 29.3631 47.0307 29.5441 46.9561 29.9411C46.7811 30.8729 46.2239 31.9789 45.4162 33.6484C44.717 35.0937 43.7928 37.0411 43.6388 39.0326C43.5568 40.0933 43.6826 41.2322 44.1928 42.3538C44.7033 43.4758 45.5293 44.4282 46.6169 45.2205L49.5609 41.1791C49.0493 40.8064 48.8405 40.4953 48.744 40.2833C48.6473 40.0708 48.594 39.8049 48.6239 39.4181C48.6938 38.5145 49.1578 37.3956 49.9172 35.8258C50.5681 34.4803 51.5398 32.6225 51.8702 30.8643C52.0483 29.9162 52.0838 28.8207 51.7103 27.7069C51.326 26.561 50.5813 25.6122 49.5609 24.8689L46.6169 28.9103Z" fill="black"/>
</svg>
