<svg width="24" height="24" viewBox="0 0 24 24" fill="none" xmlns="http://www.w3.org/2000/svg">
<path d="M16.5529 5.11833C16.26 4.82543 15.7852 4.82543 15.4923 5.11833C15.1994 5.41122 15.1994 5.88609 15.4923 6.17899L16.5529 5.11833ZM17.821 8.50773C18.1139 8.80062 18.5888 8.80062 18.8817 8.50773C19.1746 8.21483 19.1746 7.73996 18.8817 7.44707L17.821 8.50773ZM17.5197 3.59712L18.0501 4.12745L17.5197 3.59712ZM11.2199 9.89693L11.7499 10.4276L11.7503 10.4273L11.2199 9.89693ZM10.5819 11.0872L9.84657 10.9396L9.84644 10.9402L10.5819 11.0872ZM10 14L9.26453 13.8531C9.21541 14.099 9.29242 14.3531 9.46977 14.5304C9.64711 14.7077 9.90132 14.7846 10.1472 14.7354L10 14ZM12.9129 13.417L12.7658 12.6816L12.7657 12.6816L12.9129 13.417ZM14.1031 12.7801L13.5727 12.2498L14.1031 12.7801ZM20.4029 6.48027L20.9332 7.0106L20.4029 6.48027ZM18.9613 3V3.75V3ZM19.75 15.6667C19.75 15.2525 19.4142 14.9167 19 14.9167C18.5858 14.9167 18.25 15.2525 18.25 15.6667H19.75ZM3 18.8667H2.25H3ZM5.13333 5V4.25V5ZM8.33333 5.75C8.74755 5.75 9.08333 5.41421 9.08333 5C9.08333 4.58579 8.74755 4.25 8.33333 4.25V5.75ZM15.4923 6.17899L17.821 8.50773L18.8817 7.44707L16.5529 5.11833L15.4923 6.17899ZM16.9894 3.06679L10.6896 9.3666L11.7503 10.4273L18.0501 4.12745L16.9894 3.06679ZM10.69 9.36623C10.2597 9.79592 9.96621 10.3434 9.84657 10.9396L11.3173 11.2347C11.3786 10.9289 11.5292 10.648 11.7499 10.4276L10.69 9.36623ZM9.84644 10.9402L9.26453 13.8531L10.7355 14.1469L11.3174 11.2341L9.84644 10.9402ZM10.1472 14.7354L13.06 14.1524L12.7657 12.6816L9.85281 13.2646L10.1472 14.7354ZM13.0599 14.1524C13.656 14.0332 14.203 13.7408 14.6334 13.3104L13.5727 12.2498C13.352 12.4705 13.0717 12.6204 12.7658 12.6816L13.0599 14.1524ZM14.6334 13.3104L20.9332 7.0106L19.8726 5.94994L13.5727 12.2498L14.6334 13.3104ZM20.9332 7.0106C21.1922 6.75164 21.3976 6.44422 21.5377 6.10588L20.1519 5.53186C20.0871 5.68821 19.9922 5.83027 19.8726 5.94994L20.9332 7.0106ZM21.5377 6.10588C21.6779 5.76754 21.75 5.40491 21.75 5.03869H20.25C20.25 5.20793 20.2167 5.37551 20.1519 5.53186L21.5377 6.10588ZM21.75 5.03869C21.75 4.67248 21.6779 4.30985 21.5377 3.97151L20.1519 4.54553C20.2167 4.70188 20.25 4.86946 20.25 5.03869H21.75ZM21.5377 3.97151C21.3976 3.63317 21.1922 3.32574 20.9332 3.06679L19.8726 4.12745C19.9922 4.24712 20.0871 4.38918 20.1519 4.54553L21.5377 3.97151ZM20.9332 3.06679C20.6743 2.80783 20.3668 2.60242 20.0285 2.46228L19.4545 3.8481C19.6108 3.91286 19.7529 4.00778 19.8726 4.12745L20.9332 3.06679ZM20.0285 2.46228C19.6902 2.32213 19.3275 2.25 18.9613 2.25V3.75C19.1305 3.75 19.2981 3.78333 19.4545 3.8481L20.0285 2.46228ZM18.9613 2.25C18.5951 2.25 18.2325 2.32213 17.8941 2.46228L18.4681 3.8481C18.6245 3.78333 18.7921 3.75 18.9613 3.75V2.25ZM17.8941 2.46228C17.5558 2.60242 17.2484 2.80784 16.9894 3.06679L18.0501 4.12745C18.1697 4.00778 18.3118 3.91286 18.4681 3.8481L17.8941 2.46228ZM18.25 15.6667V18.8667H19.75V15.6667H18.25ZM18.25 18.8667C18.25 19.2336 18.1043 19.5854 17.8448 19.8448L18.9055 20.9055C19.4462 20.3648 19.75 19.6314 19.75 18.8667H18.25ZM17.8448 19.8448C17.5854 20.1043 17.2336 20.25 16.8667 20.25V21.75C17.6314 21.75 18.3648 21.4462 18.9055 20.9055L17.8448 19.8448ZM16.8667 20.25H5.13333V21.75H16.8667V20.25ZM5.13333 20.25C4.76645 20.25 4.41459 20.1043 4.15517 19.8448L3.09451 20.9055C3.63524 21.4462 4.36863 21.75 5.13333 21.75V20.25ZM4.15517 19.8448C3.89574 19.5854 3.75 19.2336 3.75 18.8667H2.25C2.25 19.6314 2.55378 20.3648 3.09451 20.9055L4.15517 19.8448ZM3.75 18.8667V7.13333H2.25V18.8667H3.75ZM3.75 7.13333C3.75 6.76645 3.89574 6.41459 4.15517 6.15517L3.09451 5.09451C2.55378 5.63524 2.25 6.36863 2.25 7.13333H3.75ZM4.15517 6.15517C4.41459 5.89574 4.76645 5.75 5.13333 5.75V4.25C4.36863 4.25 3.63524 4.55378 3.09451 5.09451L4.15517 6.15517ZM5.13333 5.75H8.33333V4.25H5.13333V5.75Z" fill="black"/>
</svg>
