<svg width="72" height="72" viewBox="0 0 72 72" fill="none" xmlns="http://www.w3.org/2000/svg">
<path d="M31.3125 7.875H12.5625C11.3193 7.875 10.127 8.36886 9.24794 9.24794C8.36886 10.127 7.875 11.3193 7.875 12.5625V46.9375C7.875 48.1807 8.36886 49.373 9.24794 50.2521C10.127 51.1311 11.3193 51.625 12.5625 51.625H59.4375C60.6807 51.625 61.873 51.1311 62.7521 50.2521C63.6311 49.373 64.125 48.1807 64.125 46.9375V31.3125M36 51.625V64.125" stroke="black" stroke-width="4.5" stroke-linecap="round" stroke-linejoin="round"/>
<path d="M48.5005 7.875L42.2505 14.125L48.5005 20.375M57.8755 7.875L64.1255 14.125L57.8755 20.375M20.3755 64.125H51.6255" stroke="black" stroke-width="4.5" stroke-linecap="round" stroke-linejoin="round"/>
</svg>
