<svg width="24" height="24" viewBox="0 0 24 24" fill="none" xmlns="http://www.w3.org/2000/svg">
<path fill-rule="evenodd" clip-rule="evenodd" d="M4 10C3.44772 10 3 10.4477 3 11V14C3 14.5523 3.44772 15 4 15H20C20.5523 15 21 14.5523 21 14V11C21 10.4477 20.5523 10 20 10H4ZM4.5 11C4.22386 11 4 11.2239 4 11.5V13.5C4 13.7761 4.22386 14 4.5 14H6.5C6.77614 14 7 13.7761 7 13.5V11.5C7 11.2239 6.77614 11 6.5 11H4.5Z" fill="black"/>
<path fill-rule="evenodd" clip-rule="evenodd" d="M4 4C3.44772 4 3 4.44772 3 5V8C3 8.55228 3.44772 9 4 9H20C20.5523 9 21 8.55228 21 8V5C21 4.44772 20.5523 4 20 4H4ZM4.5 5C4.22386 5 4 5.22386 4 5.5V7.5C4 7.77614 4.22386 8 4.5 8H6.5C6.77614 8 7 7.77614 7 7.5V5.5C7 5.22386 6.77614 5 6.5 5H4.5Z" fill="black"/>
<path fill-rule="evenodd" clip-rule="evenodd" d="M4 16C3.44772 16 3 16.4477 3 17V20C3 20.5523 3.44772 21 4 21H20C20.5523 21 21 20.5523 21 20V17C21 16.4477 20.5523 16 20 16H4ZM4.5 17C4.22386 17 4 17.2239 4 17.5V19.5C4 19.7761 4.22386 20 4.5 20H6.5C6.77614 20 7 19.7761 7 19.5V17.5C7 17.2239 6.77614 17 6.5 17H4.5Z" fill="black"/>
</svg>
