<svg width="48" height="48" viewBox="0 0 48 48" fill="none" xmlns="http://www.w3.org/2000/svg">
<rect width="48" height="48" rx="24" fill="#4586F9"/>
<path d="M22.708 23.384H26.62L28.828 26.264C29.1 25.816 29.316 25.344 29.476 24.848C29.636 24.336 29.716 23.8 29.716 23.24C29.716 22.44 29.564 21.688 29.26 20.984C28.972 20.28 28.564 19.672 28.036 19.16C27.524 18.632 26.916 18.216 26.212 17.912C25.524 17.608 24.78 17.456 23.98 17.456C23.18 17.456 22.428 17.608 21.724 17.912C21.036 18.216 20.436 18.632 19.924 19.16C19.412 19.672 19.004 20.28 18.7 20.984C18.412 21.688 18.268 22.44 18.268 23.24C18.268 24.04 18.412 24.792 18.7 25.496C19.004 26.2 19.412 26.816 19.924 27.344C20.436 27.856 21.036 28.264 21.724 28.568C22.428 28.872 23.18 29.024 23.98 29.024C24.556 29.024 25.124 28.936 25.684 28.76L27.724 31.424C26.54 31.968 25.292 32.24 23.98 32.24C22.732 32.24 21.564 32.008 20.476 31.544C19.388 31.064 18.436 30.424 17.62 29.624C16.82 28.808 16.188 27.856 15.724 26.768C15.26 25.664 15.028 24.488 15.028 23.24C15.028 21.992 15.26 20.824 15.724 19.736C16.188 18.648 16.82 17.696 17.62 16.88C18.436 16.064 19.388 15.424 20.476 14.96C21.564 14.48 22.732 14.24 23.98 14.24C25.228 14.24 26.396 14.48 27.484 14.96C28.572 15.424 29.524 16.064 30.34 16.88C31.156 17.696 31.796 18.648 32.26 19.736C32.724 20.824 32.956 21.992 32.956 23.24C32.956 24.344 32.772 25.376 32.404 26.336C32.052 27.296 31.564 28.168 30.94 28.952L33.292 32H29.308L22.708 23.384Z" fill="white"/>
</svg>
