<svg width="56" height="56" viewBox="0 0 56 56" fill="none" xmlns="http://www.w3.org/2000/svg">
<path d="M27.5463 11.6667V45.5001C20.9676 45.5001 16.0796 36.8914 16.0796 36.8914H10.6296C10.1311 36.8914 9.65303 36.6933 9.30053 36.3408C8.94803 35.9883 8.75 35.5103 8.75 35.0117V22.0141C8.75 21.5156 8.94803 21.0375 9.30053 20.685C9.65303 20.3325 10.1311 20.1345 10.6296 20.1345H16.0796C16.0796 20.1345 20.9676 11.6667 27.5463 11.6667Z" stroke="#2189FF" stroke-width="3" stroke-linejoin="round"/>
<path d="M35.0648 20.125C35.6524 20.65 36.1829 21.2357 36.6475 21.8721C38.0679 23.8209 38.8304 26.1718 38.8241 28.5833C38.8241 31.0776 38.029 33.383 36.6832 35.2466C36.2099 35.9015 35.6673 36.5033 35.0648 37.0417" stroke="#2189FF" stroke-width="3" stroke-linecap="round" stroke-linejoin="round"/>
<path d="M37.1661 44.735C42.6622 41.455 46.3425 35.4486 46.3425 28.5833C46.3425 21.8241 42.775 15.8996 37.4208 12.5876" stroke="#2189FF" stroke-width="3" stroke-linecap="round"/>
</svg>
