<svg width="48" height="48" viewBox="0 0 48 48" fill="none" xmlns="http://www.w3.org/2000/svg">
<path d="M37.0909 29.4091C37.0909 36.9151 31.0061 43 23.5 43M37.0909 29.4091H40.6364C41.9418 29.4091 43 28.3509 43 27.0455V20.5455C43 19.2401 41.9418 18.1818 40.6364 18.1818H37.0909M37.0909 29.4091V18.1818M9.90909 18.1818V29.4091H6.36364C5.05824 29.4091 4 28.3509 4 27.0455V20.5455C4 19.2401 5.05824 18.1818 6.36364 18.1818H9.90909ZM9.90909 18.1818V17.5909C9.90909 10.0849 15.9939 4 23.5 4C31.0061 4 37.0909 10.0849 37.0909 17.5909V18.1818" stroke="black" stroke-width="3" stroke-linecap="round" stroke-linejoin="round"/>
<path d="M30 30C28.3365 31.8536 26.0384 33 23.5 33C20.9616 33 18.6635 31.8536 17 30" stroke="black" stroke-width="3" stroke-linecap="round"/>
</svg>
