<svg width="49" height="48" viewBox="0 0 49 48" fill="none" xmlns="http://www.w3.org/2000/svg">
<circle cx="24.5" cy="24" r="24" fill="#DDDDDD"/>
<path d="M21.6724 26.8294L27.3294 21.1724M19.5504 23.2934L18.1364 24.7074C17.765 25.0789 17.4704 25.5199 17.2693 26.0052C17.0683 26.4905 16.9648 27.0106 16.9648 27.5359C16.9648 28.0612 17.0683 28.5814 17.2693 29.0667C17.4704 29.552 17.765 29.993 18.1364 30.3644C18.5079 30.7359 18.9489 31.0305 19.4342 31.2316C19.9195 31.4326 20.4396 31.536 20.9649 31.536C21.4902 31.536 22.0104 31.4326 22.4957 31.2316C22.981 31.0305 23.422 30.7359 23.7934 30.3644L25.2054 28.9504M23.7924 19.0504L25.2064 17.6364C25.5779 17.265 26.0189 16.9704 26.5042 16.7693C26.9895 16.5683 27.5096 16.4648 28.0349 16.4648C28.5602 16.4648 29.0804 16.5683 29.5657 16.7693C30.051 16.9704 30.492 17.265 30.8634 17.6364C31.2349 18.0079 31.5295 18.4489 31.7306 18.9342C31.9316 19.4195 32.035 19.9396 32.035 20.4649C32.035 20.9902 31.9316 21.5104 31.7306 21.9957C31.5295 22.481 31.2349 22.922 30.8634 23.2934L29.4494 24.7074" stroke="black" stroke-width="2" stroke-linecap="round" stroke-linejoin="round"/>
</svg>
