<svg width="64" height="64" viewBox="0 0 64 64" fill="none" xmlns="http://www.w3.org/2000/svg">
<path d="M58.6666 32H42.6666L37.3333 40H26.6666L21.3333 32H5.33325" stroke="black" stroke-width="4" stroke-linecap="round" stroke-linejoin="round"/>
<path d="M14.5333 13.6265L5.33325 31.9998V47.9998C5.33325 49.4143 5.89515 50.7709 6.89535 51.7711C7.89554 52.7713 9.2521 53.3332 10.6666 53.3332H53.3333C54.7477 53.3332 56.1043 52.7713 57.1045 51.7711C58.1047 50.7709 58.6666 49.4143 58.6666 47.9998V31.9998L49.4666 13.6265C49.025 12.7379 48.3444 11.9902 47.5011 11.4672C46.6579 10.9443 45.6855 10.667 44.6933 10.6665H19.3066C18.3144 10.667 17.342 10.9443 16.4987 11.4672C15.6555 11.9902 14.9748 12.7379 14.5333 13.6265V13.6265Z" stroke="black" stroke-width="4" stroke-linecap="round" stroke-linejoin="round"/>
</svg>
