<svg width="32" height="33" viewBox="0 0 32 33" fill="none" xmlns="http://www.w3.org/2000/svg">
<path d="M5.7998 15.0812C5.7998 14.4185 6.33706 13.8813 6.9998 13.8813H24.3998H24.9998C25.6625 13.8813 26.1998 14.4185 26.1998 15.0812V20.8813C26.1998 21.544 25.6625 22.0812 24.9998 22.0812H24.3998H7.5998H6.9998C6.33706 22.0812 5.7998 21.544 5.7998 20.8813V15.0812Z" fill="#DDDDDD"/>
<path d="M17.5156 4.28125L18.0427 3.74767C17.9023 3.60901 17.7129 3.53125 17.5156 3.53125V4.28125ZM24.3998 11.0813H25.1498C25.1498 10.8807 25.0695 10.6886 24.9269 10.5477L24.3998 11.0813ZM7.5998 13.7812H6.8498V14.5268L7.59534 14.5312L7.5998 13.7812ZM23.3893 27.5312H8.61033V29.0312H23.3893V27.5312ZM8.61033 5.03125H17.5156V3.53125H8.61033V5.03125ZM16.9885 4.81483L23.8727 11.6148L24.9269 10.5477L18.0427 3.74767L16.9885 4.81483ZM16.7656 4.28125V10.0812H18.2656V4.28125H16.7656ZM18.5261 11.8313H24.3998V10.3313H18.5261V11.8313ZM8.61033 3.53125C7.64544 3.53125 6.8498 4.30737 6.8498 5.28125H8.3498C8.3498 5.15056 8.45902 5.03125 8.61033 5.03125V3.53125ZM23.3893 29.0312C24.3542 29.0312 25.1498 28.2551 25.1498 27.2812H23.6498C23.6498 27.4119 23.5406 27.5312 23.3893 27.5312V29.0312ZM8.61033 27.5312C8.45902 27.5312 8.3498 27.4119 8.3498 27.2812H6.8498C6.8498 28.2551 7.64544 29.0312 8.61033 29.0312V27.5312ZM16.7656 10.0812C16.7656 11.0551 17.5612 11.8313 18.5261 11.8313V10.3313C18.3748 10.3313 18.2656 10.2119 18.2656 10.0812H16.7656ZM25.4498 15.0812V20.8813H26.9498V15.0812H25.4498ZM6.5498 20.8813V15.0812H5.0498V20.8813H6.5498ZM6.9998 21.3312C6.75128 21.3312 6.5498 21.1298 6.5498 20.8813H5.0498C5.0498 21.9582 5.92285 22.8312 6.9998 22.8312V21.3312ZM25.4498 20.8813C25.4498 21.1298 25.2483 21.3312 24.9998 21.3312V22.8312C26.0768 22.8312 26.9498 21.9582 26.9498 20.8813H25.4498ZM24.9998 14.6313C25.2483 14.6313 25.4498 14.8327 25.4498 15.0812H26.9498C26.9498 14.0043 26.0768 13.1313 24.9998 13.1313V14.6313ZM6.9998 13.1313C5.92285 13.1313 5.0498 14.0043 5.0498 15.0812H6.5498C6.5498 14.8327 6.75128 14.6313 6.9998 14.6313V13.1313ZM24.9998 21.3312H24.3998V22.8312H24.9998V21.3312ZM23.6498 22.0812V27.2812H25.1498V22.0812H23.6498ZM24.3998 21.3312H7.5998V22.8312H24.3998V21.3312ZM7.5998 21.3312H6.9998V22.8312H7.5998V21.3312ZM6.8498 22.0812V27.2812H8.3498V22.0812H6.8498ZM6.8498 5.28125V13.7812H8.3498V5.28125H6.8498ZM23.6498 11.0813V13.8813H25.1498V11.0813H23.6498ZM6.9998 14.6313H24.3998V13.1313H6.9998V14.6313ZM24.3998 14.6313H24.9998V13.1313H24.3998V14.6313ZM7.59534 14.5312L24.3953 14.6312L24.4043 13.1313L7.60427 13.0313L7.59534 14.5312Z" fill="black"/>
</svg>
