<svg width="25" height="24" viewBox="0 0 25 24" fill="none" xmlns="http://www.w3.org/2000/svg">
<path d="M6.34858 19.2H5.59858H6.34858ZM8.26525 6.6C8.26525 7.01421 8.60103 7.35 9.01525 7.35C9.42946 7.35 9.76525 7.01421 9.76525 6.6H8.26525ZM10.793 3V2.25V3ZM14.3486 3V2.25V3ZM15.3764 6.6C15.3764 7.01421 15.7121 7.35 16.1264 7.35C16.5406 7.35 16.8764 7.01421 16.8764 6.6H15.3764ZM20.5708 7.35C20.985 7.35 21.3208 7.01421 21.3208 6.6C21.3208 6.18579 20.985 5.85 20.5708 5.85V7.35ZM4.5708 5.85C4.15659 5.85 3.8208 6.18579 3.8208 6.6C3.8208 7.01421 4.15659 7.35 4.5708 7.35V5.85ZM15.0986 11.1C15.0986 10.6858 14.7628 10.35 14.3486 10.35C13.9344 10.35 13.5986 10.6858 13.5986 11.1H15.0986ZM13.5986 16.5C13.5986 16.9142 13.9344 17.25 14.3486 17.25C14.7628 17.25 15.0986 16.9142 15.0986 16.5H13.5986ZM11.543 11.1C11.543 10.6858 11.2072 10.35 10.793 10.35C10.3788 10.35 10.043 10.6858 10.043 11.1H11.543ZM10.043 16.5C10.043 16.9142 10.3788 17.25 10.793 17.25C11.2072 17.25 11.543 16.9142 11.543 16.5H10.043ZM18.043 6.6V19.2H19.543V6.6H18.043ZM18.043 19.2C18.043 19.4815 17.9325 19.7495 17.7387 19.9458L18.8059 20.9998C19.2789 20.5209 19.543 19.8733 19.543 19.2H18.043ZM17.7387 19.9458C17.5452 20.1417 17.2848 20.25 17.0152 20.25V21.75C17.6887 21.75 18.3326 21.479 18.8059 20.9998L17.7387 19.9458ZM17.0152 20.25H8.12636V21.75H17.0152V20.25ZM8.12636 20.25C7.8568 20.25 7.59637 20.1417 7.40289 19.9458L6.33566 20.9998C6.80898 21.479 7.45292 21.75 8.12636 21.75V20.25ZM7.40289 19.9458C7.2091 19.7495 7.09858 19.4815 7.09858 19.2H5.59858C5.59858 19.8733 5.86266 20.5209 6.33566 20.9998L7.40289 19.9458ZM7.09858 19.2V6.6H5.59858V19.2H7.09858ZM6.34858 7.35H18.793V5.85H6.34858V7.35ZM9.76525 6.6V4.8H8.26525V6.6H9.76525ZM9.76525 4.8C9.76525 4.51854 9.87576 4.25045 10.0696 4.05423L9.00233 3.00018C8.52933 3.4791 8.26525 4.12668 8.26525 4.8H9.76525ZM10.0696 4.05423C10.263 3.85833 10.5235 3.75 10.793 3.75V2.25C10.1196 2.25 9.47564 2.52095 9.00233 3.00018L10.0696 4.05423ZM10.793 3.75H14.3486V2.25H10.793V3.75ZM14.3486 3.75C14.6181 3.75 14.8786 3.85833 15.072 4.05423L16.1393 3.00018C15.666 2.52095 15.022 2.25 14.3486 2.25V3.75ZM15.072 4.05423C15.2658 4.25045 15.3764 4.51854 15.3764 4.8H16.8764C16.8764 4.12668 16.6123 3.4791 16.1393 3.00018L15.072 4.05423ZM15.3764 4.8V6.6H16.8764V4.8H15.3764ZM18.793 7.35H20.5708V5.85H18.793V7.35ZM6.34858 5.85H4.5708V7.35H6.34858V5.85ZM13.5986 11.1V16.5H15.0986V11.1H13.5986ZM10.043 11.1V16.5H11.543V11.1H10.043Z" fill="black"/>
</svg>
