<svg width="64" height="64" viewBox="0 0 64 64" fill="none" xmlns="http://www.w3.org/2000/svg">
<path d="M46.9657 10.4108L44.9657 10.4064V10.4108H46.9657ZM42.1409 5.0297L42.354 3.04106L42.3474 3.04038L42.1409 5.0297ZM21.8565 5.0297L21.65 3.04037L21.6435 3.04107L21.8565 5.0297ZM17.0317 10.4108H19.0317L19.0317 10.4064L17.0317 10.4108ZM40.0998 50.2C41.2044 50.2 42.0998 49.3046 42.0998 48.2C42.0998 47.0954 41.2044 46.2 40.0998 46.2V50.2ZM23.9003 46.2C22.7957 46.2 21.9003 47.0954 21.9003 48.2C21.9003 49.3046 22.7957 50.2 23.9003 50.2V46.2ZM58.8035 45.2206C58.9578 44.1268 58.1963 43.1151 57.1026 42.9607C56.0089 42.8064 54.9971 43.5679 54.8427 44.6616L58.8035 45.2206ZM7.17702 44.9411L5.19652 45.2197L5.19663 45.2205L7.17702 44.9411ZM6.03766 36.8411L8.01816 36.5625L8.01799 36.5613L6.03766 36.8411ZM6.78823 21.2621L5.32125 19.9027L5.31993 19.9041L6.78823 21.2621ZM57.2119 21.2648L55.7442 22.6235L55.7443 22.6235L57.2119 21.2648ZM56.6334 31.757C56.4992 32.8534 57.2792 33.851 58.3756 33.9852C59.472 34.1194 60.4696 33.3393 60.6037 32.243L56.6334 31.757ZM54.3868 18.8452C54.5822 17.7303 54.5312 16.5861 54.2374 15.493L50.3745 16.5313C50.5168 17.0607 50.5415 17.6148 50.4469 18.1548L54.3868 18.8452ZM54.2374 15.493C53.9435 14.3999 53.414 13.3843 52.686 12.5176L49.6231 15.0903C49.9757 15.51 50.2322 16.0019 50.3745 16.5313L54.2374 15.493ZM52.686 12.5176C51.958 11.6508 51.0491 10.954 50.0231 10.4759L48.3335 14.1015C48.8304 14.3331 49.2706 14.6705 49.6231 15.0903L52.686 12.5176ZM50.0231 10.4759C48.9971 9.99775 47.8789 9.75 46.747 9.75V13.75C47.2952 13.75 47.8367 13.87 48.3335 14.1015L50.0231 10.4759ZM46.747 9.75H17.2531V13.75H46.747V9.75ZM17.2531 9.75C16.1212 9.75 15.003 9.99775 13.977 10.4759L15.6666 14.1015C16.1634 13.87 16.705 13.75 17.2531 13.75V9.75ZM13.977 10.4759C12.951 10.954 12.0421 11.6508 11.3141 12.5176L14.377 15.0903C14.7296 14.6705 15.1697 14.3331 15.6666 14.1015L13.977 10.4759ZM11.3141 12.5176C10.5861 13.3843 10.0566 14.3999 9.76277 15.493L13.6257 16.5313C13.768 16.0019 14.0244 15.51 14.377 15.0903L11.3141 12.5176ZM9.76277 15.493C9.46895 16.5861 9.41793 17.7303 9.61331 18.8452L13.5533 18.1548C13.4587 17.6148 13.4834 17.0607 13.6257 16.5313L9.76277 15.493ZM48.8381 11.9641C48.9062 11.3317 48.9657 10.8375 48.9657 10.4108H44.9657C44.9657 10.5619 44.9442 10.7643 44.8611 11.5359L48.8381 11.9641ZM48.9657 10.4152C48.9697 8.58626 48.2963 6.82063 47.0754 5.45892L44.0972 8.12919C44.6581 8.75484 44.9675 9.56608 44.9657 10.4064L48.9657 10.4152ZM47.0754 5.45892C45.8544 4.09719 44.1725 3.23586 42.354 3.04107L41.9279 7.01833C42.7634 7.10781 43.5362 7.50354 44.0972 8.12919L47.0754 5.45892ZM42.3474 3.04038C41.9319 2.99726 41.4515 3 40.8018 3V7C41.556 7 41.7776 7.00274 41.9345 7.01902L42.3474 3.04038ZM40.8018 3H23.1983V7H40.8018V3ZM23.1983 3C22.5488 3 22.0656 2.99726 21.65 3.04038L22.0629 7.01902C22.2197 7.00274 22.4439 7 23.1983 7V3ZM21.6435 3.04107C19.825 3.23586 18.143 4.0972 16.9221 5.45892L19.9003 8.12919C20.4612 7.50354 21.234 7.10781 22.0695 7.01833L21.6435 3.04107ZM16.9221 5.45892C15.7011 6.82063 15.0277 8.58625 15.0317 10.4152L19.0317 10.4064C19.0299 9.56609 19.3393 8.75484 19.9003 8.12919L16.9221 5.45892ZM15.0317 10.4108C15.0317 10.8383 15.0874 11.3216 15.1602 11.9725L19.1354 11.5275C19.0517 10.7798 19.0317 10.5611 19.0317 10.4108H15.0317ZM40.0998 46.2H23.9003V50.2H40.0998V46.2ZM54.8427 44.6616C54.3626 48.064 54.026 50.4199 53.5313 52.1871C53.0546 53.8901 52.4926 54.8037 51.708 55.4537L54.2596 58.5341C55.8969 57.1779 56.782 55.4132 57.3832 53.2653C57.9665 51.1817 58.3387 48.5141 58.8035 45.2206L54.8427 44.6616ZM51.708 55.4537C50.9107 56.1141 49.8419 56.536 47.947 56.7635C46.0048 56.9966 43.4663 57 39.8433 57V61C43.367 61 46.1878 61.0034 48.4238 60.735C50.707 60.4609 52.6351 59.8798 54.2596 58.5341L51.708 55.4537ZM39.8433 57H24.1568V61H39.8433V57ZM24.1568 57C20.5352 57 17.9967 56.9966 16.0541 56.7635C14.1586 56.536 13.0893 56.114 12.2921 55.4537L9.74048 58.5341C11.3652 59.8799 13.2941 60.4609 15.5774 60.735C17.8136 61.0034 20.6344 61 24.1568 61V57ZM12.2921 55.4537C11.5073 54.8036 10.9454 53.8904 10.4688 52.188C9.97414 50.4212 9.63757 48.0655 9.15741 44.6617L5.19663 45.2205C5.66144 48.5154 6.0336 51.183 6.6169 53.2664C7.21824 55.4143 8.10349 57.1781 9.74048 58.5341L12.2921 55.4537ZM9.15753 44.6625L8.01816 36.5625L4.05715 37.1197L5.19652 45.2197L9.15753 44.6625ZM8.01799 36.5613C7.40564 32.2268 6.98331 29.1982 7.0005 26.9008C7.01716 24.6737 7.45078 23.4913 8.25654 22.6201L5.31993 19.9041C3.56616 21.8004 3.02107 24.1361 3.00061 26.8709C2.98067 29.5355 3.46281 32.9126 4.05732 37.1209L8.01799 36.5613ZM8.25522 22.6215C9.07879 21.7327 10.3159 21.1458 12.7087 20.8278C15.144 20.5042 18.403 20.5 23.0147 20.5V16.5C18.517 16.5 14.9424 16.4958 12.1818 16.8627C9.37854 17.2352 7.0572 18.0294 5.32125 19.9027L8.25522 22.6215ZM23.0147 20.5H40.9854V16.5H23.0147V20.5ZM40.9854 20.5C45.5972 20.5 48.856 20.5042 51.2912 20.8281C53.6835 21.1464 54.9206 21.7337 55.7442 22.6235L58.6795 19.9061C56.9437 18.0311 54.6222 17.236 51.8186 16.8631C49.0578 16.4958 45.4831 16.5 40.9854 16.5V20.5ZM55.7443 22.6235C57.0472 24.0309 57.3164 26.1762 56.6334 31.757L60.6037 32.243C61.2491 26.9698 61.421 22.8673 58.6795 19.9061L55.7443 22.6235Z" fill="black"/>
</svg>
