<svg width="24" height="24" viewBox="0 0 24 24" fill="none" xmlns="http://www.w3.org/2000/svg">
<path d="M0.5 4C0.5 2.067 2.067 0.5 4 0.5H20C21.933 0.5 23.5 2.067 23.5 4V20C23.5 21.933 21.933 23.5 20 23.5H4C2.067 23.5 0.5 21.933 0.5 20V4Z" fill="#DDDDDD"/>
<path d="M0.5 4C0.5 2.067 2.067 0.5 4 0.5H20C21.933 0.5 23.5 2.067 23.5 4V20C23.5 21.933 21.933 23.5 20 23.5H4C2.067 23.5 0.5 21.933 0.5 20V4Z" stroke="#CCCCCC"/>
<path d="M14.9304 12.4069C15.2096 12.2075 15.2096 11.7925 14.9304 11.5931L9.29062 7.56472C8.95969 7.32834 8.5 7.5649 8.5 7.97159L8.5 16.0284C8.5 16.4351 8.95969 16.6717 9.29062 16.4353L14.9304 12.4069Z" fill="#8F8F8F"/>
</svg>
